M48
; DRILL file {KiCad (6.0.2)} date Sat 12 Mar 2022 05:52:26 PM CET
; FORMAT={-:-/ absolute / inch / decimal}
; #@! TF.CreationDate,2022-03-12T17:52:26+01:00
; #@! TF.GenerationSoftware,Kicad,Pcbnew,(6.0.2)
; #@! TF.FileFunction,Plated,1,2,PTH
FMAT,2
INCH
; #@! TA.AperFunction,Plated,PTH,ViaDrill
T1C0.0157
; #@! TA.AperFunction,Plated,PTH,ComponentDrill
T2C0.0300
; #@! TA.AperFunction,Plated,PTH,ComponentDrill
T3C0.0315
; #@! TA.AperFunction,Plated,PTH,ComponentDrill
T4C0.0354
; #@! TA.AperFunction,Plated,PTH,ComponentDrill
T5C0.0360
; #@! TA.AperFunction,Plated,PTH,ComponentDrill
T6C0.0374
; #@! TA.AperFunction,Plated,PTH,ComponentDrill
T7C0.0394
; #@! TA.AperFunction,Plated,PTH,ComponentDrill
T8C0.0512
; #@! TA.AperFunction,Plated,PTH,ComponentDrill
T9C0.0591
; #@! TA.AperFunction,Plated,PTH,ComponentDrill
T10C0.0906
%
G90
G05
T1
X2.6Y-2.8
X2.8Y-2.8
X3.2426Y-2.6992
X3.3544Y-2.5864
X3.8Y-2.5
X4.0Y-1.4
X4.1Y-2.5932
X4.2903Y-2.5856
X4.2903Y-2.6618
X5.0Y-1.3
X5.1223Y-1.3
X5.2491Y-2.949
X5.2645Y-3.0388
T2
X3.4Y-2.1
X3.4Y-2.7
X3.5Y-2.1
X3.5Y-2.7
X3.6Y-2.1
X3.6Y-2.7
X3.7Y-2.1
X3.7Y-2.7
X3.8Y-2.1
X3.8Y-2.7
X3.9Y-2.1
X3.9Y-2.7
X4.0Y-2.1
X4.0Y-2.7
X4.1Y-2.1
X4.1Y-2.7
X4.2Y-2.1
X4.2Y-2.7
T3
X1.6Y-3.2
X1.6Y-3.6
X1.7Y-3.2
X1.7Y-3.6
X1.9079Y-3.2
X1.9079Y-3.6
X2.0079Y-3.2
X2.0079Y-3.6
X2.1Y-3.2
X2.1Y-3.6
X2.2Y-3.2
X2.2Y-3.6
X2.3Y-3.2
X2.3Y-3.6
X2.4Y-3.2
X2.4Y-3.6
X2.5Y-3.2
X2.5Y-3.6
X2.6Y-1.3
X2.6Y-3.2
X2.6Y-3.6
X2.7Y-3.2
X2.7Y-3.6
X2.8Y-3.2
X2.8Y-3.6
X2.9Y-3.2
X2.9Y-3.6
X2.9016Y-1.2
X3.0Y-1.2
X3.0Y-1.3
X3.0Y-3.2
X3.0Y-3.6
X3.1Y-3.2
X3.1Y-3.6
X3.2Y-2.35
X3.2Y-2.4287
X3.2Y-3.2
X3.2Y-3.6
X3.3Y-3.2
X3.3Y-3.6
X3.3016Y-1.3
X3.4Y-1.3
X3.4Y-3.2
X3.4Y-3.6
X3.5Y-2.6
X3.5Y-3.2
X3.5Y-3.6
X3.5984Y-2.6
X3.6Y-3.2
X3.6Y-3.6
X3.7Y-3.2
X3.7Y-3.6
X3.8Y-2.9
X3.8Y-3.2
X3.8Y-3.6
X3.9Y-3.2
X3.9Y-3.6
X4.0Y-3.2
X4.0Y-3.6
X4.1Y-3.2
X4.1Y-3.6
X4.2Y-2.9
X4.2Y-3.2
X4.2Y-3.6
X4.3Y-3.2
X4.3Y-3.6
X4.3213Y-2.9
X4.35Y-1.6
X4.35Y-1.6984
X4.4Y-2.9
X4.4Y-3.2
X4.4Y-3.6
X4.5Y-1.0
X4.5Y-1.1
X4.5Y-1.2
X4.5Y-1.3
X4.5Y-3.2
X4.5Y-3.6
X4.5504Y-2.7984
X4.6Y-3.2
X4.6Y-3.6
X4.6488Y-2.7984
X4.7Y-1.7213
X4.7Y-1.8
X4.7Y-1.8787
X4.7Y-3.2
X4.7Y-3.6
X4.7004Y-2.35
X4.7004Y-2.95
X4.7504Y-2.5
X4.7504Y-2.6
X4.7504Y-2.7
X4.7504Y-2.8
X4.8Y-1.0
X4.8Y-1.1
X4.8Y-1.2
X4.8Y-1.3
X4.8Y-3.2
X4.8Y-3.6
X4.9Y-3.2
X4.9Y-3.6
X4.9016Y-1.2
X5.0Y-1.2
X5.0Y-3.2
X5.0Y-3.6
X5.0504Y-2.5
X5.0504Y-2.6
X5.0504Y-2.7
X5.0504Y-2.8
X5.1Y-3.2
X5.1Y-3.6
X5.1004Y-2.35
X5.1004Y-2.95
X5.1504Y-2.7
X5.1504Y-2.8
X5.2Y-3.2
X5.2Y-3.6
X5.2488Y-2.7
X5.2488Y-2.8
X5.3Y-3.2
X5.3Y-3.6
X5.4Y-1.1016
X5.4Y-1.2
X5.4Y-2.3
X5.4Y-2.7
X5.4Y-3.2
X5.4Y-3.6
X5.5Y-2.3
X5.5Y-2.7
X5.5Y-3.2
X5.5Y-3.6
X5.6Y-2.3
X5.6Y-2.7
X5.6Y-3.2
X5.6Y-3.6
X5.7Y-1.3
X5.7Y-2.3
X5.7Y-2.7
X5.7787Y-1.3
X6.3Y-3.2
X6.3Y-3.6
X6.4Y-3.2
X6.4Y-3.6
T4
X3.8Y-2.8
X4.1Y-2.8
T5
X3.3Y-1.6542
X3.3Y-1.9542
X3.4Y-1.6542
X3.4Y-1.9542
X3.5Y-1.6542
X3.5Y-1.9542
X3.6Y-1.6542
X3.6Y-1.9542
X3.7Y-1.6542
X3.7Y-1.9542
X3.8Y-1.6542
X3.8Y-1.9542
X3.9Y-1.6542
X3.9Y-1.9542
X4.0Y-1.6542
X4.0Y-1.9542
X4.1Y-1.6542
X4.1Y-1.9542
X4.2Y-1.6542
X4.2Y-1.9542
T6
X1.4508Y-1.1885
X1.4508Y-1.2672
X1.5492Y-1.1885
X1.5492Y-1.2672
T7
X1.9402Y-1.0
X2.0402Y-1.0
X2.1402Y-1.0
X2.2402Y-1.0
X2.3Y-2.9
X2.3402Y-1.0
X2.4Y-2.9
X2.4402Y-1.0
X2.5Y-2.9
X2.5402Y-1.0
X2.6Y-2.9
X2.6402Y-1.0
X2.7Y-2.9
X2.7402Y-1.0
X2.8Y-2.9
X2.8402Y-1.0
X2.9Y-2.9
X3.0Y-1.0
X3.0Y-2.9
X3.1Y-1.0
X3.2Y-1.0
X3.2Y-2.9
X3.3Y-1.0
X3.3Y-2.9
X3.4Y-1.0
X3.4Y-2.9
X3.5Y-1.0
X3.5Y-2.9
X3.6Y-1.0
X3.6Y-2.9
X3.7Y-1.0
X3.7Y-2.9
X4.3Y-1.2
X4.4Y-1.2
X4.5504Y-2.7
X4.6504Y-2.7
X5.5Y-2.8
X5.5Y-2.9
X5.6Y-2.8
X5.6Y-2.9
X5.7Y-1.0
X5.8Y-1.0
X5.9Y-3.0
X6.0Y-3.0
T8
X1.0063Y-2.2
X1.2031Y-2.2
X1.4Y-2.2
X1.7031Y-2.7075
X1.7031Y-2.9043
X1.8031Y-2.2
X2.0Y-2.2
X2.0969Y-2.8059
X2.1969Y-2.2
X2.6063Y-2.2
X2.8031Y-2.2
X3.0Y-2.2
X5.3031Y-2.2
X5.5Y-2.2
X5.6969Y-2.2
X6.0166Y-1.0138
X6.0363Y-1.3012
X6.1031Y-2.2
X6.1977Y-0.8602
X6.1988Y-2.5363
X6.2962Y-1.128
X6.3Y-2.2
X6.3248Y-2.9025
X6.372Y-2.7962
X6.4025Y-1.1752
X6.4862Y-2.5166
X6.4969Y-2.2
X6.6398Y-2.6977
T9
X4.7Y-1.6386
X4.7Y-1.9614
T10
X1.2638Y-1.0759
X1.7362Y-1.0759
T0
M30
