%TF.GenerationSoftware,KiCad,Pcbnew,(6.0.2)*%
%TF.CreationDate,2022-03-12T17:52:29+01:00*%
%TF.ProjectId,hardware,68617264-7761-4726-952e-6b696361645f,rev?*%
%TF.SameCoordinates,Original*%
%TF.FileFunction,Copper,L2,Bot*%
%TF.FilePolarity,Positive*%
%FSLAX46Y46*%
G04 Gerber Fmt 4.6, Leading zero omitted, Abs format (unit mm)*
G04 Created by KiCad (PCBNEW (6.0.2)) date 2022-03-12 17:52:29*
%MOMM*%
%LPD*%
G01*
G04 APERTURE LIST*
%TA.AperFunction,ComponentPad*%
%ADD10C,1.600000*%
%TD*%
%TA.AperFunction,ComponentPad*%
%ADD11O,1.600000X1.600000*%
%TD*%
%TA.AperFunction,ComponentPad*%
%ADD12R,2.032000X2.032000*%
%TD*%
%TA.AperFunction,ComponentPad*%
%ADD13C,2.032000*%
%TD*%
%TA.AperFunction,ComponentPad*%
%ADD14R,1.600000X1.600000*%
%TD*%
%TA.AperFunction,ComponentPad*%
%ADD15R,1.700000X1.700000*%
%TD*%
%TA.AperFunction,ComponentPad*%
%ADD16O,1.700000X1.700000*%
%TD*%
%TA.AperFunction,ComponentPad*%
%ADD17C,4.000000*%
%TD*%
%TA.AperFunction,ComponentPad*%
%ADD18C,2.340000*%
%TD*%
%TA.AperFunction,ComponentPad*%
%ADD19O,2.200000X4.000000*%
%TD*%
%TA.AperFunction,ComponentPad*%
%ADD20O,4.000000X2.200000*%
%TD*%
%TA.AperFunction,ComponentPad*%
%ADD21R,2.200000X4.000000*%
%TD*%
%TA.AperFunction,ComponentPad*%
%ADD22R,1.800000X1.800000*%
%TD*%
%TA.AperFunction,ComponentPad*%
%ADD23O,1.800000X1.800000*%
%TD*%
%TA.AperFunction,ComponentPad*%
%ADD24O,3.500000X2.200000*%
%TD*%
%TA.AperFunction,ComponentPad*%
%ADD25R,2.500000X1.500000*%
%TD*%
%TA.AperFunction,ComponentPad*%
%ADD26O,2.500000X1.500000*%
%TD*%
%TA.AperFunction,ComponentPad*%
%ADD27R,4.000000X2.200000*%
%TD*%
%TA.AperFunction,ComponentPad*%
%ADD28R,1.524000X1.524000*%
%TD*%
%TA.AperFunction,ComponentPad*%
%ADD29C,1.524000*%
%TD*%
%TA.AperFunction,ViaPad*%
%ADD30C,0.800000*%
%TD*%
%TA.AperFunction,Conductor*%
%ADD31C,0.250000*%
%TD*%
G04 APERTURE END LIST*
D10*
%TO.P,R48,1*%
%TO.N,Net-(R47-Pad2)*%
X144780000Y-58420000D03*
D11*
%TO.P,R48,2*%
%TO.N,Net-(J8-Pad1)*%
X144780000Y-68580000D03*
%TD*%
D10*
%TO.P,R27,1*%
%TO.N,Net-(R26-Pad2)*%
X106680000Y-81280000D03*
D11*
%TO.P,R27,2*%
%TO.N,PAD_F4*%
X106680000Y-91440000D03*
%TD*%
D10*
%TO.P,R12,1*%
%TO.N,Net-(R11-Pad2)*%
X71120000Y-81280000D03*
D11*
%TO.P,R12,2*%
%TO.N,PAD_A#3*%
X71120000Y-91440000D03*
%TD*%
D10*
%TO.P,R42,1*%
%TO.N,PAD_C5*%
X160020000Y-81280000D03*
D11*
%TO.P,R42,2*%
%TO.N,Net-(R42-Pad2)*%
X160020000Y-91440000D03*
%TD*%
D10*
%TO.P,R47,1*%
%TO.N,Net-(J7-Pad2)*%
X142240000Y-68580000D03*
D11*
%TO.P,R47,2*%
%TO.N,Net-(R47-Pad2)*%
X142240000Y-58420000D03*
%TD*%
D10*
%TO.P,R50,1*%
%TO.N,Net-(R49-Pad2)*%
X137160000Y-58420000D03*
D11*
%TO.P,R50,2*%
%TO.N,Net-(J8-Pad1)*%
X137160000Y-68580000D03*
%TD*%
D10*
%TO.P,R33,1*%
%TO.N,Net-(R32-Pad2)*%
X121920000Y-81280000D03*
D11*
%TO.P,R33,2*%
%TO.N,PAD_G#4*%
X121920000Y-91440000D03*
%TD*%
D10*
%TO.P,R36,1*%
%TO.N,PAD_A4*%
X129540000Y-81280000D03*
D11*
%TO.P,R36,2*%
%TO.N,Net-(R36-Pad2)*%
X129540000Y-91440000D03*
%TD*%
D10*
%TO.P,R21,1*%
%TO.N,PAD_D4*%
X93980000Y-81280000D03*
D11*
%TO.P,R21,2*%
%TO.N,Net-(R21-Pad2)*%
X93980000Y-91440000D03*
%TD*%
D10*
%TO.P,R5,1*%
%TO.N,PAD_F#3*%
X53340000Y-81280000D03*
D11*
%TO.P,R5,2*%
%TO.N,Net-(R5-Pad2)*%
X53340000Y-91440000D03*
%TD*%
D10*
%TO.P,R13,1*%
%TO.N,PAD_A#3*%
X73660000Y-81280000D03*
D11*
%TO.P,R13,2*%
%TO.N,Net-(R13-Pad2)*%
X73660000Y-91440000D03*
%TD*%
D10*
%TO.P,R11,1*%
%TO.N,PAD_A3*%
X68580000Y-81280000D03*
D11*
%TO.P,R11,2*%
%TO.N,Net-(R11-Pad2)*%
X68580000Y-91440000D03*
%TD*%
D10*
%TO.P,R22,1*%
%TO.N,Net-(R21-Pad2)*%
X96520000Y-81280000D03*
D11*
%TO.P,R22,2*%
%TO.N,PAD_D#4*%
X96520000Y-91440000D03*
%TD*%
D10*
%TO.P,R38,1*%
%TO.N,PAD_A#4*%
X134620000Y-81280000D03*
D11*
%TO.P,R38,2*%
%TO.N,Net-(R38-Pad2)*%
X134620000Y-91440000D03*
%TD*%
D12*
%TO.P,BAR1,1,A*%
%TO.N,VCC*%
X106680000Y-42017500D03*
D13*
%TO.P,BAR1,2,A*%
X104140000Y-42017500D03*
%TO.P,BAR1,3,A*%
X101600000Y-42017500D03*
%TO.P,BAR1,4,A*%
X99060000Y-42017500D03*
%TO.P,BAR1,5,A*%
X96520000Y-42017500D03*
%TO.P,BAR1,6,A*%
X93980000Y-42017500D03*
%TO.P,BAR1,7,A*%
X91440000Y-42017500D03*
%TO.P,BAR1,8,A*%
X88900000Y-42017500D03*
%TO.P,BAR1,9,A*%
X86360000Y-42017500D03*
%TO.P,BAR1,10,A*%
X83820000Y-42017500D03*
%TO.P,BAR1,11,K*%
%TO.N,Net-(BAR1-Pad11)*%
X83820000Y-49637500D03*
%TO.P,BAR1,12,K*%
%TO.N,Net-(BAR1-Pad12)*%
X86360000Y-49637500D03*
%TO.P,BAR1,13,K*%
%TO.N,Net-(BAR1-Pad13)*%
X88900000Y-49637500D03*
%TO.P,BAR1,14,K*%
%TO.N,Net-(BAR1-Pad14)*%
X91440000Y-49637500D03*
%TO.P,BAR1,15,K*%
%TO.N,Net-(BAR1-Pad15)*%
X93980000Y-49637500D03*
%TO.P,BAR1,16,K*%
%TO.N,Net-(BAR1-Pad16)*%
X96520000Y-49637500D03*
%TO.P,BAR1,17,K*%
%TO.N,Net-(BAR1-Pad17)*%
X99060000Y-49637500D03*
%TO.P,BAR1,18,K*%
%TO.N,Net-(BAR1-Pad18)*%
X101600000Y-49637500D03*
%TO.P,BAR1,19,K*%
%TO.N,Net-(BAR1-Pad19)*%
X104140000Y-49637500D03*
%TO.P,BAR1,20,K*%
%TO.N,Net-(BAR1-Pad20)*%
X106680000Y-49637500D03*
%TD*%
D10*
%TO.P,R41,1*%
%TO.N,Net-(R40-Pad2)*%
X142240000Y-81280000D03*
D11*
%TO.P,R41,2*%
%TO.N,PAD_C5*%
X142240000Y-91440000D03*
%TD*%
D10*
%TO.P,R46,1*%
%TO.N,Net-(A1-Pad12)*%
X119390000Y-59690000D03*
D11*
%TO.P,R46,2*%
%TO.N,KB_IN*%
X129550000Y-59690000D03*
%TD*%
D14*
%TO.P,C10,1*%
%TO.N,D_SYNTH*%
X86360000Y-33020000D03*
D10*
%TO.P,C10,2*%
%TO.N,Net-(C10-Pad2)*%
X83860000Y-33020000D03*
%TD*%
D15*
%TO.P,J2,1,Pin_1*%
%TO.N,Net-(J2-Pad1)*%
X118120000Y-68580000D03*
D16*
%TO.P,J2,2,Pin_2*%
%TO.N,A_SYNTH*%
X115580000Y-68580000D03*
%TD*%
D14*
%TO.P,J3,1,VBUS*%
%TO.N,Net-(J3-Pad1)*%
X36850000Y-32187500D03*
D10*
%TO.P,J3,2,D-*%
%TO.N,unconnected-(J3-Pad2)*%
X39350000Y-32187500D03*
%TO.P,J3,3,D+*%
%TO.N,unconnected-(J3-Pad3)*%
X39350000Y-30187500D03*
%TO.P,J3,4,GND*%
%TO.N,GND*%
X36850000Y-30187500D03*
D17*
%TO.P,J3,5,Shield*%
X44100000Y-27327500D03*
X32100000Y-27327500D03*
%TD*%
D10*
%TO.P,R6,1*%
%TO.N,Net-(R5-Pad2)*%
X55880000Y-81280000D03*
D11*
%TO.P,R6,2*%
%TO.N,PAD_G3*%
X55880000Y-91440000D03*
%TD*%
D18*
%TO.P,RV5,1,1*%
%TO.N,unconnected-(RV5-Pad1)*%
X165020000Y-55880000D03*
%TO.P,RV5,2,2*%
%TO.N,Net-(RV5-Pad2)*%
X160020000Y-55880000D03*
%TO.P,RV5,3,3*%
%TO.N,Net-(RV5-Pad3)*%
X155020000Y-55880000D03*
%TD*%
D14*
%TO.P,U3,1,GAIN*%
%TO.N,Net-(RV5-Pad2)*%
X114300000Y-25400000D03*
D11*
%TO.P,U3,2,-*%
%TO.N,GND*%
X114300000Y-27940000D03*
%TO.P,U3,3,+*%
%TO.N,PRE_AMP*%
X114300000Y-30480000D03*
%TO.P,U3,4,GND*%
%TO.N,GND*%
X114300000Y-33020000D03*
%TO.P,U3,5*%
%TO.N,Net-(C8-Pad1)*%
X121920000Y-33020000D03*
%TO.P,U3,6,V+*%
%TO.N,VCC*%
X121920000Y-30480000D03*
%TO.P,U3,7,BYPASS*%
%TO.N,unconnected-(U3-Pad7)*%
X121920000Y-27940000D03*
%TO.P,U3,8,GAIN*%
%TO.N,Net-(RV5-Pad3)*%
X121920000Y-25400000D03*
%TD*%
D14*
%TO.P,C7,1*%
%TO.N,Net-(C7-Pad1)*%
X111760000Y-73660000D03*
D10*
%TO.P,C7,2*%
%TO.N,GND*%
X109760000Y-73660000D03*
%TD*%
D19*
%TO.P,J6,R*%
%TO.N,N/C*%
X162622500Y-29850000D03*
%TO.P,J6,RN*%
X159922500Y-28650000D03*
D20*
%TO.P,J6,S*%
%TO.N,GND*%
X157422500Y-21850000D03*
D21*
%TO.P,J6,T*%
%TO.N,Net-(C8-Pad2)*%
X152822500Y-25750000D03*
D20*
%TO.P,J6,TN*%
%TO.N,N/C*%
X153322500Y-33050000D03*
%TD*%
D10*
%TO.P,R17,1*%
%TO.N,PAD_C4*%
X83820000Y-81280000D03*
D11*
%TO.P,R17,2*%
%TO.N,Net-(R17-Pad2)*%
X83820000Y-91440000D03*
%TD*%
D10*
%TO.P,R7,1*%
%TO.N,PAD_G3*%
X58420000Y-81280000D03*
D11*
%TO.P,R7,2*%
%TO.N,Net-(R7-Pad2)*%
X58420000Y-91440000D03*
%TD*%
D10*
%TO.P,R3,1*%
%TO.N,PAD_F3*%
X48460000Y-81280000D03*
D11*
%TO.P,R3,2*%
%TO.N,Net-(R3-Pad2)*%
X48460000Y-91440000D03*
%TD*%
D10*
%TO.P,R20,1*%
%TO.N,Net-(R19-Pad2)*%
X91440000Y-81280000D03*
D11*
%TO.P,R20,2*%
%TO.N,PAD_D4*%
X91440000Y-91440000D03*
%TD*%
D10*
%TO.P,R16,1*%
%TO.N,Net-(R15-Pad2)*%
X81280000Y-81280000D03*
D11*
%TO.P,R16,2*%
%TO.N,PAD_C4*%
X81280000Y-91440000D03*
%TD*%
D22*
%TO.P,D1,1,K*%
%TO.N,Net-(C7-Pad1)*%
X96520000Y-71120000D03*
D23*
%TO.P,D1,2,A*%
%TO.N,AUDIO_OUT*%
X104140000Y-71120000D03*
%TD*%
D10*
%TO.P,C4,1*%
%TO.N,GND*%
X88900000Y-66040000D03*
%TO.P,C4,2*%
%TO.N,VCC*%
X91400000Y-66040000D03*
%TD*%
%TO.P,R10,1*%
%TO.N,Net-(R10-Pad1)*%
X66040000Y-81280000D03*
D11*
%TO.P,R10,2*%
%TO.N,PAD_A3*%
X66040000Y-91440000D03*
%TD*%
D18*
%TO.P,RV3,1,1*%
%TO.N,VCC*%
X76200000Y-55880000D03*
%TO.P,RV3,2,2*%
%TO.N,POT_WAV*%
X71200000Y-55880000D03*
%TO.P,RV3,3,3*%
%TO.N,GND*%
X66200000Y-55880000D03*
%TD*%
D10*
%TO.P,C1,1*%
%TO.N,GND*%
X115580000Y-71080000D03*
%TO.P,C1,2*%
%TO.N,VCC*%
X118080000Y-71080000D03*
%TD*%
%TO.P,R15,1*%
%TO.N,PAD_B3*%
X78740000Y-81280000D03*
D11*
%TO.P,R15,2*%
%TO.N,Net-(R15-Pad2)*%
X78740000Y-91440000D03*
%TD*%
D10*
%TO.P,R8,1*%
%TO.N,Net-(R7-Pad2)*%
X60960000Y-81280000D03*
D11*
%TO.P,R8,2*%
%TO.N,PAD_G#3*%
X60960000Y-91440000D03*
%TD*%
D10*
%TO.P,R9,1*%
%TO.N,PAD_G#3*%
X63500000Y-81280000D03*
D11*
%TO.P,R9,2*%
%TO.N,Net-(R10-Pad1)*%
X63500000Y-91440000D03*
%TD*%
D10*
%TO.P,C3,1*%
%TO.N,Net-(C3-Pad1)*%
X130820000Y-68580000D03*
%TO.P,C3,2*%
%TO.N,GND*%
X133320000Y-68580000D03*
%TD*%
%TO.P,R43,1*%
%TO.N,Net-(R42-Pad2)*%
X162560000Y-81280000D03*
D11*
%TO.P,R43,2*%
%TO.N,GND*%
X162560000Y-91440000D03*
%TD*%
D18*
%TO.P,RV6,1,1*%
%TO.N,Net-(R47-Pad2)*%
X144700000Y-55880000D03*
%TO.P,RV6,2,2*%
%TO.N,GND*%
X139700000Y-55880000D03*
%TO.P,RV6,3,3*%
%TO.N,Net-(R49-Pad2)*%
X134700000Y-55880000D03*
%TD*%
D15*
%TO.P,J7,1,Pin_1*%
%TO.N,D_SYNTH*%
X142240000Y-73660000D03*
D16*
%TO.P,J7,2,Pin_2*%
%TO.N,Net-(J7-Pad2)*%
X142240000Y-71120000D03*
%TD*%
D10*
%TO.P,C5,1*%
%TO.N,GND*%
X110490000Y-40640000D03*
%TO.P,C5,2*%
%TO.N,VCC*%
X110490000Y-43140000D03*
%TD*%
D24*
%TO.P,SW1,*%
%TO.N,*%
X119380000Y-49820000D03*
X119380000Y-41620000D03*
D25*
%TO.P,SW1,1,A*%
%TO.N,Net-(J3-Pad1)*%
X119380000Y-43720000D03*
D26*
%TO.P,SW1,2,B*%
%TO.N,VCC*%
X119380000Y-45720000D03*
%TO.P,SW1,3*%
%TO.N,N/C*%
X119380000Y-47720000D03*
%TD*%
D10*
%TO.P,R25,1*%
%TO.N,Net-(R24-Pad2)*%
X101600000Y-81280000D03*
D11*
%TO.P,R25,2*%
%TO.N,PAD_E4*%
X101600000Y-91440000D03*
%TD*%
D14*
%TO.P,C9,1*%
%TO.N,Net-(C8-Pad1)*%
X137160000Y-27980000D03*
D10*
%TO.P,C9,2*%
%TO.N,GND*%
X137160000Y-30480000D03*
%TD*%
D18*
%TO.P,RV1,1,1*%
%TO.N,VCC*%
X35560000Y-55880000D03*
%TO.P,RV1,2,2*%
%TO.N,POT_ATK*%
X30560000Y-55880000D03*
%TO.P,RV1,3,3*%
%TO.N,GND*%
X25560000Y-55880000D03*
%TD*%
%TO.P,RV2,1,1*%
%TO.N,VCC*%
X55800000Y-55880000D03*
%TO.P,RV2,2,2*%
%TO.N,POT_REL*%
X50800000Y-55880000D03*
%TO.P,RV2,3,3*%
%TO.N,GND*%
X45800000Y-55880000D03*
%TD*%
D10*
%TO.P,R2,1*%
%TO.N,Net-(R1-Pad2)*%
X43180000Y-81280000D03*
D11*
%TO.P,R2,2*%
%TO.N,PAD_F3*%
X43180000Y-91440000D03*
%TD*%
D10*
%TO.P,C6,1*%
%TO.N,GND*%
X127000000Y-30480000D03*
%TO.P,C6,2*%
%TO.N,VCC*%
X124500000Y-30480000D03*
%TD*%
%TO.P,R18,1*%
%TO.N,Net-(R17-Pad2)*%
X86360000Y-81280000D03*
D11*
%TO.P,R18,2*%
%TO.N,PAD_C#4*%
X86360000Y-91440000D03*
%TD*%
D10*
%TO.P,C12,1*%
%TO.N,Net-(C10-Pad2)*%
X76200000Y-30480000D03*
%TO.P,C12,2*%
%TO.N,GND*%
X73700000Y-30480000D03*
%TD*%
D20*
%TO.P,J4,R*%
%TO.N,N/C*%
X160650000Y-73722500D03*
%TO.P,J4,RN*%
X161850000Y-71022500D03*
D19*
%TO.P,J4,S*%
%TO.N,KB_IN*%
X168650000Y-68522500D03*
D27*
%TO.P,J4,T*%
X164750000Y-63922500D03*
D19*
%TO.P,J4,TN*%
%TO.N,N/C*%
X157450000Y-64422500D03*
%TD*%
D10*
%TO.P,R29,1*%
%TO.N,Net-(R28-Pad2)*%
X111760000Y-81280000D03*
D11*
%TO.P,R29,2*%
%TO.N,PAD_F#4*%
X111760000Y-91440000D03*
%TD*%
D10*
%TO.P,R26,1*%
%TO.N,PAD_E4*%
X104140000Y-81280000D03*
D11*
%TO.P,R26,2*%
%TO.N,Net-(R26-Pad2)*%
X104140000Y-91440000D03*
%TD*%
D10*
%TO.P,R34,1*%
%TO.N,PAD_G#4*%
X124460000Y-81280000D03*
D11*
%TO.P,R34,2*%
%TO.N,Net-(R34-Pad2)*%
X124460000Y-91440000D03*
%TD*%
D10*
%TO.P,R1,1*%
%TO.N,VCC*%
X40640000Y-81280000D03*
D11*
%TO.P,R1,2*%
%TO.N,Net-(R1-Pad2)*%
X40640000Y-91440000D03*
%TD*%
D15*
%TO.P,J8,1,Pin_1*%
%TO.N,Net-(J8-Pad1)*%
X109220000Y-30480000D03*
D16*
%TO.P,J8,2,Pin_2*%
%TO.N,PRE_AMP*%
X111760000Y-30480000D03*
%TD*%
D14*
%TO.P,C8,1*%
%TO.N,Net-(C8-Pad1)*%
X144780000Y-33020000D03*
D10*
%TO.P,C8,2*%
%TO.N,Net-(C8-Pad2)*%
X146780000Y-33020000D03*
%TD*%
%TO.P,R14,1*%
%TO.N,Net-(R13-Pad2)*%
X76200000Y-81280000D03*
D11*
%TO.P,R14,2*%
%TO.N,PAD_B3*%
X76200000Y-91440000D03*
%TD*%
D10*
%TO.P,R24,1*%
%TO.N,PAD_D#4*%
X99060000Y-81280000D03*
D11*
%TO.P,R24,2*%
%TO.N,Net-(R24-Pad2)*%
X99060000Y-91440000D03*
%TD*%
D10*
%TO.P,R49,1*%
%TO.N,Net-(J9-Pad2)*%
X139700000Y-68580000D03*
D11*
%TO.P,R49,2*%
%TO.N,Net-(R49-Pad2)*%
X139700000Y-58420000D03*
%TD*%
D10*
%TO.P,R28,1*%
%TO.N,PAD_F4*%
X109220000Y-81280000D03*
D11*
%TO.P,R28,2*%
%TO.N,Net-(R28-Pad2)*%
X109220000Y-91440000D03*
%TD*%
D10*
%TO.P,R32,1*%
%TO.N,PAD_G4*%
X119380000Y-81280000D03*
D11*
%TO.P,R32,2*%
%TO.N,Net-(R32-Pad2)*%
X119380000Y-91440000D03*
%TD*%
D10*
%TO.P,R39,1*%
%TO.N,Net-(R38-Pad2)*%
X137160000Y-81280000D03*
D11*
%TO.P,R39,2*%
%TO.N,PAD_B4*%
X137160000Y-91440000D03*
%TD*%
D15*
%TO.P,J1,1,Pin_1*%
%TO.N,KB_IN*%
X152400000Y-76200000D03*
D16*
%TO.P,J1,2,Pin_2*%
%TO.N,Net-(C2-Pad1)*%
X149860000Y-76200000D03*
%TD*%
D18*
%TO.P,RV4,1,1*%
%TO.N,Net-(RV4-Pad1)*%
X43260000Y-73770000D03*
%TO.P,RV4,2,2*%
%TO.N,Net-(RV4-Pad2)*%
X53260000Y-71270000D03*
%TO.P,RV4,3,3*%
%TO.N,GND*%
X43260000Y-68770000D03*
%TD*%
D15*
%TO.P,J5,1,Pin_1*%
%TO.N,Net-(C8-Pad2)*%
X147320000Y-25400000D03*
D16*
%TO.P,J5,2,Pin_2*%
%TO.N,AUDIO_OUT*%
X144780000Y-25400000D03*
%TD*%
D10*
%TO.P,C2,1*%
%TO.N,Net-(C2-Pad1)*%
X130820000Y-71120000D03*
%TO.P,C2,2*%
%TO.N,GND*%
X133320000Y-71120000D03*
%TD*%
%TO.P,R35,1*%
%TO.N,Net-(R34-Pad2)*%
X127000000Y-81280000D03*
D11*
%TO.P,R35,2*%
%TO.N,PAD_A4*%
X127000000Y-91440000D03*
%TD*%
D10*
%TO.P,R31,1*%
%TO.N,Net-(R30-Pad2)*%
X116840000Y-81280000D03*
D11*
%TO.P,R31,2*%
%TO.N,PAD_G4*%
X116840000Y-91440000D03*
%TD*%
D10*
%TO.P,R23,1*%
%TO.N,Net-(J2-Pad1)*%
X119390000Y-74930000D03*
D11*
%TO.P,R23,2*%
%TO.N,Net-(C3-Pad1)*%
X129550000Y-74930000D03*
%TD*%
D10*
%TO.P,R37,1*%
%TO.N,Net-(R36-Pad2)*%
X132080000Y-81280000D03*
D11*
%TO.P,R37,2*%
%TO.N,PAD_A#4*%
X132080000Y-91440000D03*
%TD*%
D10*
%TO.P,R4,1*%
%TO.N,Net-(R3-Pad2)*%
X51000000Y-81280000D03*
D11*
%TO.P,R4,2*%
%TO.N,PAD_F#3*%
X51000000Y-91440000D03*
%TD*%
D10*
%TO.P,R44,1*%
%TO.N,Net-(C7-Pad1)*%
X96520000Y-73660000D03*
D11*
%TO.P,R44,2*%
%TO.N,GND*%
X106680000Y-73660000D03*
%TD*%
D14*
%TO.P,U1,1,GND*%
%TO.N,GND*%
X120660000Y-63500000D03*
D11*
%TO.P,U1,2,TR*%
%TO.N,Net-(C3-Pad1)*%
X120660000Y-66040000D03*
%TO.P,U1,3,Q*%
%TO.N,Net-(J2-Pad1)*%
X120660000Y-68580000D03*
%TO.P,U1,4,R*%
%TO.N,VCC*%
X120660000Y-71120000D03*
%TO.P,U1,5,CV*%
%TO.N,Net-(C2-Pad1)*%
X128280000Y-71120000D03*
%TO.P,U1,6,THR*%
%TO.N,Net-(C3-Pad1)*%
X128280000Y-68580000D03*
%TO.P,U1,7,DIS*%
%TO.N,unconnected-(U1-Pad7)*%
X128280000Y-66040000D03*
%TO.P,U1,8,VCC*%
%TO.N,VCC*%
X128280000Y-63500000D03*
%TD*%
D10*
%TO.P,R45,1*%
%TO.N,Net-(C10-Pad2)*%
X76200000Y-33020000D03*
D11*
%TO.P,R45,2*%
%TO.N,Net-(A1-Pad26)*%
X66040000Y-33020000D03*
%TD*%
D14*
%TO.P,C11,1*%
%TO.N,VCC*%
X81280000Y-59690000D03*
D10*
%TO.P,C11,2*%
%TO.N,GND*%
X81280000Y-61690000D03*
%TD*%
D28*
%TO.P,U2,1,LED1*%
%TO.N,Net-(BAR1-Pad11)*%
X86360000Y-68580000D03*
D29*
%TO.P,U2,2,V-*%
%TO.N,GND*%
X88900000Y-68580000D03*
%TO.P,U2,3,V+*%
%TO.N,VCC*%
X91440000Y-68580000D03*
%TO.P,U2,4,RLO*%
%TO.N,GND*%
X93980000Y-68580000D03*
%TO.P,U2,5,SIG*%
%TO.N,Net-(C7-Pad1)*%
X96520000Y-68580000D03*
%TO.P,U2,6,RHI*%
%TO.N,Net-(RV4-Pad1)*%
X99060000Y-68580000D03*
%TO.P,U2,8,REFOUT*%
X101600000Y-68580000D03*
%TO.P,U2,10,REFADJ*%
%TO.N,Net-(RV4-Pad2)*%
X104140000Y-68580000D03*
%TO.P,U2,11,MODE*%
%TO.N,VCC*%
X106680000Y-68580000D03*
%TO.P,U2,12,LED10*%
%TO.N,Net-(BAR1-Pad20)*%
X106680000Y-53340000D03*
%TO.P,U2,13,LED9*%
%TO.N,Net-(BAR1-Pad19)*%
X104140000Y-53340000D03*
%TO.P,U2,14,LED8*%
%TO.N,Net-(BAR1-Pad18)*%
X101600000Y-53340000D03*
%TO.P,U2,15,LED7*%
%TO.N,Net-(BAR1-Pad17)*%
X99060000Y-53340000D03*
%TO.P,U2,16,LED6*%
%TO.N,Net-(BAR1-Pad16)*%
X96520000Y-53340000D03*
%TO.P,U2,17,LED5*%
%TO.N,Net-(BAR1-Pad15)*%
X93980000Y-53340000D03*
%TO.P,U2,18,LED4*%
%TO.N,Net-(BAR1-Pad14)*%
X91440000Y-53340000D03*
%TO.P,U2,19,LED3*%
%TO.N,Net-(BAR1-Pad13)*%
X88900000Y-53340000D03*
%TO.P,U2,20,LED2*%
%TO.N,Net-(BAR1-Pad12)*%
X86360000Y-53340000D03*
%TD*%
D10*
%TO.P,R19,1*%
%TO.N,PAD_C#4*%
X88900000Y-81280000D03*
D11*
%TO.P,R19,2*%
%TO.N,Net-(R19-Pad2)*%
X88900000Y-91440000D03*
%TD*%
D10*
%TO.P,R40,1*%
%TO.N,PAD_B4*%
X139700000Y-81280000D03*
D11*
%TO.P,R40,2*%
%TO.N,Net-(R40-Pad2)*%
X139700000Y-91440000D03*
%TD*%
D15*
%TO.P,J9,1,Pin_1*%
%TO.N,A_SYNTH*%
X139700000Y-73660000D03*
D16*
%TO.P,J9,2,Pin_2*%
%TO.N,Net-(J9-Pad2)*%
X139700000Y-71120000D03*
%TD*%
D10*
%TO.P,R30,1*%
%TO.N,PAD_F#4*%
X114300000Y-81280000D03*
D11*
%TO.P,R30,2*%
%TO.N,Net-(R30-Pad2)*%
X114300000Y-91440000D03*
%TD*%
D14*
%TO.P,A1,1,NC*%
%TO.N,unconnected-(A1-Pad1)*%
X58420000Y-73660000D03*
D11*
%TO.P,A1,2,IOREF*%
%TO.N,unconnected-(A1-Pad2)*%
X60960000Y-73660000D03*
%TO.P,A1,3,~{RESET}*%
%TO.N,unconnected-(A1-Pad3)*%
X63500000Y-73660000D03*
%TO.P,A1,4,3V3*%
%TO.N,unconnected-(A1-Pad4)*%
X66040000Y-73660000D03*
%TO.P,A1,5,+5V*%
%TO.N,VCC*%
X68580000Y-73660000D03*
%TO.P,A1,6,GND*%
%TO.N,GND*%
X71120000Y-73660000D03*
%TO.P,A1,7,GND*%
X73660000Y-73660000D03*
%TO.P,A1,8,VIN*%
%TO.N,unconnected-(A1-Pad8)*%
X76200000Y-73660000D03*
%TO.P,A1,9,A0*%
%TO.N,POT_ATK*%
X81280000Y-73660000D03*
%TO.P,A1,10,A1*%
%TO.N,POT_REL*%
X83820000Y-73660000D03*
%TO.P,A1,11,A2*%
%TO.N,POT_WAV*%
X86360000Y-73660000D03*
%TO.P,A1,12,A3*%
%TO.N,Net-(A1-Pad12)*%
X88900000Y-73660000D03*
%TO.P,A1,13,SDA/A4*%
%TO.N,unconnected-(A1-Pad13)*%
X91440000Y-73660000D03*
%TO.P,A1,14,SCL/A5*%
%TO.N,unconnected-(A1-Pad14)*%
X93980000Y-73660000D03*
%TO.P,A1,15,D0/RX*%
%TO.N,unconnected-(A1-Pad15)*%
X93980000Y-25400000D03*
%TO.P,A1,16,D1/TX*%
%TO.N,unconnected-(A1-Pad16)*%
X91440000Y-25400000D03*
%TO.P,A1,17,D2*%
%TO.N,unconnected-(A1-Pad17)*%
X88900000Y-25400000D03*
%TO.P,A1,18,D3*%
%TO.N,unconnected-(A1-Pad18)*%
X86360000Y-25400000D03*
%TO.P,A1,19,D4*%
%TO.N,unconnected-(A1-Pad19)*%
X83820000Y-25400000D03*
%TO.P,A1,20,D5*%
%TO.N,unconnected-(A1-Pad20)*%
X81280000Y-25400000D03*
%TO.P,A1,21,D6*%
%TO.N,unconnected-(A1-Pad21)*%
X78740000Y-25400000D03*
%TO.P,A1,22,D7*%
%TO.N,unconnected-(A1-Pad22)*%
X76200000Y-25400000D03*
%TO.P,A1,23,D8*%
%TO.N,unconnected-(A1-Pad23)*%
X72140000Y-25400000D03*
%TO.P,A1,24,D9*%
%TO.N,unconnected-(A1-Pad24)*%
X69600000Y-25400000D03*
%TO.P,A1,25,D10*%
%TO.N,unconnected-(A1-Pad25)*%
X67060000Y-25400000D03*
%TO.P,A1,26,D11*%
%TO.N,Net-(A1-Pad26)*%
X64520000Y-25400000D03*
%TO.P,A1,27,D12*%
%TO.N,unconnected-(A1-Pad27)*%
X61980000Y-25400000D03*
%TO.P,A1,28,D13*%
%TO.N,unconnected-(A1-Pad28)*%
X59440000Y-25400000D03*
%TO.P,A1,29,GND*%
%TO.N,GND*%
X56900000Y-25400000D03*
%TO.P,A1,30,AREF*%
%TO.N,unconnected-(A1-Pad30)*%
X54360000Y-25400000D03*
%TO.P,A1,31,SDA/A4*%
%TO.N,unconnected-(A1-Pad31)*%
X51820000Y-25400000D03*
%TO.P,A1,32,SCL/A5*%
%TO.N,unconnected-(A1-Pad32)*%
X49280000Y-25400000D03*
%TD*%
D30*
%TO.N,VCC*%
X101600000Y-35560000D03*
%TO.N,GND*%
X133326583Y-74903348D03*
X133718968Y-77184993D03*
%TO.N,AUDIO_OUT*%
X108972557Y-67610204D03*
X108972557Y-65674439D03*
%TO.N,Net-(C8-Pad1)*%
X130107445Y-33020000D03*
X127000000Y-33020000D03*
%TO.N,Net-(RV4-Pad2)*%
X104140000Y-65866870D03*
X82363206Y-68558512D03*
X96520000Y-63500000D03*
X66040000Y-71120000D03*
X71120000Y-71120000D03*
X85200932Y-65695673D03*
%TD*%
D31*
%TO.N,VCC*%
X91440000Y-66080000D02*
X91400000Y-66040000D01*
X112090300Y-68580000D02*
X120681838Y-59988462D01*
X120660000Y-71120000D02*
X118120000Y-71120000D01*
X55880000Y-53340000D02*
X55800000Y-53420000D01*
X91440000Y-68580000D02*
X91440000Y-71120000D01*
X35560000Y-53340000D02*
X55880000Y-53340000D01*
X106680000Y-42017500D02*
X109367500Y-42017500D01*
X40640000Y-76200000D02*
X40640000Y-81280000D01*
X83820000Y-42017500D02*
X81280000Y-44557500D01*
X68580000Y-76200000D02*
X40640000Y-76200000D01*
X120681838Y-59988462D02*
X120681838Y-53786413D01*
X101600000Y-30480000D02*
X101600000Y-35560000D01*
X118120000Y-71120000D02*
X118080000Y-71080000D01*
X81280000Y-44557500D02*
X81280000Y-45720000D01*
X106680000Y-42017500D02*
X83820000Y-42017500D01*
X76200000Y-53340000D02*
X76200000Y-55880000D01*
X78740000Y-53340000D02*
X76200000Y-53340000D01*
X110490000Y-43594575D02*
X110490000Y-43140000D01*
X106680000Y-68580000D02*
X110574126Y-68580000D01*
X55880000Y-53340000D02*
X68580000Y-53340000D01*
X120681838Y-53786413D02*
X110490000Y-43594575D01*
X91440000Y-71120000D02*
X86360000Y-71120000D01*
X114300000Y-45720000D02*
X119380000Y-45720000D01*
X68580000Y-73660000D02*
X68580000Y-53340000D01*
X109367500Y-42017500D02*
X110490000Y-43140000D01*
X116697173Y-72462827D02*
X118080000Y-71080000D01*
X118255489Y-26815489D02*
X105264511Y-26815489D01*
X76200000Y-60960000D02*
X76200000Y-55880000D01*
X105264511Y-26815489D02*
X101600000Y-30480000D01*
X114456953Y-72462827D02*
X116697173Y-72462827D01*
X86360000Y-71120000D02*
X76200000Y-60960000D01*
X68580000Y-73660000D02*
X68580000Y-76200000D01*
X91440000Y-68580000D02*
X91440000Y-66080000D01*
X35560000Y-55880000D02*
X35560000Y-53340000D01*
X68580000Y-53340000D02*
X76200000Y-53340000D01*
X121920000Y-30480000D02*
X118255489Y-26815489D01*
X81280000Y-50800000D02*
X78740000Y-53340000D01*
X110490000Y-43140000D02*
X111720000Y-43140000D01*
X110574126Y-68580000D02*
X114456953Y-72462827D01*
X55800000Y-53420000D02*
X55800000Y-55880000D01*
X110574126Y-68580000D02*
X112090300Y-68580000D01*
X111720000Y-43140000D02*
X114300000Y-45720000D01*
X81280000Y-45720000D02*
X81280000Y-50800000D01*
X124500000Y-30480000D02*
X121920000Y-30480000D01*
%TO.N,GND*%
X133326583Y-74903348D02*
X133320000Y-74896765D01*
X133320000Y-74896765D02*
X133320000Y-71120000D01*
X148304993Y-77184993D02*
X133718968Y-77184993D01*
X162560000Y-91440000D02*
X148304993Y-77184993D01*
%TO.N,Net-(A1-Pad12)*%
X95066511Y-69043483D02*
X92245263Y-71864731D01*
X92245263Y-71864731D02*
X90695269Y-71864731D01*
X95066511Y-68496929D02*
X95066511Y-69043483D01*
X119390000Y-59690000D02*
X103873440Y-59690000D01*
X103873440Y-59690000D02*
X95066511Y-68496929D01*
X90695269Y-71864731D02*
X88900000Y-73660000D01*
%TO.N,D_SYNTH*%
X122838213Y-36576479D02*
X89916479Y-36576479D01*
X139107423Y-72294511D02*
X127831730Y-61018818D01*
X140874511Y-72294511D02*
X139107423Y-72294511D01*
X89916479Y-36576479D02*
X86360000Y-33020000D01*
X127831730Y-61018818D02*
X127831730Y-41569996D01*
X127831730Y-41569996D02*
X122838213Y-36576479D01*
X142240000Y-73660000D02*
X140874511Y-72294511D01*
%TO.N,Net-(C2-Pad1)*%
X130820000Y-71120000D02*
X128280000Y-71120000D01*
%TO.N,Net-(BAR1-Pad11)*%
X83820000Y-66040000D02*
X83820000Y-49637500D01*
X86360000Y-68580000D02*
X83820000Y-66040000D01*
%TO.N,Net-(BAR1-Pad12)*%
X86360000Y-53340000D02*
X86360000Y-49637500D01*
%TO.N,Net-(BAR1-Pad13)*%
X88900000Y-53340000D02*
X88900000Y-49637500D01*
%TO.N,Net-(BAR1-Pad14)*%
X91440000Y-53340000D02*
X91440000Y-49637500D01*
%TO.N,Net-(BAR1-Pad15)*%
X93980000Y-53340000D02*
X93980000Y-49637500D01*
%TO.N,Net-(BAR1-Pad16)*%
X96520000Y-53340000D02*
X96520000Y-49637500D01*
%TO.N,Net-(BAR1-Pad17)*%
X99060000Y-53340000D02*
X99060000Y-49637500D01*
%TO.N,Net-(BAR1-Pad18)*%
X101600000Y-53340000D02*
X101600000Y-49637500D01*
%TO.N,Net-(BAR1-Pad19)*%
X104140000Y-53340000D02*
X104140000Y-49637500D01*
%TO.N,Net-(BAR1-Pad20)*%
X106680000Y-53340000D02*
X106680000Y-49637500D01*
%TO.N,Net-(C3-Pad1)*%
X129550000Y-74930000D02*
X126861245Y-72241245D01*
X126861245Y-69984996D02*
X126875004Y-69984996D01*
X130820000Y-68580000D02*
X128280000Y-68580000D01*
X126875004Y-69984996D02*
X128280000Y-68580000D01*
X125740000Y-66040000D02*
X128280000Y-68580000D01*
X126861245Y-72241245D02*
X126861245Y-69984996D01*
X120660000Y-66040000D02*
X125740000Y-66040000D01*
%TO.N,A_SYNTH*%
X115580000Y-68580000D02*
X116754511Y-67405489D01*
X137288067Y-76071933D02*
X139700000Y-73660000D01*
X121075789Y-67405489D02*
X128415238Y-74744938D01*
X128415238Y-75385538D02*
X129101633Y-76071933D01*
X116754511Y-67405489D02*
X121075789Y-67405489D01*
X128415238Y-74744938D02*
X128415238Y-75385538D01*
X129101633Y-76071933D02*
X137288067Y-76071933D01*
%TO.N,KB_IN*%
X152400000Y-66449261D02*
X152400000Y-76200000D01*
X129550000Y-59690000D02*
X145640739Y-59690000D01*
X145640739Y-59690000D02*
X152400000Y-66449261D01*
%TO.N,AUDIO_OUT*%
X108972557Y-65674439D02*
X108972557Y-67610204D01*
%TO.N,Net-(A1-Pad26)*%
X64520000Y-31500000D02*
X66040000Y-33020000D01*
X64520000Y-25400000D02*
X64520000Y-31500000D01*
%TO.N,Net-(RV5-Pad2)*%
X115446384Y-24253616D02*
X114300000Y-25400000D01*
X129382945Y-34478143D02*
X129382945Y-28032472D01*
X140436219Y-36296219D02*
X131201021Y-36296219D01*
X125604089Y-24253616D02*
X115446384Y-24253616D01*
X160020000Y-55880000D02*
X140436219Y-36296219D01*
X131201021Y-36296219D02*
X129382945Y-34478143D01*
X129382945Y-28032472D02*
X125604089Y-24253616D01*
%TO.N,Net-(C8-Pad1)*%
X131732227Y-27980000D02*
X137160000Y-27980000D01*
X130107445Y-29604782D02*
X131732227Y-27980000D01*
X121920000Y-33020000D02*
X127000000Y-33020000D01*
X139740000Y-27980000D02*
X144780000Y-33020000D01*
X137160000Y-27980000D02*
X139740000Y-27980000D01*
X130107445Y-33020000D02*
X130107445Y-29604782D01*
%TO.N,Net-(C10-Pad2)*%
X76200000Y-30480000D02*
X76200000Y-33020000D01*
X83860000Y-33020000D02*
X76200000Y-33020000D01*
%TO.N,PRE_AMP*%
X111760000Y-30480000D02*
X114300000Y-30480000D01*
%TO.N,Net-(J2-Pad1)*%
X122081133Y-72238867D02*
X122081133Y-70001133D01*
X118120000Y-68580000D02*
X120660000Y-68580000D01*
X122081133Y-70001133D02*
X120660000Y-68580000D01*
X119390000Y-74930000D02*
X122081133Y-72238867D01*
%TO.N,Net-(J3-Pad1)*%
X119380000Y-43720000D02*
X115160300Y-43720000D01*
X115160300Y-43720000D02*
X110561488Y-39121188D01*
X110561488Y-39121188D02*
X43783688Y-39121188D01*
X43783688Y-39121188D02*
X36850000Y-32187500D01*
%TO.N,Net-(J7-Pad2)*%
X142240000Y-71120000D02*
X142240000Y-68580000D01*
%TO.N,Net-(J8-Pad1)*%
X137160000Y-68580000D02*
X136028630Y-68580000D01*
X143655489Y-67455489D02*
X144780000Y-68580000D01*
X137160000Y-68580000D02*
X138284511Y-67455489D01*
X128322120Y-60873490D02*
X128322120Y-41421103D01*
X138284511Y-67455489D02*
X143655489Y-67455489D01*
X128322120Y-41421103D02*
X123027976Y-36126959D01*
X123027976Y-36126959D02*
X112092533Y-36126959D01*
X136028630Y-68580000D02*
X128322120Y-60873490D01*
X109220000Y-33254426D02*
X109220000Y-30480000D01*
X112092533Y-36126959D02*
X109220000Y-33254426D01*
%TO.N,Net-(J9-Pad2)*%
X139700000Y-71120000D02*
X139700000Y-68580000D01*
%TO.N,Net-(R47-Pad2)*%
X144780000Y-58420000D02*
X144780000Y-55960000D01*
X144780000Y-55960000D02*
X144700000Y-55880000D01*
X142240000Y-58420000D02*
X144780000Y-58420000D01*
%TO.N,Net-(R49-Pad2)*%
X137160000Y-58420000D02*
X139700000Y-58420000D01*
X137160000Y-58340000D02*
X137160000Y-58420000D01*
X134700000Y-55880000D02*
X137160000Y-58340000D01*
%TO.N,Net-(RV4-Pad2)*%
X53260000Y-71270000D02*
X65890000Y-71270000D01*
X104140000Y-65866870D02*
X104140000Y-68580000D01*
X79801718Y-71120000D02*
X82363206Y-68558512D01*
X71120000Y-71120000D02*
X79801718Y-71120000D01*
X65890000Y-71270000D02*
X66040000Y-71120000D01*
X87396605Y-63500000D02*
X96520000Y-63500000D01*
X85200932Y-65695673D02*
X87396605Y-63500000D01*
%TO.N,Net-(RV5-Pad3)*%
X126114756Y-25400000D02*
X121920000Y-25400000D01*
X130997302Y-36745739D02*
X128933425Y-34681862D01*
X128933425Y-34681862D02*
X128933425Y-28218669D01*
X155020000Y-55880000D02*
X135885739Y-36745739D01*
X135885739Y-36745739D02*
X130997302Y-36745739D01*
X128933425Y-28218669D02*
X126114756Y-25400000D01*
%TD*%
M02*
