%TF.GenerationSoftware,KiCad,Pcbnew,(6.0.2)*%
%TF.CreationDate,2022-03-12T15:20:27+01:00*%
%TF.ProjectId,hardware,68617264-7761-4726-952e-6b696361645f,rev?*%
%TF.SameCoordinates,Original*%
%TF.FileFunction,Legend,Top*%
%TF.FilePolarity,Positive*%
%FSLAX46Y46*%
G04 Gerber Fmt 4.6, Leading zero omitted, Abs format (unit mm)*
G04 Created by KiCad (PCBNEW (6.0.2)) date 2022-03-12 15:20:27*
%MOMM*%
%LPD*%
G01*
G04 APERTURE LIST*
%ADD10C,0.150000*%
%ADD11C,0.120000*%
%ADD12C,0.100000*%
G04 APERTURE END LIST*
D10*
%TO.C,R48*%
X147772380Y-64142857D02*
X147296190Y-64476190D01*
X147772380Y-64714285D02*
X146772380Y-64714285D01*
X146772380Y-64333333D01*
X146820000Y-64238095D01*
X146867619Y-64190476D01*
X146962857Y-64142857D01*
X147105714Y-64142857D01*
X147200952Y-64190476D01*
X147248571Y-64238095D01*
X147296190Y-64333333D01*
X147296190Y-64714285D01*
X147105714Y-63285714D02*
X147772380Y-63285714D01*
X146724761Y-63523809D02*
X147439047Y-63761904D01*
X147439047Y-63142857D01*
X147200952Y-62619047D02*
X147153333Y-62714285D01*
X147105714Y-62761904D01*
X147010476Y-62809523D01*
X146962857Y-62809523D01*
X146867619Y-62761904D01*
X146820000Y-62714285D01*
X146772380Y-62619047D01*
X146772380Y-62428571D01*
X146820000Y-62333333D01*
X146867619Y-62285714D01*
X146962857Y-62238095D01*
X147010476Y-62238095D01*
X147105714Y-62285714D01*
X147153333Y-62333333D01*
X147200952Y-62428571D01*
X147200952Y-62619047D01*
X147248571Y-62714285D01*
X147296190Y-62761904D01*
X147391428Y-62809523D01*
X147581904Y-62809523D01*
X147677142Y-62761904D01*
X147724761Y-62714285D01*
X147772380Y-62619047D01*
X147772380Y-62428571D01*
X147724761Y-62333333D01*
X147677142Y-62285714D01*
X147581904Y-62238095D01*
X147391428Y-62238095D01*
X147296190Y-62285714D01*
X147248571Y-62333333D01*
X147200952Y-62428571D01*
%TO.C,R27*%
X107132380Y-79382857D02*
X106656190Y-79716190D01*
X107132380Y-79954285D02*
X106132380Y-79954285D01*
X106132380Y-79573333D01*
X106180000Y-79478095D01*
X106227619Y-79430476D01*
X106322857Y-79382857D01*
X106465714Y-79382857D01*
X106560952Y-79430476D01*
X106608571Y-79478095D01*
X106656190Y-79573333D01*
X106656190Y-79954285D01*
X106227619Y-79001904D02*
X106180000Y-78954285D01*
X106132380Y-78859047D01*
X106132380Y-78620952D01*
X106180000Y-78525714D01*
X106227619Y-78478095D01*
X106322857Y-78430476D01*
X106418095Y-78430476D01*
X106560952Y-78478095D01*
X107132380Y-79049523D01*
X107132380Y-78430476D01*
X106132380Y-78097142D02*
X106132380Y-77430476D01*
X107132380Y-77859047D01*
%TO.C,R12*%
X71572380Y-79382857D02*
X71096190Y-79716190D01*
X71572380Y-79954285D02*
X70572380Y-79954285D01*
X70572380Y-79573333D01*
X70620000Y-79478095D01*
X70667619Y-79430476D01*
X70762857Y-79382857D01*
X70905714Y-79382857D01*
X71000952Y-79430476D01*
X71048571Y-79478095D01*
X71096190Y-79573333D01*
X71096190Y-79954285D01*
X71572380Y-78430476D02*
X71572380Y-79001904D01*
X71572380Y-78716190D02*
X70572380Y-78716190D01*
X70715238Y-78811428D01*
X70810476Y-78906666D01*
X70858095Y-79001904D01*
X70667619Y-78049523D02*
X70620000Y-78001904D01*
X70572380Y-77906666D01*
X70572380Y-77668571D01*
X70620000Y-77573333D01*
X70667619Y-77525714D01*
X70762857Y-77478095D01*
X70858095Y-77478095D01*
X71000952Y-77525714D01*
X71572380Y-78097142D01*
X71572380Y-77478095D01*
%TO.C,R42*%
X160472380Y-79382857D02*
X159996190Y-79716190D01*
X160472380Y-79954285D02*
X159472380Y-79954285D01*
X159472380Y-79573333D01*
X159520000Y-79478095D01*
X159567619Y-79430476D01*
X159662857Y-79382857D01*
X159805714Y-79382857D01*
X159900952Y-79430476D01*
X159948571Y-79478095D01*
X159996190Y-79573333D01*
X159996190Y-79954285D01*
X159805714Y-78525714D02*
X160472380Y-78525714D01*
X159424761Y-78763809D02*
X160139047Y-79001904D01*
X160139047Y-78382857D01*
X159567619Y-78049523D02*
X159520000Y-78001904D01*
X159472380Y-77906666D01*
X159472380Y-77668571D01*
X159520000Y-77573333D01*
X159567619Y-77525714D01*
X159662857Y-77478095D01*
X159758095Y-77478095D01*
X159900952Y-77525714D01*
X160472380Y-78097142D01*
X160472380Y-77478095D01*
%TO.C,R47*%
X142967142Y-60082380D02*
X142633809Y-59606190D01*
X142395714Y-60082380D02*
X142395714Y-59082380D01*
X142776666Y-59082380D01*
X142871904Y-59130000D01*
X142919523Y-59177619D01*
X142967142Y-59272857D01*
X142967142Y-59415714D01*
X142919523Y-59510952D01*
X142871904Y-59558571D01*
X142776666Y-59606190D01*
X142395714Y-59606190D01*
X143824285Y-59415714D02*
X143824285Y-60082380D01*
X143586190Y-59034761D02*
X143348095Y-59749047D01*
X143967142Y-59749047D01*
X144252857Y-59082380D02*
X144919523Y-59082380D01*
X144490952Y-60082380D01*
%TO.C,R50*%
X135072380Y-64142857D02*
X134596190Y-64476190D01*
X135072380Y-64714285D02*
X134072380Y-64714285D01*
X134072380Y-64333333D01*
X134120000Y-64238095D01*
X134167619Y-64190476D01*
X134262857Y-64142857D01*
X134405714Y-64142857D01*
X134500952Y-64190476D01*
X134548571Y-64238095D01*
X134596190Y-64333333D01*
X134596190Y-64714285D01*
X134072380Y-63238095D02*
X134072380Y-63714285D01*
X134548571Y-63761904D01*
X134500952Y-63714285D01*
X134453333Y-63619047D01*
X134453333Y-63380952D01*
X134500952Y-63285714D01*
X134548571Y-63238095D01*
X134643809Y-63190476D01*
X134881904Y-63190476D01*
X134977142Y-63238095D01*
X135024761Y-63285714D01*
X135072380Y-63380952D01*
X135072380Y-63619047D01*
X135024761Y-63714285D01*
X134977142Y-63761904D01*
X134072380Y-62571428D02*
X134072380Y-62476190D01*
X134120000Y-62380952D01*
X134167619Y-62333333D01*
X134262857Y-62285714D01*
X134453333Y-62238095D01*
X134691428Y-62238095D01*
X134881904Y-62285714D01*
X134977142Y-62333333D01*
X135024761Y-62380952D01*
X135072380Y-62476190D01*
X135072380Y-62571428D01*
X135024761Y-62666666D01*
X134977142Y-62714285D01*
X134881904Y-62761904D01*
X134691428Y-62809523D01*
X134453333Y-62809523D01*
X134262857Y-62761904D01*
X134167619Y-62714285D01*
X134120000Y-62666666D01*
X134072380Y-62571428D01*
%TO.C,R33*%
X122372380Y-79382857D02*
X121896190Y-79716190D01*
X122372380Y-79954285D02*
X121372380Y-79954285D01*
X121372380Y-79573333D01*
X121420000Y-79478095D01*
X121467619Y-79430476D01*
X121562857Y-79382857D01*
X121705714Y-79382857D01*
X121800952Y-79430476D01*
X121848571Y-79478095D01*
X121896190Y-79573333D01*
X121896190Y-79954285D01*
X121372380Y-79049523D02*
X121372380Y-78430476D01*
X121753333Y-78763809D01*
X121753333Y-78620952D01*
X121800952Y-78525714D01*
X121848571Y-78478095D01*
X121943809Y-78430476D01*
X122181904Y-78430476D01*
X122277142Y-78478095D01*
X122324761Y-78525714D01*
X122372380Y-78620952D01*
X122372380Y-78906666D01*
X122324761Y-79001904D01*
X122277142Y-79049523D01*
X121372380Y-78097142D02*
X121372380Y-77478095D01*
X121753333Y-77811428D01*
X121753333Y-77668571D01*
X121800952Y-77573333D01*
X121848571Y-77525714D01*
X121943809Y-77478095D01*
X122181904Y-77478095D01*
X122277142Y-77525714D01*
X122324761Y-77573333D01*
X122372380Y-77668571D01*
X122372380Y-77954285D01*
X122324761Y-78049523D01*
X122277142Y-78097142D01*
%TO.C,R36*%
X129992380Y-79382857D02*
X129516190Y-79716190D01*
X129992380Y-79954285D02*
X128992380Y-79954285D01*
X128992380Y-79573333D01*
X129040000Y-79478095D01*
X129087619Y-79430476D01*
X129182857Y-79382857D01*
X129325714Y-79382857D01*
X129420952Y-79430476D01*
X129468571Y-79478095D01*
X129516190Y-79573333D01*
X129516190Y-79954285D01*
X128992380Y-79049523D02*
X128992380Y-78430476D01*
X129373333Y-78763809D01*
X129373333Y-78620952D01*
X129420952Y-78525714D01*
X129468571Y-78478095D01*
X129563809Y-78430476D01*
X129801904Y-78430476D01*
X129897142Y-78478095D01*
X129944761Y-78525714D01*
X129992380Y-78620952D01*
X129992380Y-78906666D01*
X129944761Y-79001904D01*
X129897142Y-79049523D01*
X128992380Y-77573333D02*
X128992380Y-77763809D01*
X129040000Y-77859047D01*
X129087619Y-77906666D01*
X129230476Y-78001904D01*
X129420952Y-78049523D01*
X129801904Y-78049523D01*
X129897142Y-78001904D01*
X129944761Y-77954285D01*
X129992380Y-77859047D01*
X129992380Y-77668571D01*
X129944761Y-77573333D01*
X129897142Y-77525714D01*
X129801904Y-77478095D01*
X129563809Y-77478095D01*
X129468571Y-77525714D01*
X129420952Y-77573333D01*
X129373333Y-77668571D01*
X129373333Y-77859047D01*
X129420952Y-77954285D01*
X129468571Y-78001904D01*
X129563809Y-78049523D01*
%TO.C,R21*%
X94432380Y-79382857D02*
X93956190Y-79716190D01*
X94432380Y-79954285D02*
X93432380Y-79954285D01*
X93432380Y-79573333D01*
X93480000Y-79478095D01*
X93527619Y-79430476D01*
X93622857Y-79382857D01*
X93765714Y-79382857D01*
X93860952Y-79430476D01*
X93908571Y-79478095D01*
X93956190Y-79573333D01*
X93956190Y-79954285D01*
X93527619Y-79001904D02*
X93480000Y-78954285D01*
X93432380Y-78859047D01*
X93432380Y-78620952D01*
X93480000Y-78525714D01*
X93527619Y-78478095D01*
X93622857Y-78430476D01*
X93718095Y-78430476D01*
X93860952Y-78478095D01*
X94432380Y-79049523D01*
X94432380Y-78430476D01*
X94432380Y-77478095D02*
X94432380Y-78049523D01*
X94432380Y-77763809D02*
X93432380Y-77763809D01*
X93575238Y-77859047D01*
X93670476Y-77954285D01*
X93718095Y-78049523D01*
%TO.C,R5*%
X53792380Y-78906666D02*
X53316190Y-79240000D01*
X53792380Y-79478095D02*
X52792380Y-79478095D01*
X52792380Y-79097142D01*
X52840000Y-79001904D01*
X52887619Y-78954285D01*
X52982857Y-78906666D01*
X53125714Y-78906666D01*
X53220952Y-78954285D01*
X53268571Y-79001904D01*
X53316190Y-79097142D01*
X53316190Y-79478095D01*
X52792380Y-78001904D02*
X52792380Y-78478095D01*
X53268571Y-78525714D01*
X53220952Y-78478095D01*
X53173333Y-78382857D01*
X53173333Y-78144761D01*
X53220952Y-78049523D01*
X53268571Y-78001904D01*
X53363809Y-77954285D01*
X53601904Y-77954285D01*
X53697142Y-78001904D01*
X53744761Y-78049523D01*
X53792380Y-78144761D01*
X53792380Y-78382857D01*
X53744761Y-78478095D01*
X53697142Y-78525714D01*
%TO.C,R13*%
X74112380Y-79382857D02*
X73636190Y-79716190D01*
X74112380Y-79954285D02*
X73112380Y-79954285D01*
X73112380Y-79573333D01*
X73160000Y-79478095D01*
X73207619Y-79430476D01*
X73302857Y-79382857D01*
X73445714Y-79382857D01*
X73540952Y-79430476D01*
X73588571Y-79478095D01*
X73636190Y-79573333D01*
X73636190Y-79954285D01*
X74112380Y-78430476D02*
X74112380Y-79001904D01*
X74112380Y-78716190D02*
X73112380Y-78716190D01*
X73255238Y-78811428D01*
X73350476Y-78906666D01*
X73398095Y-79001904D01*
X73112380Y-78097142D02*
X73112380Y-77478095D01*
X73493333Y-77811428D01*
X73493333Y-77668571D01*
X73540952Y-77573333D01*
X73588571Y-77525714D01*
X73683809Y-77478095D01*
X73921904Y-77478095D01*
X74017142Y-77525714D01*
X74064761Y-77573333D01*
X74112380Y-77668571D01*
X74112380Y-77954285D01*
X74064761Y-78049523D01*
X74017142Y-78097142D01*
%TO.C,R11*%
X69032380Y-79382857D02*
X68556190Y-79716190D01*
X69032380Y-79954285D02*
X68032380Y-79954285D01*
X68032380Y-79573333D01*
X68080000Y-79478095D01*
X68127619Y-79430476D01*
X68222857Y-79382857D01*
X68365714Y-79382857D01*
X68460952Y-79430476D01*
X68508571Y-79478095D01*
X68556190Y-79573333D01*
X68556190Y-79954285D01*
X69032380Y-78430476D02*
X69032380Y-79001904D01*
X69032380Y-78716190D02*
X68032380Y-78716190D01*
X68175238Y-78811428D01*
X68270476Y-78906666D01*
X68318095Y-79001904D01*
X69032380Y-77478095D02*
X69032380Y-78049523D01*
X69032380Y-77763809D02*
X68032380Y-77763809D01*
X68175238Y-77859047D01*
X68270476Y-77954285D01*
X68318095Y-78049523D01*
%TO.C,R22*%
X96972380Y-79382857D02*
X96496190Y-79716190D01*
X96972380Y-79954285D02*
X95972380Y-79954285D01*
X95972380Y-79573333D01*
X96020000Y-79478095D01*
X96067619Y-79430476D01*
X96162857Y-79382857D01*
X96305714Y-79382857D01*
X96400952Y-79430476D01*
X96448571Y-79478095D01*
X96496190Y-79573333D01*
X96496190Y-79954285D01*
X96067619Y-79001904D02*
X96020000Y-78954285D01*
X95972380Y-78859047D01*
X95972380Y-78620952D01*
X96020000Y-78525714D01*
X96067619Y-78478095D01*
X96162857Y-78430476D01*
X96258095Y-78430476D01*
X96400952Y-78478095D01*
X96972380Y-79049523D01*
X96972380Y-78430476D01*
X96067619Y-78049523D02*
X96020000Y-78001904D01*
X95972380Y-77906666D01*
X95972380Y-77668571D01*
X96020000Y-77573333D01*
X96067619Y-77525714D01*
X96162857Y-77478095D01*
X96258095Y-77478095D01*
X96400952Y-77525714D01*
X96972380Y-78097142D01*
X96972380Y-77478095D01*
%TO.C,R38*%
X135072380Y-79382857D02*
X134596190Y-79716190D01*
X135072380Y-79954285D02*
X134072380Y-79954285D01*
X134072380Y-79573333D01*
X134120000Y-79478095D01*
X134167619Y-79430476D01*
X134262857Y-79382857D01*
X134405714Y-79382857D01*
X134500952Y-79430476D01*
X134548571Y-79478095D01*
X134596190Y-79573333D01*
X134596190Y-79954285D01*
X134072380Y-79049523D02*
X134072380Y-78430476D01*
X134453333Y-78763809D01*
X134453333Y-78620952D01*
X134500952Y-78525714D01*
X134548571Y-78478095D01*
X134643809Y-78430476D01*
X134881904Y-78430476D01*
X134977142Y-78478095D01*
X135024761Y-78525714D01*
X135072380Y-78620952D01*
X135072380Y-78906666D01*
X135024761Y-79001904D01*
X134977142Y-79049523D01*
X134500952Y-77859047D02*
X134453333Y-77954285D01*
X134405714Y-78001904D01*
X134310476Y-78049523D01*
X134262857Y-78049523D01*
X134167619Y-78001904D01*
X134120000Y-77954285D01*
X134072380Y-77859047D01*
X134072380Y-77668571D01*
X134120000Y-77573333D01*
X134167619Y-77525714D01*
X134262857Y-77478095D01*
X134310476Y-77478095D01*
X134405714Y-77525714D01*
X134453333Y-77573333D01*
X134500952Y-77668571D01*
X134500952Y-77859047D01*
X134548571Y-77954285D01*
X134596190Y-78001904D01*
X134691428Y-78049523D01*
X134881904Y-78049523D01*
X134977142Y-78001904D01*
X135024761Y-77954285D01*
X135072380Y-77859047D01*
X135072380Y-77668571D01*
X135024761Y-77573333D01*
X134977142Y-77525714D01*
X134881904Y-77478095D01*
X134691428Y-77478095D01*
X134596190Y-77525714D01*
X134548571Y-77573333D01*
X134500952Y-77668571D01*
%TO.C,BAR1*%
X82486666Y-39298571D02*
X82629523Y-39346190D01*
X82677142Y-39393809D01*
X82724761Y-39489047D01*
X82724761Y-39631904D01*
X82677142Y-39727142D01*
X82629523Y-39774761D01*
X82534285Y-39822380D01*
X82153333Y-39822380D01*
X82153333Y-38822380D01*
X82486666Y-38822380D01*
X82581904Y-38870000D01*
X82629523Y-38917619D01*
X82677142Y-39012857D01*
X82677142Y-39108095D01*
X82629523Y-39203333D01*
X82581904Y-39250952D01*
X82486666Y-39298571D01*
X82153333Y-39298571D01*
X83105714Y-39536666D02*
X83581904Y-39536666D01*
X83010476Y-39822380D02*
X83343809Y-38822380D01*
X83677142Y-39822380D01*
X84581904Y-39822380D02*
X84248571Y-39346190D01*
X84010476Y-39822380D02*
X84010476Y-38822380D01*
X84391428Y-38822380D01*
X84486666Y-38870000D01*
X84534285Y-38917619D01*
X84581904Y-39012857D01*
X84581904Y-39155714D01*
X84534285Y-39250952D01*
X84486666Y-39298571D01*
X84391428Y-39346190D01*
X84010476Y-39346190D01*
X85534285Y-39822380D02*
X84962857Y-39822380D01*
X85248571Y-39822380D02*
X85248571Y-38822380D01*
X85153333Y-38965238D01*
X85058095Y-39060476D01*
X84962857Y-39108095D01*
%TO.C,R41*%
X142692380Y-79382857D02*
X142216190Y-79716190D01*
X142692380Y-79954285D02*
X141692380Y-79954285D01*
X141692380Y-79573333D01*
X141740000Y-79478095D01*
X141787619Y-79430476D01*
X141882857Y-79382857D01*
X142025714Y-79382857D01*
X142120952Y-79430476D01*
X142168571Y-79478095D01*
X142216190Y-79573333D01*
X142216190Y-79954285D01*
X142025714Y-78525714D02*
X142692380Y-78525714D01*
X141644761Y-78763809D02*
X142359047Y-79001904D01*
X142359047Y-78382857D01*
X142692380Y-77478095D02*
X142692380Y-78049523D01*
X142692380Y-77763809D02*
X141692380Y-77763809D01*
X141835238Y-77859047D01*
X141930476Y-77954285D01*
X141978095Y-78049523D01*
%TO.C,R46*%
X123817142Y-57602380D02*
X123483809Y-57126190D01*
X123245714Y-57602380D02*
X123245714Y-56602380D01*
X123626666Y-56602380D01*
X123721904Y-56650000D01*
X123769523Y-56697619D01*
X123817142Y-56792857D01*
X123817142Y-56935714D01*
X123769523Y-57030952D01*
X123721904Y-57078571D01*
X123626666Y-57126190D01*
X123245714Y-57126190D01*
X124674285Y-56935714D02*
X124674285Y-57602380D01*
X124436190Y-56554761D02*
X124198095Y-57269047D01*
X124817142Y-57269047D01*
X125626666Y-56602380D02*
X125436190Y-56602380D01*
X125340952Y-56650000D01*
X125293333Y-56697619D01*
X125198095Y-56840476D01*
X125150476Y-57030952D01*
X125150476Y-57411904D01*
X125198095Y-57507142D01*
X125245714Y-57554761D01*
X125340952Y-57602380D01*
X125531428Y-57602380D01*
X125626666Y-57554761D01*
X125674285Y-57507142D01*
X125721904Y-57411904D01*
X125721904Y-57173809D01*
X125674285Y-57078571D01*
X125626666Y-57030952D01*
X125531428Y-56983333D01*
X125340952Y-56983333D01*
X125245714Y-57030952D01*
X125198095Y-57078571D01*
X125150476Y-57173809D01*
%TO.C,C10*%
X88257142Y-28297142D02*
X88209523Y-28344761D01*
X88066666Y-28392380D01*
X87971428Y-28392380D01*
X87828571Y-28344761D01*
X87733333Y-28249523D01*
X87685714Y-28154285D01*
X87638095Y-27963809D01*
X87638095Y-27820952D01*
X87685714Y-27630476D01*
X87733333Y-27535238D01*
X87828571Y-27440000D01*
X87971428Y-27392380D01*
X88066666Y-27392380D01*
X88209523Y-27440000D01*
X88257142Y-27487619D01*
X89209523Y-28392380D02*
X88638095Y-28392380D01*
X88923809Y-28392380D02*
X88923809Y-27392380D01*
X88828571Y-27535238D01*
X88733333Y-27630476D01*
X88638095Y-27678095D01*
X89828571Y-27392380D02*
X89923809Y-27392380D01*
X90019047Y-27440000D01*
X90066666Y-27487619D01*
X90114285Y-27582857D01*
X90161904Y-27773333D01*
X90161904Y-28011428D01*
X90114285Y-28201904D01*
X90066666Y-28297142D01*
X90019047Y-28344761D01*
X89923809Y-28392380D01*
X89828571Y-28392380D01*
X89733333Y-28344761D01*
X89685714Y-28297142D01*
X89638095Y-28201904D01*
X89590476Y-28011428D01*
X89590476Y-27773333D01*
X89638095Y-27582857D01*
X89685714Y-27487619D01*
X89733333Y-27440000D01*
X89828571Y-27392380D01*
%TO.C,J2*%
X116506666Y-65492380D02*
X116506666Y-66206666D01*
X116459047Y-66349523D01*
X116363809Y-66444761D01*
X116220952Y-66492380D01*
X116125714Y-66492380D01*
X116935238Y-65587619D02*
X116982857Y-65540000D01*
X117078095Y-65492380D01*
X117316190Y-65492380D01*
X117411428Y-65540000D01*
X117459047Y-65587619D01*
X117506666Y-65682857D01*
X117506666Y-65778095D01*
X117459047Y-65920952D01*
X116887619Y-66492380D01*
X117506666Y-66492380D01*
%TO.C,J3*%
X27606666Y-22312380D02*
X27606666Y-23026666D01*
X27559047Y-23169523D01*
X27463809Y-23264761D01*
X27320952Y-23312380D01*
X27225714Y-23312380D01*
X27987619Y-22312380D02*
X28606666Y-22312380D01*
X28273333Y-22693333D01*
X28416190Y-22693333D01*
X28511428Y-22740952D01*
X28559047Y-22788571D01*
X28606666Y-22883809D01*
X28606666Y-23121904D01*
X28559047Y-23217142D01*
X28511428Y-23264761D01*
X28416190Y-23312380D01*
X28130476Y-23312380D01*
X28035238Y-23264761D01*
X27987619Y-23217142D01*
%TO.C,R6*%
X56332380Y-78906666D02*
X55856190Y-79240000D01*
X56332380Y-79478095D02*
X55332380Y-79478095D01*
X55332380Y-79097142D01*
X55380000Y-79001904D01*
X55427619Y-78954285D01*
X55522857Y-78906666D01*
X55665714Y-78906666D01*
X55760952Y-78954285D01*
X55808571Y-79001904D01*
X55856190Y-79097142D01*
X55856190Y-79478095D01*
X55332380Y-78049523D02*
X55332380Y-78240000D01*
X55380000Y-78335238D01*
X55427619Y-78382857D01*
X55570476Y-78478095D01*
X55760952Y-78525714D01*
X56141904Y-78525714D01*
X56237142Y-78478095D01*
X56284761Y-78430476D01*
X56332380Y-78335238D01*
X56332380Y-78144761D01*
X56284761Y-78049523D01*
X56237142Y-78001904D01*
X56141904Y-77954285D01*
X55903809Y-77954285D01*
X55808571Y-78001904D01*
X55760952Y-78049523D01*
X55713333Y-78144761D01*
X55713333Y-78335238D01*
X55760952Y-78430476D01*
X55808571Y-78478095D01*
X55903809Y-78525714D01*
%TO.C,RV5*%
X151804761Y-36012380D02*
X151471428Y-35536190D01*
X151233333Y-36012380D02*
X151233333Y-35012380D01*
X151614285Y-35012380D01*
X151709523Y-35060000D01*
X151757142Y-35107619D01*
X151804761Y-35202857D01*
X151804761Y-35345714D01*
X151757142Y-35440952D01*
X151709523Y-35488571D01*
X151614285Y-35536190D01*
X151233333Y-35536190D01*
X152090476Y-35012380D02*
X152423809Y-36012380D01*
X152757142Y-35012380D01*
X153566666Y-35012380D02*
X153090476Y-35012380D01*
X153042857Y-35488571D01*
X153090476Y-35440952D01*
X153185714Y-35393333D01*
X153423809Y-35393333D01*
X153519047Y-35440952D01*
X153566666Y-35488571D01*
X153614285Y-35583809D01*
X153614285Y-35821904D01*
X153566666Y-35917142D01*
X153519047Y-35964761D01*
X153423809Y-36012380D01*
X153185714Y-36012380D01*
X153090476Y-35964761D01*
X153042857Y-35917142D01*
%TO.C,U3*%
X110998095Y-24852380D02*
X110998095Y-25661904D01*
X111045714Y-25757142D01*
X111093333Y-25804761D01*
X111188571Y-25852380D01*
X111379047Y-25852380D01*
X111474285Y-25804761D01*
X111521904Y-25757142D01*
X111569523Y-25661904D01*
X111569523Y-24852380D01*
X111950476Y-24852380D02*
X112569523Y-24852380D01*
X112236190Y-25233333D01*
X112379047Y-25233333D01*
X112474285Y-25280952D01*
X112521904Y-25328571D01*
X112569523Y-25423809D01*
X112569523Y-25661904D01*
X112521904Y-25757142D01*
X112474285Y-25804761D01*
X112379047Y-25852380D01*
X112093333Y-25852380D01*
X111998095Y-25804761D01*
X111950476Y-25757142D01*
%TO.C,C7*%
X110593333Y-70207142D02*
X110545714Y-70254761D01*
X110402857Y-70302380D01*
X110307619Y-70302380D01*
X110164761Y-70254761D01*
X110069523Y-70159523D01*
X110021904Y-70064285D01*
X109974285Y-69873809D01*
X109974285Y-69730952D01*
X110021904Y-69540476D01*
X110069523Y-69445238D01*
X110164761Y-69350000D01*
X110307619Y-69302380D01*
X110402857Y-69302380D01*
X110545714Y-69350000D01*
X110593333Y-69397619D01*
X110926666Y-69302380D02*
X111593333Y-69302380D01*
X111164761Y-70302380D01*
%TO.C,J6*%
X164766666Y-22312380D02*
X164766666Y-23026666D01*
X164719047Y-23169523D01*
X164623809Y-23264761D01*
X164480952Y-23312380D01*
X164385714Y-23312380D01*
X165671428Y-22312380D02*
X165480952Y-22312380D01*
X165385714Y-22360000D01*
X165338095Y-22407619D01*
X165242857Y-22550476D01*
X165195238Y-22740952D01*
X165195238Y-23121904D01*
X165242857Y-23217142D01*
X165290476Y-23264761D01*
X165385714Y-23312380D01*
X165576190Y-23312380D01*
X165671428Y-23264761D01*
X165719047Y-23217142D01*
X165766666Y-23121904D01*
X165766666Y-22883809D01*
X165719047Y-22788571D01*
X165671428Y-22740952D01*
X165576190Y-22693333D01*
X165385714Y-22693333D01*
X165290476Y-22740952D01*
X165242857Y-22788571D01*
X165195238Y-22883809D01*
%TO.C,R17*%
X84272380Y-79382857D02*
X83796190Y-79716190D01*
X84272380Y-79954285D02*
X83272380Y-79954285D01*
X83272380Y-79573333D01*
X83320000Y-79478095D01*
X83367619Y-79430476D01*
X83462857Y-79382857D01*
X83605714Y-79382857D01*
X83700952Y-79430476D01*
X83748571Y-79478095D01*
X83796190Y-79573333D01*
X83796190Y-79954285D01*
X84272380Y-78430476D02*
X84272380Y-79001904D01*
X84272380Y-78716190D02*
X83272380Y-78716190D01*
X83415238Y-78811428D01*
X83510476Y-78906666D01*
X83558095Y-79001904D01*
X83272380Y-78097142D02*
X83272380Y-77430476D01*
X84272380Y-77859047D01*
%TO.C,R7*%
X58872380Y-78906666D02*
X58396190Y-79240000D01*
X58872380Y-79478095D02*
X57872380Y-79478095D01*
X57872380Y-79097142D01*
X57920000Y-79001904D01*
X57967619Y-78954285D01*
X58062857Y-78906666D01*
X58205714Y-78906666D01*
X58300952Y-78954285D01*
X58348571Y-79001904D01*
X58396190Y-79097142D01*
X58396190Y-79478095D01*
X57872380Y-78573333D02*
X57872380Y-77906666D01*
X58872380Y-78335238D01*
%TO.C,R3*%
X48912380Y-78906666D02*
X48436190Y-79240000D01*
X48912380Y-79478095D02*
X47912380Y-79478095D01*
X47912380Y-79097142D01*
X47960000Y-79001904D01*
X48007619Y-78954285D01*
X48102857Y-78906666D01*
X48245714Y-78906666D01*
X48340952Y-78954285D01*
X48388571Y-79001904D01*
X48436190Y-79097142D01*
X48436190Y-79478095D01*
X47912380Y-78573333D02*
X47912380Y-77954285D01*
X48293333Y-78287619D01*
X48293333Y-78144761D01*
X48340952Y-78049523D01*
X48388571Y-78001904D01*
X48483809Y-77954285D01*
X48721904Y-77954285D01*
X48817142Y-78001904D01*
X48864761Y-78049523D01*
X48912380Y-78144761D01*
X48912380Y-78430476D01*
X48864761Y-78525714D01*
X48817142Y-78573333D01*
%TO.C,R20*%
X91892380Y-79382857D02*
X91416190Y-79716190D01*
X91892380Y-79954285D02*
X90892380Y-79954285D01*
X90892380Y-79573333D01*
X90940000Y-79478095D01*
X90987619Y-79430476D01*
X91082857Y-79382857D01*
X91225714Y-79382857D01*
X91320952Y-79430476D01*
X91368571Y-79478095D01*
X91416190Y-79573333D01*
X91416190Y-79954285D01*
X90987619Y-79001904D02*
X90940000Y-78954285D01*
X90892380Y-78859047D01*
X90892380Y-78620952D01*
X90940000Y-78525714D01*
X90987619Y-78478095D01*
X91082857Y-78430476D01*
X91178095Y-78430476D01*
X91320952Y-78478095D01*
X91892380Y-79049523D01*
X91892380Y-78430476D01*
X90892380Y-77811428D02*
X90892380Y-77716190D01*
X90940000Y-77620952D01*
X90987619Y-77573333D01*
X91082857Y-77525714D01*
X91273333Y-77478095D01*
X91511428Y-77478095D01*
X91701904Y-77525714D01*
X91797142Y-77573333D01*
X91844761Y-77620952D01*
X91892380Y-77716190D01*
X91892380Y-77811428D01*
X91844761Y-77906666D01*
X91797142Y-77954285D01*
X91701904Y-78001904D01*
X91511428Y-78049523D01*
X91273333Y-78049523D01*
X91082857Y-78001904D01*
X90987619Y-77954285D01*
X90940000Y-77906666D01*
X90892380Y-77811428D01*
%TO.C,R16*%
X81732380Y-79382857D02*
X81256190Y-79716190D01*
X81732380Y-79954285D02*
X80732380Y-79954285D01*
X80732380Y-79573333D01*
X80780000Y-79478095D01*
X80827619Y-79430476D01*
X80922857Y-79382857D01*
X81065714Y-79382857D01*
X81160952Y-79430476D01*
X81208571Y-79478095D01*
X81256190Y-79573333D01*
X81256190Y-79954285D01*
X81732380Y-78430476D02*
X81732380Y-79001904D01*
X81732380Y-78716190D02*
X80732380Y-78716190D01*
X80875238Y-78811428D01*
X80970476Y-78906666D01*
X81018095Y-79001904D01*
X80732380Y-77573333D02*
X80732380Y-77763809D01*
X80780000Y-77859047D01*
X80827619Y-77906666D01*
X80970476Y-78001904D01*
X81160952Y-78049523D01*
X81541904Y-78049523D01*
X81637142Y-78001904D01*
X81684761Y-77954285D01*
X81732380Y-77859047D01*
X81732380Y-77668571D01*
X81684761Y-77573333D01*
X81637142Y-77525714D01*
X81541904Y-77478095D01*
X81303809Y-77478095D01*
X81208571Y-77525714D01*
X81160952Y-77573333D01*
X81113333Y-77668571D01*
X81113333Y-77859047D01*
X81160952Y-77954285D01*
X81208571Y-78001904D01*
X81303809Y-78049523D01*
%TO.C,D1*%
X105941904Y-71572380D02*
X105941904Y-70572380D01*
X106180000Y-70572380D01*
X106322857Y-70620000D01*
X106418095Y-70715238D01*
X106465714Y-70810476D01*
X106513333Y-71000952D01*
X106513333Y-71143809D01*
X106465714Y-71334285D01*
X106418095Y-71429523D01*
X106322857Y-71524761D01*
X106180000Y-71572380D01*
X105941904Y-71572380D01*
X107465714Y-71572380D02*
X106894285Y-71572380D01*
X107180000Y-71572380D02*
X107180000Y-70572380D01*
X107084761Y-70715238D01*
X106989523Y-70810476D01*
X106894285Y-70858095D01*
%TO.C,C4*%
X89983333Y-64347142D02*
X89935714Y-64394761D01*
X89792857Y-64442380D01*
X89697619Y-64442380D01*
X89554761Y-64394761D01*
X89459523Y-64299523D01*
X89411904Y-64204285D01*
X89364285Y-64013809D01*
X89364285Y-63870952D01*
X89411904Y-63680476D01*
X89459523Y-63585238D01*
X89554761Y-63490000D01*
X89697619Y-63442380D01*
X89792857Y-63442380D01*
X89935714Y-63490000D01*
X89983333Y-63537619D01*
X90840476Y-63775714D02*
X90840476Y-64442380D01*
X90602380Y-63394761D02*
X90364285Y-64109047D01*
X90983333Y-64109047D01*
%TO.C,R10*%
X66492380Y-79382857D02*
X66016190Y-79716190D01*
X66492380Y-79954285D02*
X65492380Y-79954285D01*
X65492380Y-79573333D01*
X65540000Y-79478095D01*
X65587619Y-79430476D01*
X65682857Y-79382857D01*
X65825714Y-79382857D01*
X65920952Y-79430476D01*
X65968571Y-79478095D01*
X66016190Y-79573333D01*
X66016190Y-79954285D01*
X66492380Y-78430476D02*
X66492380Y-79001904D01*
X66492380Y-78716190D02*
X65492380Y-78716190D01*
X65635238Y-78811428D01*
X65730476Y-78906666D01*
X65778095Y-79001904D01*
X65492380Y-77811428D02*
X65492380Y-77716190D01*
X65540000Y-77620952D01*
X65587619Y-77573333D01*
X65682857Y-77525714D01*
X65873333Y-77478095D01*
X66111428Y-77478095D01*
X66301904Y-77525714D01*
X66397142Y-77573333D01*
X66444761Y-77620952D01*
X66492380Y-77716190D01*
X66492380Y-77811428D01*
X66444761Y-77906666D01*
X66397142Y-77954285D01*
X66301904Y-78001904D01*
X66111428Y-78049523D01*
X65873333Y-78049523D01*
X65682857Y-78001904D01*
X65587619Y-77954285D01*
X65540000Y-77906666D01*
X65492380Y-77811428D01*
%TO.C,RV3*%
X62904761Y-36012380D02*
X62571428Y-35536190D01*
X62333333Y-36012380D02*
X62333333Y-35012380D01*
X62714285Y-35012380D01*
X62809523Y-35060000D01*
X62857142Y-35107619D01*
X62904761Y-35202857D01*
X62904761Y-35345714D01*
X62857142Y-35440952D01*
X62809523Y-35488571D01*
X62714285Y-35536190D01*
X62333333Y-35536190D01*
X63190476Y-35012380D02*
X63523809Y-36012380D01*
X63857142Y-35012380D01*
X64095238Y-35012380D02*
X64714285Y-35012380D01*
X64380952Y-35393333D01*
X64523809Y-35393333D01*
X64619047Y-35440952D01*
X64666666Y-35488571D01*
X64714285Y-35583809D01*
X64714285Y-35821904D01*
X64666666Y-35917142D01*
X64619047Y-35964761D01*
X64523809Y-36012380D01*
X64238095Y-36012380D01*
X64142857Y-35964761D01*
X64095238Y-35917142D01*
%TO.C,C1*%
X116663333Y-73247142D02*
X116615714Y-73294761D01*
X116472857Y-73342380D01*
X116377619Y-73342380D01*
X116234761Y-73294761D01*
X116139523Y-73199523D01*
X116091904Y-73104285D01*
X116044285Y-72913809D01*
X116044285Y-72770952D01*
X116091904Y-72580476D01*
X116139523Y-72485238D01*
X116234761Y-72390000D01*
X116377619Y-72342380D01*
X116472857Y-72342380D01*
X116615714Y-72390000D01*
X116663333Y-72437619D01*
X117615714Y-73342380D02*
X117044285Y-73342380D01*
X117330000Y-73342380D02*
X117330000Y-72342380D01*
X117234761Y-72485238D01*
X117139523Y-72580476D01*
X117044285Y-72628095D01*
%TO.C,R15*%
X79192380Y-79382857D02*
X78716190Y-79716190D01*
X79192380Y-79954285D02*
X78192380Y-79954285D01*
X78192380Y-79573333D01*
X78240000Y-79478095D01*
X78287619Y-79430476D01*
X78382857Y-79382857D01*
X78525714Y-79382857D01*
X78620952Y-79430476D01*
X78668571Y-79478095D01*
X78716190Y-79573333D01*
X78716190Y-79954285D01*
X79192380Y-78430476D02*
X79192380Y-79001904D01*
X79192380Y-78716190D02*
X78192380Y-78716190D01*
X78335238Y-78811428D01*
X78430476Y-78906666D01*
X78478095Y-79001904D01*
X78192380Y-77525714D02*
X78192380Y-78001904D01*
X78668571Y-78049523D01*
X78620952Y-78001904D01*
X78573333Y-77906666D01*
X78573333Y-77668571D01*
X78620952Y-77573333D01*
X78668571Y-77525714D01*
X78763809Y-77478095D01*
X79001904Y-77478095D01*
X79097142Y-77525714D01*
X79144761Y-77573333D01*
X79192380Y-77668571D01*
X79192380Y-77906666D01*
X79144761Y-78001904D01*
X79097142Y-78049523D01*
%TO.C,R8*%
X61412380Y-78906666D02*
X60936190Y-79240000D01*
X61412380Y-79478095D02*
X60412380Y-79478095D01*
X60412380Y-79097142D01*
X60460000Y-79001904D01*
X60507619Y-78954285D01*
X60602857Y-78906666D01*
X60745714Y-78906666D01*
X60840952Y-78954285D01*
X60888571Y-79001904D01*
X60936190Y-79097142D01*
X60936190Y-79478095D01*
X60840952Y-78335238D02*
X60793333Y-78430476D01*
X60745714Y-78478095D01*
X60650476Y-78525714D01*
X60602857Y-78525714D01*
X60507619Y-78478095D01*
X60460000Y-78430476D01*
X60412380Y-78335238D01*
X60412380Y-78144761D01*
X60460000Y-78049523D01*
X60507619Y-78001904D01*
X60602857Y-77954285D01*
X60650476Y-77954285D01*
X60745714Y-78001904D01*
X60793333Y-78049523D01*
X60840952Y-78144761D01*
X60840952Y-78335238D01*
X60888571Y-78430476D01*
X60936190Y-78478095D01*
X61031428Y-78525714D01*
X61221904Y-78525714D01*
X61317142Y-78478095D01*
X61364761Y-78430476D01*
X61412380Y-78335238D01*
X61412380Y-78144761D01*
X61364761Y-78049523D01*
X61317142Y-78001904D01*
X61221904Y-77954285D01*
X61031428Y-77954285D01*
X60936190Y-78001904D01*
X60888571Y-78049523D01*
X60840952Y-78144761D01*
%TO.C,R9*%
X63952380Y-78906666D02*
X63476190Y-79240000D01*
X63952380Y-79478095D02*
X62952380Y-79478095D01*
X62952380Y-79097142D01*
X63000000Y-79001904D01*
X63047619Y-78954285D01*
X63142857Y-78906666D01*
X63285714Y-78906666D01*
X63380952Y-78954285D01*
X63428571Y-79001904D01*
X63476190Y-79097142D01*
X63476190Y-79478095D01*
X63952380Y-78430476D02*
X63952380Y-78240000D01*
X63904761Y-78144761D01*
X63857142Y-78097142D01*
X63714285Y-78001904D01*
X63523809Y-77954285D01*
X63142857Y-77954285D01*
X63047619Y-78001904D01*
X63000000Y-78049523D01*
X62952380Y-78144761D01*
X62952380Y-78335238D01*
X63000000Y-78430476D01*
X63047619Y-78478095D01*
X63142857Y-78525714D01*
X63380952Y-78525714D01*
X63476190Y-78478095D01*
X63523809Y-78430476D01*
X63571428Y-78335238D01*
X63571428Y-78144761D01*
X63523809Y-78049523D01*
X63476190Y-78001904D01*
X63380952Y-77954285D01*
%TO.C,C3*%
X131903333Y-66887142D02*
X131855714Y-66934761D01*
X131712857Y-66982380D01*
X131617619Y-66982380D01*
X131474761Y-66934761D01*
X131379523Y-66839523D01*
X131331904Y-66744285D01*
X131284285Y-66553809D01*
X131284285Y-66410952D01*
X131331904Y-66220476D01*
X131379523Y-66125238D01*
X131474761Y-66030000D01*
X131617619Y-65982380D01*
X131712857Y-65982380D01*
X131855714Y-66030000D01*
X131903333Y-66077619D01*
X132236666Y-65982380D02*
X132855714Y-65982380D01*
X132522380Y-66363333D01*
X132665238Y-66363333D01*
X132760476Y-66410952D01*
X132808095Y-66458571D01*
X132855714Y-66553809D01*
X132855714Y-66791904D01*
X132808095Y-66887142D01*
X132760476Y-66934761D01*
X132665238Y-66982380D01*
X132379523Y-66982380D01*
X132284285Y-66934761D01*
X132236666Y-66887142D01*
%TO.C,R43*%
X163012380Y-79382857D02*
X162536190Y-79716190D01*
X163012380Y-79954285D02*
X162012380Y-79954285D01*
X162012380Y-79573333D01*
X162060000Y-79478095D01*
X162107619Y-79430476D01*
X162202857Y-79382857D01*
X162345714Y-79382857D01*
X162440952Y-79430476D01*
X162488571Y-79478095D01*
X162536190Y-79573333D01*
X162536190Y-79954285D01*
X162345714Y-78525714D02*
X163012380Y-78525714D01*
X161964761Y-78763809D02*
X162679047Y-79001904D01*
X162679047Y-78382857D01*
X162012380Y-78097142D02*
X162012380Y-77478095D01*
X162393333Y-77811428D01*
X162393333Y-77668571D01*
X162440952Y-77573333D01*
X162488571Y-77525714D01*
X162583809Y-77478095D01*
X162821904Y-77478095D01*
X162917142Y-77525714D01*
X162964761Y-77573333D01*
X163012380Y-77668571D01*
X163012380Y-77954285D01*
X162964761Y-78049523D01*
X162917142Y-78097142D01*
%TO.C,RV6*%
X131484761Y-36012380D02*
X131151428Y-35536190D01*
X130913333Y-36012380D02*
X130913333Y-35012380D01*
X131294285Y-35012380D01*
X131389523Y-35060000D01*
X131437142Y-35107619D01*
X131484761Y-35202857D01*
X131484761Y-35345714D01*
X131437142Y-35440952D01*
X131389523Y-35488571D01*
X131294285Y-35536190D01*
X130913333Y-35536190D01*
X131770476Y-35012380D02*
X132103809Y-36012380D01*
X132437142Y-35012380D01*
X133199047Y-35012380D02*
X133008571Y-35012380D01*
X132913333Y-35060000D01*
X132865714Y-35107619D01*
X132770476Y-35250476D01*
X132722857Y-35440952D01*
X132722857Y-35821904D01*
X132770476Y-35917142D01*
X132818095Y-35964761D01*
X132913333Y-36012380D01*
X133103809Y-36012380D01*
X133199047Y-35964761D01*
X133246666Y-35917142D01*
X133294285Y-35821904D01*
X133294285Y-35583809D01*
X133246666Y-35488571D01*
X133199047Y-35440952D01*
X133103809Y-35393333D01*
X132913333Y-35393333D01*
X132818095Y-35440952D01*
X132770476Y-35488571D01*
X132722857Y-35583809D01*
%TO.C,J7*%
X141906666Y-75442380D02*
X141906666Y-76156666D01*
X141859047Y-76299523D01*
X141763809Y-76394761D01*
X141620952Y-76442380D01*
X141525714Y-76442380D01*
X142287619Y-75442380D02*
X142954285Y-75442380D01*
X142525714Y-76442380D01*
%TO.C,C5*%
X112897142Y-42056666D02*
X112944761Y-42104285D01*
X112992380Y-42247142D01*
X112992380Y-42342380D01*
X112944761Y-42485238D01*
X112849523Y-42580476D01*
X112754285Y-42628095D01*
X112563809Y-42675714D01*
X112420952Y-42675714D01*
X112230476Y-42628095D01*
X112135238Y-42580476D01*
X112040000Y-42485238D01*
X111992380Y-42342380D01*
X111992380Y-42247142D01*
X112040000Y-42104285D01*
X112087619Y-42056666D01*
X111992380Y-41151904D02*
X111992380Y-41628095D01*
X112468571Y-41675714D01*
X112420952Y-41628095D01*
X112373333Y-41532857D01*
X112373333Y-41294761D01*
X112420952Y-41199523D01*
X112468571Y-41151904D01*
X112563809Y-41104285D01*
X112801904Y-41104285D01*
X112897142Y-41151904D01*
X112944761Y-41199523D01*
X112992380Y-41294761D01*
X112992380Y-41532857D01*
X112944761Y-41628095D01*
X112897142Y-41675714D01*
%TO.C,SW1*%
X122774761Y-49043333D02*
X122822380Y-48900476D01*
X122822380Y-48662380D01*
X122774761Y-48567142D01*
X122727142Y-48519523D01*
X122631904Y-48471904D01*
X122536666Y-48471904D01*
X122441428Y-48519523D01*
X122393809Y-48567142D01*
X122346190Y-48662380D01*
X122298571Y-48852857D01*
X122250952Y-48948095D01*
X122203333Y-48995714D01*
X122108095Y-49043333D01*
X122012857Y-49043333D01*
X121917619Y-48995714D01*
X121870000Y-48948095D01*
X121822380Y-48852857D01*
X121822380Y-48614761D01*
X121870000Y-48471904D01*
X121822380Y-48138571D02*
X122822380Y-47900476D01*
X122108095Y-47710000D01*
X122822380Y-47519523D01*
X121822380Y-47281428D01*
X122822380Y-46376666D02*
X122822380Y-46948095D01*
X122822380Y-46662380D02*
X121822380Y-46662380D01*
X121965238Y-46757619D01*
X122060476Y-46852857D01*
X122108095Y-46948095D01*
%TO.C,R25*%
X102052380Y-79382857D02*
X101576190Y-79716190D01*
X102052380Y-79954285D02*
X101052380Y-79954285D01*
X101052380Y-79573333D01*
X101100000Y-79478095D01*
X101147619Y-79430476D01*
X101242857Y-79382857D01*
X101385714Y-79382857D01*
X101480952Y-79430476D01*
X101528571Y-79478095D01*
X101576190Y-79573333D01*
X101576190Y-79954285D01*
X101147619Y-79001904D02*
X101100000Y-78954285D01*
X101052380Y-78859047D01*
X101052380Y-78620952D01*
X101100000Y-78525714D01*
X101147619Y-78478095D01*
X101242857Y-78430476D01*
X101338095Y-78430476D01*
X101480952Y-78478095D01*
X102052380Y-79049523D01*
X102052380Y-78430476D01*
X101052380Y-77525714D02*
X101052380Y-78001904D01*
X101528571Y-78049523D01*
X101480952Y-78001904D01*
X101433333Y-77906666D01*
X101433333Y-77668571D01*
X101480952Y-77573333D01*
X101528571Y-77525714D01*
X101623809Y-77478095D01*
X101861904Y-77478095D01*
X101957142Y-77525714D01*
X102004761Y-77573333D01*
X102052380Y-77668571D01*
X102052380Y-77906666D01*
X102004761Y-78001904D01*
X101957142Y-78049523D01*
%TO.C,C9*%
X136993333Y-23217142D02*
X136945714Y-23264761D01*
X136802857Y-23312380D01*
X136707619Y-23312380D01*
X136564761Y-23264761D01*
X136469523Y-23169523D01*
X136421904Y-23074285D01*
X136374285Y-22883809D01*
X136374285Y-22740952D01*
X136421904Y-22550476D01*
X136469523Y-22455238D01*
X136564761Y-22360000D01*
X136707619Y-22312380D01*
X136802857Y-22312380D01*
X136945714Y-22360000D01*
X136993333Y-22407619D01*
X137469523Y-23312380D02*
X137660000Y-23312380D01*
X137755238Y-23264761D01*
X137802857Y-23217142D01*
X137898095Y-23074285D01*
X137945714Y-22883809D01*
X137945714Y-22502857D01*
X137898095Y-22407619D01*
X137850476Y-22360000D01*
X137755238Y-22312380D01*
X137564761Y-22312380D01*
X137469523Y-22360000D01*
X137421904Y-22407619D01*
X137374285Y-22502857D01*
X137374285Y-22740952D01*
X137421904Y-22836190D01*
X137469523Y-22883809D01*
X137564761Y-22931428D01*
X137755238Y-22931428D01*
X137850476Y-22883809D01*
X137898095Y-22836190D01*
X137945714Y-22740952D01*
%TO.C,RV1*%
X22184761Y-36012380D02*
X21851428Y-35536190D01*
X21613333Y-36012380D02*
X21613333Y-35012380D01*
X21994285Y-35012380D01*
X22089523Y-35060000D01*
X22137142Y-35107619D01*
X22184761Y-35202857D01*
X22184761Y-35345714D01*
X22137142Y-35440952D01*
X22089523Y-35488571D01*
X21994285Y-35536190D01*
X21613333Y-35536190D01*
X22470476Y-35012380D02*
X22803809Y-36012380D01*
X23137142Y-35012380D01*
X23994285Y-36012380D02*
X23422857Y-36012380D01*
X23708571Y-36012380D02*
X23708571Y-35012380D01*
X23613333Y-35155238D01*
X23518095Y-35250476D01*
X23422857Y-35298095D01*
%TO.C,RV2*%
X42504761Y-36012380D02*
X42171428Y-35536190D01*
X41933333Y-36012380D02*
X41933333Y-35012380D01*
X42314285Y-35012380D01*
X42409523Y-35060000D01*
X42457142Y-35107619D01*
X42504761Y-35202857D01*
X42504761Y-35345714D01*
X42457142Y-35440952D01*
X42409523Y-35488571D01*
X42314285Y-35536190D01*
X41933333Y-35536190D01*
X42790476Y-35012380D02*
X43123809Y-36012380D01*
X43457142Y-35012380D01*
X43742857Y-35107619D02*
X43790476Y-35060000D01*
X43885714Y-35012380D01*
X44123809Y-35012380D01*
X44219047Y-35060000D01*
X44266666Y-35107619D01*
X44314285Y-35202857D01*
X44314285Y-35298095D01*
X44266666Y-35440952D01*
X43695238Y-36012380D01*
X44314285Y-36012380D01*
%TO.C,R2*%
X43662380Y-78906666D02*
X43186190Y-79240000D01*
X43662380Y-79478095D02*
X42662380Y-79478095D01*
X42662380Y-79097142D01*
X42710000Y-79001904D01*
X42757619Y-78954285D01*
X42852857Y-78906666D01*
X42995714Y-78906666D01*
X43090952Y-78954285D01*
X43138571Y-79001904D01*
X43186190Y-79097142D01*
X43186190Y-79478095D01*
X42757619Y-78525714D02*
X42710000Y-78478095D01*
X42662380Y-78382857D01*
X42662380Y-78144761D01*
X42710000Y-78049523D01*
X42757619Y-78001904D01*
X42852857Y-77954285D01*
X42948095Y-77954285D01*
X43090952Y-78001904D01*
X43662380Y-78573333D01*
X43662380Y-77954285D01*
%TO.C,C6*%
X125583333Y-28297142D02*
X125535714Y-28344761D01*
X125392857Y-28392380D01*
X125297619Y-28392380D01*
X125154761Y-28344761D01*
X125059523Y-28249523D01*
X125011904Y-28154285D01*
X124964285Y-27963809D01*
X124964285Y-27820952D01*
X125011904Y-27630476D01*
X125059523Y-27535238D01*
X125154761Y-27440000D01*
X125297619Y-27392380D01*
X125392857Y-27392380D01*
X125535714Y-27440000D01*
X125583333Y-27487619D01*
X126440476Y-27392380D02*
X126250000Y-27392380D01*
X126154761Y-27440000D01*
X126107142Y-27487619D01*
X126011904Y-27630476D01*
X125964285Y-27820952D01*
X125964285Y-28201904D01*
X126011904Y-28297142D01*
X126059523Y-28344761D01*
X126154761Y-28392380D01*
X126345238Y-28392380D01*
X126440476Y-28344761D01*
X126488095Y-28297142D01*
X126535714Y-28201904D01*
X126535714Y-27963809D01*
X126488095Y-27868571D01*
X126440476Y-27820952D01*
X126345238Y-27773333D01*
X126154761Y-27773333D01*
X126059523Y-27820952D01*
X126011904Y-27868571D01*
X125964285Y-27963809D01*
%TO.C,R18*%
X86812380Y-79382857D02*
X86336190Y-79716190D01*
X86812380Y-79954285D02*
X85812380Y-79954285D01*
X85812380Y-79573333D01*
X85860000Y-79478095D01*
X85907619Y-79430476D01*
X86002857Y-79382857D01*
X86145714Y-79382857D01*
X86240952Y-79430476D01*
X86288571Y-79478095D01*
X86336190Y-79573333D01*
X86336190Y-79954285D01*
X86812380Y-78430476D02*
X86812380Y-79001904D01*
X86812380Y-78716190D02*
X85812380Y-78716190D01*
X85955238Y-78811428D01*
X86050476Y-78906666D01*
X86098095Y-79001904D01*
X86240952Y-77859047D02*
X86193333Y-77954285D01*
X86145714Y-78001904D01*
X86050476Y-78049523D01*
X86002857Y-78049523D01*
X85907619Y-78001904D01*
X85860000Y-77954285D01*
X85812380Y-77859047D01*
X85812380Y-77668571D01*
X85860000Y-77573333D01*
X85907619Y-77525714D01*
X86002857Y-77478095D01*
X86050476Y-77478095D01*
X86145714Y-77525714D01*
X86193333Y-77573333D01*
X86240952Y-77668571D01*
X86240952Y-77859047D01*
X86288571Y-77954285D01*
X86336190Y-78001904D01*
X86431428Y-78049523D01*
X86621904Y-78049523D01*
X86717142Y-78001904D01*
X86764761Y-77954285D01*
X86812380Y-77859047D01*
X86812380Y-77668571D01*
X86764761Y-77573333D01*
X86717142Y-77525714D01*
X86621904Y-77478095D01*
X86431428Y-77478095D01*
X86336190Y-77525714D01*
X86288571Y-77573333D01*
X86240952Y-77668571D01*
%TO.C,C12*%
X74307142Y-28297142D02*
X74259523Y-28344761D01*
X74116666Y-28392380D01*
X74021428Y-28392380D01*
X73878571Y-28344761D01*
X73783333Y-28249523D01*
X73735714Y-28154285D01*
X73688095Y-27963809D01*
X73688095Y-27820952D01*
X73735714Y-27630476D01*
X73783333Y-27535238D01*
X73878571Y-27440000D01*
X74021428Y-27392380D01*
X74116666Y-27392380D01*
X74259523Y-27440000D01*
X74307142Y-27487619D01*
X75259523Y-28392380D02*
X74688095Y-28392380D01*
X74973809Y-28392380D02*
X74973809Y-27392380D01*
X74878571Y-27535238D01*
X74783333Y-27630476D01*
X74688095Y-27678095D01*
X75640476Y-27487619D02*
X75688095Y-27440000D01*
X75783333Y-27392380D01*
X76021428Y-27392380D01*
X76116666Y-27440000D01*
X76164285Y-27487619D01*
X76211904Y-27582857D01*
X76211904Y-27678095D01*
X76164285Y-27820952D01*
X75592857Y-28392380D01*
X76211904Y-28392380D01*
%TO.C,J4*%
X162166666Y-60412380D02*
X162166666Y-61126666D01*
X162119047Y-61269523D01*
X162023809Y-61364761D01*
X161880952Y-61412380D01*
X161785714Y-61412380D01*
X163071428Y-60745714D02*
X163071428Y-61412380D01*
X162833333Y-60364761D02*
X162595238Y-61079047D01*
X163214285Y-61079047D01*
%TO.C,R29*%
X112212380Y-79382857D02*
X111736190Y-79716190D01*
X112212380Y-79954285D02*
X111212380Y-79954285D01*
X111212380Y-79573333D01*
X111260000Y-79478095D01*
X111307619Y-79430476D01*
X111402857Y-79382857D01*
X111545714Y-79382857D01*
X111640952Y-79430476D01*
X111688571Y-79478095D01*
X111736190Y-79573333D01*
X111736190Y-79954285D01*
X111307619Y-79001904D02*
X111260000Y-78954285D01*
X111212380Y-78859047D01*
X111212380Y-78620952D01*
X111260000Y-78525714D01*
X111307619Y-78478095D01*
X111402857Y-78430476D01*
X111498095Y-78430476D01*
X111640952Y-78478095D01*
X112212380Y-79049523D01*
X112212380Y-78430476D01*
X112212380Y-77954285D02*
X112212380Y-77763809D01*
X112164761Y-77668571D01*
X112117142Y-77620952D01*
X111974285Y-77525714D01*
X111783809Y-77478095D01*
X111402857Y-77478095D01*
X111307619Y-77525714D01*
X111260000Y-77573333D01*
X111212380Y-77668571D01*
X111212380Y-77859047D01*
X111260000Y-77954285D01*
X111307619Y-78001904D01*
X111402857Y-78049523D01*
X111640952Y-78049523D01*
X111736190Y-78001904D01*
X111783809Y-77954285D01*
X111831428Y-77859047D01*
X111831428Y-77668571D01*
X111783809Y-77573333D01*
X111736190Y-77525714D01*
X111640952Y-77478095D01*
%TO.C,R26*%
X104592380Y-79382857D02*
X104116190Y-79716190D01*
X104592380Y-79954285D02*
X103592380Y-79954285D01*
X103592380Y-79573333D01*
X103640000Y-79478095D01*
X103687619Y-79430476D01*
X103782857Y-79382857D01*
X103925714Y-79382857D01*
X104020952Y-79430476D01*
X104068571Y-79478095D01*
X104116190Y-79573333D01*
X104116190Y-79954285D01*
X103687619Y-79001904D02*
X103640000Y-78954285D01*
X103592380Y-78859047D01*
X103592380Y-78620952D01*
X103640000Y-78525714D01*
X103687619Y-78478095D01*
X103782857Y-78430476D01*
X103878095Y-78430476D01*
X104020952Y-78478095D01*
X104592380Y-79049523D01*
X104592380Y-78430476D01*
X103592380Y-77573333D02*
X103592380Y-77763809D01*
X103640000Y-77859047D01*
X103687619Y-77906666D01*
X103830476Y-78001904D01*
X104020952Y-78049523D01*
X104401904Y-78049523D01*
X104497142Y-78001904D01*
X104544761Y-77954285D01*
X104592380Y-77859047D01*
X104592380Y-77668571D01*
X104544761Y-77573333D01*
X104497142Y-77525714D01*
X104401904Y-77478095D01*
X104163809Y-77478095D01*
X104068571Y-77525714D01*
X104020952Y-77573333D01*
X103973333Y-77668571D01*
X103973333Y-77859047D01*
X104020952Y-77954285D01*
X104068571Y-78001904D01*
X104163809Y-78049523D01*
%TO.C,R34*%
X124912380Y-79382857D02*
X124436190Y-79716190D01*
X124912380Y-79954285D02*
X123912380Y-79954285D01*
X123912380Y-79573333D01*
X123960000Y-79478095D01*
X124007619Y-79430476D01*
X124102857Y-79382857D01*
X124245714Y-79382857D01*
X124340952Y-79430476D01*
X124388571Y-79478095D01*
X124436190Y-79573333D01*
X124436190Y-79954285D01*
X123912380Y-79049523D02*
X123912380Y-78430476D01*
X124293333Y-78763809D01*
X124293333Y-78620952D01*
X124340952Y-78525714D01*
X124388571Y-78478095D01*
X124483809Y-78430476D01*
X124721904Y-78430476D01*
X124817142Y-78478095D01*
X124864761Y-78525714D01*
X124912380Y-78620952D01*
X124912380Y-78906666D01*
X124864761Y-79001904D01*
X124817142Y-79049523D01*
X124245714Y-77573333D02*
X124912380Y-77573333D01*
X123864761Y-77811428D02*
X124579047Y-78049523D01*
X124579047Y-77430476D01*
%TO.C,R1*%
X41092380Y-78906666D02*
X40616190Y-79240000D01*
X41092380Y-79478095D02*
X40092380Y-79478095D01*
X40092380Y-79097142D01*
X40140000Y-79001904D01*
X40187619Y-78954285D01*
X40282857Y-78906666D01*
X40425714Y-78906666D01*
X40520952Y-78954285D01*
X40568571Y-79001904D01*
X40616190Y-79097142D01*
X40616190Y-79478095D01*
X41092380Y-77954285D02*
X41092380Y-78525714D01*
X41092380Y-78240000D02*
X40092380Y-78240000D01*
X40235238Y-78335238D01*
X40330476Y-78430476D01*
X40378095Y-78525714D01*
%TO.C,J8*%
X110156666Y-27392380D02*
X110156666Y-28106666D01*
X110109047Y-28249523D01*
X110013809Y-28344761D01*
X109870952Y-28392380D01*
X109775714Y-28392380D01*
X110775714Y-27820952D02*
X110680476Y-27773333D01*
X110632857Y-27725714D01*
X110585238Y-27630476D01*
X110585238Y-27582857D01*
X110632857Y-27487619D01*
X110680476Y-27440000D01*
X110775714Y-27392380D01*
X110966190Y-27392380D01*
X111061428Y-27440000D01*
X111109047Y-27487619D01*
X111156666Y-27582857D01*
X111156666Y-27630476D01*
X111109047Y-27725714D01*
X111061428Y-27773333D01*
X110966190Y-27820952D01*
X110775714Y-27820952D01*
X110680476Y-27868571D01*
X110632857Y-27916190D01*
X110585238Y-28011428D01*
X110585238Y-28201904D01*
X110632857Y-28297142D01*
X110680476Y-28344761D01*
X110775714Y-28392380D01*
X110966190Y-28392380D01*
X111061428Y-28344761D01*
X111109047Y-28297142D01*
X111156666Y-28201904D01*
X111156666Y-28011428D01*
X111109047Y-27916190D01*
X111061428Y-27868571D01*
X110966190Y-27820952D01*
%TO.C,C8*%
X145613333Y-29627142D02*
X145565714Y-29674761D01*
X145422857Y-29722380D01*
X145327619Y-29722380D01*
X145184761Y-29674761D01*
X145089523Y-29579523D01*
X145041904Y-29484285D01*
X144994285Y-29293809D01*
X144994285Y-29150952D01*
X145041904Y-28960476D01*
X145089523Y-28865238D01*
X145184761Y-28770000D01*
X145327619Y-28722380D01*
X145422857Y-28722380D01*
X145565714Y-28770000D01*
X145613333Y-28817619D01*
X146184761Y-29150952D02*
X146089523Y-29103333D01*
X146041904Y-29055714D01*
X145994285Y-28960476D01*
X145994285Y-28912857D01*
X146041904Y-28817619D01*
X146089523Y-28770000D01*
X146184761Y-28722380D01*
X146375238Y-28722380D01*
X146470476Y-28770000D01*
X146518095Y-28817619D01*
X146565714Y-28912857D01*
X146565714Y-28960476D01*
X146518095Y-29055714D01*
X146470476Y-29103333D01*
X146375238Y-29150952D01*
X146184761Y-29150952D01*
X146089523Y-29198571D01*
X146041904Y-29246190D01*
X145994285Y-29341428D01*
X145994285Y-29531904D01*
X146041904Y-29627142D01*
X146089523Y-29674761D01*
X146184761Y-29722380D01*
X146375238Y-29722380D01*
X146470476Y-29674761D01*
X146518095Y-29627142D01*
X146565714Y-29531904D01*
X146565714Y-29341428D01*
X146518095Y-29246190D01*
X146470476Y-29198571D01*
X146375238Y-29150952D01*
%TO.C,R14*%
X76652380Y-79382857D02*
X76176190Y-79716190D01*
X76652380Y-79954285D02*
X75652380Y-79954285D01*
X75652380Y-79573333D01*
X75700000Y-79478095D01*
X75747619Y-79430476D01*
X75842857Y-79382857D01*
X75985714Y-79382857D01*
X76080952Y-79430476D01*
X76128571Y-79478095D01*
X76176190Y-79573333D01*
X76176190Y-79954285D01*
X76652380Y-78430476D02*
X76652380Y-79001904D01*
X76652380Y-78716190D02*
X75652380Y-78716190D01*
X75795238Y-78811428D01*
X75890476Y-78906666D01*
X75938095Y-79001904D01*
X75985714Y-77573333D02*
X76652380Y-77573333D01*
X75604761Y-77811428D02*
X76319047Y-78049523D01*
X76319047Y-77430476D01*
%TO.C,R24*%
X99512380Y-79382857D02*
X99036190Y-79716190D01*
X99512380Y-79954285D02*
X98512380Y-79954285D01*
X98512380Y-79573333D01*
X98560000Y-79478095D01*
X98607619Y-79430476D01*
X98702857Y-79382857D01*
X98845714Y-79382857D01*
X98940952Y-79430476D01*
X98988571Y-79478095D01*
X99036190Y-79573333D01*
X99036190Y-79954285D01*
X98607619Y-79001904D02*
X98560000Y-78954285D01*
X98512380Y-78859047D01*
X98512380Y-78620952D01*
X98560000Y-78525714D01*
X98607619Y-78478095D01*
X98702857Y-78430476D01*
X98798095Y-78430476D01*
X98940952Y-78478095D01*
X99512380Y-79049523D01*
X99512380Y-78430476D01*
X98845714Y-77573333D02*
X99512380Y-77573333D01*
X98464761Y-77811428D02*
X99179047Y-78049523D01*
X99179047Y-77430476D01*
%TO.C,R49*%
X137887142Y-60082380D02*
X137553809Y-59606190D01*
X137315714Y-60082380D02*
X137315714Y-59082380D01*
X137696666Y-59082380D01*
X137791904Y-59130000D01*
X137839523Y-59177619D01*
X137887142Y-59272857D01*
X137887142Y-59415714D01*
X137839523Y-59510952D01*
X137791904Y-59558571D01*
X137696666Y-59606190D01*
X137315714Y-59606190D01*
X138744285Y-59415714D02*
X138744285Y-60082380D01*
X138506190Y-59034761D02*
X138268095Y-59749047D01*
X138887142Y-59749047D01*
X139315714Y-60082380D02*
X139506190Y-60082380D01*
X139601428Y-60034761D01*
X139649047Y-59987142D01*
X139744285Y-59844285D01*
X139791904Y-59653809D01*
X139791904Y-59272857D01*
X139744285Y-59177619D01*
X139696666Y-59130000D01*
X139601428Y-59082380D01*
X139410952Y-59082380D01*
X139315714Y-59130000D01*
X139268095Y-59177619D01*
X139220476Y-59272857D01*
X139220476Y-59510952D01*
X139268095Y-59606190D01*
X139315714Y-59653809D01*
X139410952Y-59701428D01*
X139601428Y-59701428D01*
X139696666Y-59653809D01*
X139744285Y-59606190D01*
X139791904Y-59510952D01*
%TO.C,R28*%
X109672380Y-79382857D02*
X109196190Y-79716190D01*
X109672380Y-79954285D02*
X108672380Y-79954285D01*
X108672380Y-79573333D01*
X108720000Y-79478095D01*
X108767619Y-79430476D01*
X108862857Y-79382857D01*
X109005714Y-79382857D01*
X109100952Y-79430476D01*
X109148571Y-79478095D01*
X109196190Y-79573333D01*
X109196190Y-79954285D01*
X108767619Y-79001904D02*
X108720000Y-78954285D01*
X108672380Y-78859047D01*
X108672380Y-78620952D01*
X108720000Y-78525714D01*
X108767619Y-78478095D01*
X108862857Y-78430476D01*
X108958095Y-78430476D01*
X109100952Y-78478095D01*
X109672380Y-79049523D01*
X109672380Y-78430476D01*
X109100952Y-77859047D02*
X109053333Y-77954285D01*
X109005714Y-78001904D01*
X108910476Y-78049523D01*
X108862857Y-78049523D01*
X108767619Y-78001904D01*
X108720000Y-77954285D01*
X108672380Y-77859047D01*
X108672380Y-77668571D01*
X108720000Y-77573333D01*
X108767619Y-77525714D01*
X108862857Y-77478095D01*
X108910476Y-77478095D01*
X109005714Y-77525714D01*
X109053333Y-77573333D01*
X109100952Y-77668571D01*
X109100952Y-77859047D01*
X109148571Y-77954285D01*
X109196190Y-78001904D01*
X109291428Y-78049523D01*
X109481904Y-78049523D01*
X109577142Y-78001904D01*
X109624761Y-77954285D01*
X109672380Y-77859047D01*
X109672380Y-77668571D01*
X109624761Y-77573333D01*
X109577142Y-77525714D01*
X109481904Y-77478095D01*
X109291428Y-77478095D01*
X109196190Y-77525714D01*
X109148571Y-77573333D01*
X109100952Y-77668571D01*
%TO.C,R32*%
X119832380Y-79382857D02*
X119356190Y-79716190D01*
X119832380Y-79954285D02*
X118832380Y-79954285D01*
X118832380Y-79573333D01*
X118880000Y-79478095D01*
X118927619Y-79430476D01*
X119022857Y-79382857D01*
X119165714Y-79382857D01*
X119260952Y-79430476D01*
X119308571Y-79478095D01*
X119356190Y-79573333D01*
X119356190Y-79954285D01*
X118832380Y-79049523D02*
X118832380Y-78430476D01*
X119213333Y-78763809D01*
X119213333Y-78620952D01*
X119260952Y-78525714D01*
X119308571Y-78478095D01*
X119403809Y-78430476D01*
X119641904Y-78430476D01*
X119737142Y-78478095D01*
X119784761Y-78525714D01*
X119832380Y-78620952D01*
X119832380Y-78906666D01*
X119784761Y-79001904D01*
X119737142Y-79049523D01*
X118927619Y-78049523D02*
X118880000Y-78001904D01*
X118832380Y-77906666D01*
X118832380Y-77668571D01*
X118880000Y-77573333D01*
X118927619Y-77525714D01*
X119022857Y-77478095D01*
X119118095Y-77478095D01*
X119260952Y-77525714D01*
X119832380Y-78097142D01*
X119832380Y-77478095D01*
%TO.C,R39*%
X137612380Y-79382857D02*
X137136190Y-79716190D01*
X137612380Y-79954285D02*
X136612380Y-79954285D01*
X136612380Y-79573333D01*
X136660000Y-79478095D01*
X136707619Y-79430476D01*
X136802857Y-79382857D01*
X136945714Y-79382857D01*
X137040952Y-79430476D01*
X137088571Y-79478095D01*
X137136190Y-79573333D01*
X137136190Y-79954285D01*
X136612380Y-79049523D02*
X136612380Y-78430476D01*
X136993333Y-78763809D01*
X136993333Y-78620952D01*
X137040952Y-78525714D01*
X137088571Y-78478095D01*
X137183809Y-78430476D01*
X137421904Y-78430476D01*
X137517142Y-78478095D01*
X137564761Y-78525714D01*
X137612380Y-78620952D01*
X137612380Y-78906666D01*
X137564761Y-79001904D01*
X137517142Y-79049523D01*
X137612380Y-77954285D02*
X137612380Y-77763809D01*
X137564761Y-77668571D01*
X137517142Y-77620952D01*
X137374285Y-77525714D01*
X137183809Y-77478095D01*
X136802857Y-77478095D01*
X136707619Y-77525714D01*
X136660000Y-77573333D01*
X136612380Y-77668571D01*
X136612380Y-77859047D01*
X136660000Y-77954285D01*
X136707619Y-78001904D01*
X136802857Y-78049523D01*
X137040952Y-78049523D01*
X137136190Y-78001904D01*
X137183809Y-77954285D01*
X137231428Y-77859047D01*
X137231428Y-77668571D01*
X137183809Y-77573333D01*
X137136190Y-77525714D01*
X137040952Y-77478095D01*
%TO.C,J1*%
X150796666Y-73112380D02*
X150796666Y-73826666D01*
X150749047Y-73969523D01*
X150653809Y-74064761D01*
X150510952Y-74112380D01*
X150415714Y-74112380D01*
X151796666Y-74112380D02*
X151225238Y-74112380D01*
X151510952Y-74112380D02*
X151510952Y-73112380D01*
X151415714Y-73255238D01*
X151320476Y-73350476D01*
X151225238Y-73398095D01*
%TO.C,RV4*%
X47664761Y-65172380D02*
X47331428Y-64696190D01*
X47093333Y-65172380D02*
X47093333Y-64172380D01*
X47474285Y-64172380D01*
X47569523Y-64220000D01*
X47617142Y-64267619D01*
X47664761Y-64362857D01*
X47664761Y-64505714D01*
X47617142Y-64600952D01*
X47569523Y-64648571D01*
X47474285Y-64696190D01*
X47093333Y-64696190D01*
X47950476Y-64172380D02*
X48283809Y-65172380D01*
X48617142Y-64172380D01*
X49379047Y-64505714D02*
X49379047Y-65172380D01*
X49140952Y-64124761D02*
X48902857Y-64839047D01*
X49521904Y-64839047D01*
%TO.C,J5*%
X145716666Y-22312380D02*
X145716666Y-23026666D01*
X145669047Y-23169523D01*
X145573809Y-23264761D01*
X145430952Y-23312380D01*
X145335714Y-23312380D01*
X146669047Y-22312380D02*
X146192857Y-22312380D01*
X146145238Y-22788571D01*
X146192857Y-22740952D01*
X146288095Y-22693333D01*
X146526190Y-22693333D01*
X146621428Y-22740952D01*
X146669047Y-22788571D01*
X146716666Y-22883809D01*
X146716666Y-23121904D01*
X146669047Y-23217142D01*
X146621428Y-23264761D01*
X146526190Y-23312380D01*
X146288095Y-23312380D01*
X146192857Y-23264761D01*
X146145238Y-23217142D01*
%TO.C,C2*%
X131903333Y-73397142D02*
X131855714Y-73444761D01*
X131712857Y-73492380D01*
X131617619Y-73492380D01*
X131474761Y-73444761D01*
X131379523Y-73349523D01*
X131331904Y-73254285D01*
X131284285Y-73063809D01*
X131284285Y-72920952D01*
X131331904Y-72730476D01*
X131379523Y-72635238D01*
X131474761Y-72540000D01*
X131617619Y-72492380D01*
X131712857Y-72492380D01*
X131855714Y-72540000D01*
X131903333Y-72587619D01*
X132284285Y-72587619D02*
X132331904Y-72540000D01*
X132427142Y-72492380D01*
X132665238Y-72492380D01*
X132760476Y-72540000D01*
X132808095Y-72587619D01*
X132855714Y-72682857D01*
X132855714Y-72778095D01*
X132808095Y-72920952D01*
X132236666Y-73492380D01*
X132855714Y-73492380D01*
%TO.C,R35*%
X127452380Y-79382857D02*
X126976190Y-79716190D01*
X127452380Y-79954285D02*
X126452380Y-79954285D01*
X126452380Y-79573333D01*
X126500000Y-79478095D01*
X126547619Y-79430476D01*
X126642857Y-79382857D01*
X126785714Y-79382857D01*
X126880952Y-79430476D01*
X126928571Y-79478095D01*
X126976190Y-79573333D01*
X126976190Y-79954285D01*
X126452380Y-79049523D02*
X126452380Y-78430476D01*
X126833333Y-78763809D01*
X126833333Y-78620952D01*
X126880952Y-78525714D01*
X126928571Y-78478095D01*
X127023809Y-78430476D01*
X127261904Y-78430476D01*
X127357142Y-78478095D01*
X127404761Y-78525714D01*
X127452380Y-78620952D01*
X127452380Y-78906666D01*
X127404761Y-79001904D01*
X127357142Y-79049523D01*
X126452380Y-77525714D02*
X126452380Y-78001904D01*
X126928571Y-78049523D01*
X126880952Y-78001904D01*
X126833333Y-77906666D01*
X126833333Y-77668571D01*
X126880952Y-77573333D01*
X126928571Y-77525714D01*
X127023809Y-77478095D01*
X127261904Y-77478095D01*
X127357142Y-77525714D01*
X127404761Y-77573333D01*
X127452380Y-77668571D01*
X127452380Y-77906666D01*
X127404761Y-78001904D01*
X127357142Y-78049523D01*
%TO.C,R31*%
X117292380Y-79382857D02*
X116816190Y-79716190D01*
X117292380Y-79954285D02*
X116292380Y-79954285D01*
X116292380Y-79573333D01*
X116340000Y-79478095D01*
X116387619Y-79430476D01*
X116482857Y-79382857D01*
X116625714Y-79382857D01*
X116720952Y-79430476D01*
X116768571Y-79478095D01*
X116816190Y-79573333D01*
X116816190Y-79954285D01*
X116292380Y-79049523D02*
X116292380Y-78430476D01*
X116673333Y-78763809D01*
X116673333Y-78620952D01*
X116720952Y-78525714D01*
X116768571Y-78478095D01*
X116863809Y-78430476D01*
X117101904Y-78430476D01*
X117197142Y-78478095D01*
X117244761Y-78525714D01*
X117292380Y-78620952D01*
X117292380Y-78906666D01*
X117244761Y-79001904D01*
X117197142Y-79049523D01*
X117292380Y-77478095D02*
X117292380Y-78049523D01*
X117292380Y-77763809D02*
X116292380Y-77763809D01*
X116435238Y-77859047D01*
X116530476Y-77954285D01*
X116578095Y-78049523D01*
%TO.C,R23*%
X116197142Y-75382380D02*
X115863809Y-74906190D01*
X115625714Y-75382380D02*
X115625714Y-74382380D01*
X116006666Y-74382380D01*
X116101904Y-74430000D01*
X116149523Y-74477619D01*
X116197142Y-74572857D01*
X116197142Y-74715714D01*
X116149523Y-74810952D01*
X116101904Y-74858571D01*
X116006666Y-74906190D01*
X115625714Y-74906190D01*
X116578095Y-74477619D02*
X116625714Y-74430000D01*
X116720952Y-74382380D01*
X116959047Y-74382380D01*
X117054285Y-74430000D01*
X117101904Y-74477619D01*
X117149523Y-74572857D01*
X117149523Y-74668095D01*
X117101904Y-74810952D01*
X116530476Y-75382380D01*
X117149523Y-75382380D01*
X117482857Y-74382380D02*
X118101904Y-74382380D01*
X117768571Y-74763333D01*
X117911428Y-74763333D01*
X118006666Y-74810952D01*
X118054285Y-74858571D01*
X118101904Y-74953809D01*
X118101904Y-75191904D01*
X118054285Y-75287142D01*
X118006666Y-75334761D01*
X117911428Y-75382380D01*
X117625714Y-75382380D01*
X117530476Y-75334761D01*
X117482857Y-75287142D01*
%TO.C,R37*%
X132532380Y-79382857D02*
X132056190Y-79716190D01*
X132532380Y-79954285D02*
X131532380Y-79954285D01*
X131532380Y-79573333D01*
X131580000Y-79478095D01*
X131627619Y-79430476D01*
X131722857Y-79382857D01*
X131865714Y-79382857D01*
X131960952Y-79430476D01*
X132008571Y-79478095D01*
X132056190Y-79573333D01*
X132056190Y-79954285D01*
X131532380Y-79049523D02*
X131532380Y-78430476D01*
X131913333Y-78763809D01*
X131913333Y-78620952D01*
X131960952Y-78525714D01*
X132008571Y-78478095D01*
X132103809Y-78430476D01*
X132341904Y-78430476D01*
X132437142Y-78478095D01*
X132484761Y-78525714D01*
X132532380Y-78620952D01*
X132532380Y-78906666D01*
X132484761Y-79001904D01*
X132437142Y-79049523D01*
X131532380Y-78097142D02*
X131532380Y-77430476D01*
X132532380Y-77859047D01*
%TO.C,R4*%
X51452380Y-78906666D02*
X50976190Y-79240000D01*
X51452380Y-79478095D02*
X50452380Y-79478095D01*
X50452380Y-79097142D01*
X50500000Y-79001904D01*
X50547619Y-78954285D01*
X50642857Y-78906666D01*
X50785714Y-78906666D01*
X50880952Y-78954285D01*
X50928571Y-79001904D01*
X50976190Y-79097142D01*
X50976190Y-79478095D01*
X50785714Y-78049523D02*
X51452380Y-78049523D01*
X50404761Y-78287619D02*
X51119047Y-78525714D01*
X51119047Y-77906666D01*
%TO.C,R44*%
X100957142Y-76652380D02*
X100623809Y-76176190D01*
X100385714Y-76652380D02*
X100385714Y-75652380D01*
X100766666Y-75652380D01*
X100861904Y-75700000D01*
X100909523Y-75747619D01*
X100957142Y-75842857D01*
X100957142Y-75985714D01*
X100909523Y-76080952D01*
X100861904Y-76128571D01*
X100766666Y-76176190D01*
X100385714Y-76176190D01*
X101814285Y-75985714D02*
X101814285Y-76652380D01*
X101576190Y-75604761D02*
X101338095Y-76319047D01*
X101957142Y-76319047D01*
X102766666Y-75985714D02*
X102766666Y-76652380D01*
X102528571Y-75604761D02*
X102290476Y-76319047D01*
X102909523Y-76319047D01*
%TO.C,U1*%
X117797806Y-62952380D02*
X117797806Y-63761904D01*
X117845425Y-63857142D01*
X117893044Y-63904761D01*
X117988282Y-63952380D01*
X118178758Y-63952380D01*
X118273996Y-63904761D01*
X118321615Y-63857142D01*
X118369234Y-63761904D01*
X118369234Y-62952380D01*
X119369234Y-63952380D02*
X118797806Y-63952380D01*
X119083520Y-63952380D02*
X119083520Y-62952380D01*
X118988282Y-63095238D01*
X118893044Y-63190476D01*
X118797806Y-63238095D01*
%TO.C,R45*%
X67937142Y-30932380D02*
X67603809Y-30456190D01*
X67365714Y-30932380D02*
X67365714Y-29932380D01*
X67746666Y-29932380D01*
X67841904Y-29980000D01*
X67889523Y-30027619D01*
X67937142Y-30122857D01*
X67937142Y-30265714D01*
X67889523Y-30360952D01*
X67841904Y-30408571D01*
X67746666Y-30456190D01*
X67365714Y-30456190D01*
X68794285Y-30265714D02*
X68794285Y-30932380D01*
X68556190Y-29884761D02*
X68318095Y-30599047D01*
X68937142Y-30599047D01*
X69794285Y-29932380D02*
X69318095Y-29932380D01*
X69270476Y-30408571D01*
X69318095Y-30360952D01*
X69413333Y-30313333D01*
X69651428Y-30313333D01*
X69746666Y-30360952D01*
X69794285Y-30408571D01*
X69841904Y-30503809D01*
X69841904Y-30741904D01*
X69794285Y-30837142D01*
X69746666Y-30884761D01*
X69651428Y-30932380D01*
X69413333Y-30932380D01*
X69318095Y-30884761D01*
X69270476Y-30837142D01*
%TO.C,C11*%
X75557142Y-61247142D02*
X75509523Y-61294761D01*
X75366666Y-61342380D01*
X75271428Y-61342380D01*
X75128571Y-61294761D01*
X75033333Y-61199523D01*
X74985714Y-61104285D01*
X74938095Y-60913809D01*
X74938095Y-60770952D01*
X74985714Y-60580476D01*
X75033333Y-60485238D01*
X75128571Y-60390000D01*
X75271428Y-60342380D01*
X75366666Y-60342380D01*
X75509523Y-60390000D01*
X75557142Y-60437619D01*
X76509523Y-61342380D02*
X75938095Y-61342380D01*
X76223809Y-61342380D02*
X76223809Y-60342380D01*
X76128571Y-60485238D01*
X76033333Y-60580476D01*
X75938095Y-60628095D01*
X77461904Y-61342380D02*
X76890476Y-61342380D01*
X77176190Y-61342380D02*
X77176190Y-60342380D01*
X77080952Y-60485238D01*
X76985714Y-60580476D01*
X76890476Y-60628095D01*
%TO.C,U2*%
X83058095Y-52792380D02*
X83058095Y-53601904D01*
X83105714Y-53697142D01*
X83153333Y-53744761D01*
X83248571Y-53792380D01*
X83439047Y-53792380D01*
X83534285Y-53744761D01*
X83581904Y-53697142D01*
X83629523Y-53601904D01*
X83629523Y-52792380D01*
X84058095Y-52887619D02*
X84105714Y-52840000D01*
X84200952Y-52792380D01*
X84439047Y-52792380D01*
X84534285Y-52840000D01*
X84581904Y-52887619D01*
X84629523Y-52982857D01*
X84629523Y-53078095D01*
X84581904Y-53220952D01*
X84010476Y-53792380D01*
X84629523Y-53792380D01*
%TO.C,R19*%
X89352380Y-79382857D02*
X88876190Y-79716190D01*
X89352380Y-79954285D02*
X88352380Y-79954285D01*
X88352380Y-79573333D01*
X88400000Y-79478095D01*
X88447619Y-79430476D01*
X88542857Y-79382857D01*
X88685714Y-79382857D01*
X88780952Y-79430476D01*
X88828571Y-79478095D01*
X88876190Y-79573333D01*
X88876190Y-79954285D01*
X89352380Y-78430476D02*
X89352380Y-79001904D01*
X89352380Y-78716190D02*
X88352380Y-78716190D01*
X88495238Y-78811428D01*
X88590476Y-78906666D01*
X88638095Y-79001904D01*
X89352380Y-77954285D02*
X89352380Y-77763809D01*
X89304761Y-77668571D01*
X89257142Y-77620952D01*
X89114285Y-77525714D01*
X88923809Y-77478095D01*
X88542857Y-77478095D01*
X88447619Y-77525714D01*
X88400000Y-77573333D01*
X88352380Y-77668571D01*
X88352380Y-77859047D01*
X88400000Y-77954285D01*
X88447619Y-78001904D01*
X88542857Y-78049523D01*
X88780952Y-78049523D01*
X88876190Y-78001904D01*
X88923809Y-77954285D01*
X88971428Y-77859047D01*
X88971428Y-77668571D01*
X88923809Y-77573333D01*
X88876190Y-77525714D01*
X88780952Y-77478095D01*
%TO.C,R40*%
X140152380Y-79382857D02*
X139676190Y-79716190D01*
X140152380Y-79954285D02*
X139152380Y-79954285D01*
X139152380Y-79573333D01*
X139200000Y-79478095D01*
X139247619Y-79430476D01*
X139342857Y-79382857D01*
X139485714Y-79382857D01*
X139580952Y-79430476D01*
X139628571Y-79478095D01*
X139676190Y-79573333D01*
X139676190Y-79954285D01*
X139485714Y-78525714D02*
X140152380Y-78525714D01*
X139104761Y-78763809D02*
X139819047Y-79001904D01*
X139819047Y-78382857D01*
X139152380Y-77811428D02*
X139152380Y-77716190D01*
X139200000Y-77620952D01*
X139247619Y-77573333D01*
X139342857Y-77525714D01*
X139533333Y-77478095D01*
X139771428Y-77478095D01*
X139961904Y-77525714D01*
X140057142Y-77573333D01*
X140104761Y-77620952D01*
X140152380Y-77716190D01*
X140152380Y-77811428D01*
X140104761Y-77906666D01*
X140057142Y-77954285D01*
X139961904Y-78001904D01*
X139771428Y-78049523D01*
X139533333Y-78049523D01*
X139342857Y-78001904D01*
X139247619Y-77954285D01*
X139200000Y-77906666D01*
X139152380Y-77811428D01*
%TO.C,J9*%
X139366666Y-75442380D02*
X139366666Y-76156666D01*
X139319047Y-76299523D01*
X139223809Y-76394761D01*
X139080952Y-76442380D01*
X138985714Y-76442380D01*
X139890476Y-76442380D02*
X140080952Y-76442380D01*
X140176190Y-76394761D01*
X140223809Y-76347142D01*
X140319047Y-76204285D01*
X140366666Y-76013809D01*
X140366666Y-75632857D01*
X140319047Y-75537619D01*
X140271428Y-75490000D01*
X140176190Y-75442380D01*
X139985714Y-75442380D01*
X139890476Y-75490000D01*
X139842857Y-75537619D01*
X139795238Y-75632857D01*
X139795238Y-75870952D01*
X139842857Y-75966190D01*
X139890476Y-76013809D01*
X139985714Y-76061428D01*
X140176190Y-76061428D01*
X140271428Y-76013809D01*
X140319047Y-75966190D01*
X140366666Y-75870952D01*
%TO.C,R30*%
X114752380Y-79382857D02*
X114276190Y-79716190D01*
X114752380Y-79954285D02*
X113752380Y-79954285D01*
X113752380Y-79573333D01*
X113800000Y-79478095D01*
X113847619Y-79430476D01*
X113942857Y-79382857D01*
X114085714Y-79382857D01*
X114180952Y-79430476D01*
X114228571Y-79478095D01*
X114276190Y-79573333D01*
X114276190Y-79954285D01*
X113752380Y-79049523D02*
X113752380Y-78430476D01*
X114133333Y-78763809D01*
X114133333Y-78620952D01*
X114180952Y-78525714D01*
X114228571Y-78478095D01*
X114323809Y-78430476D01*
X114561904Y-78430476D01*
X114657142Y-78478095D01*
X114704761Y-78525714D01*
X114752380Y-78620952D01*
X114752380Y-78906666D01*
X114704761Y-79001904D01*
X114657142Y-79049523D01*
X113752380Y-77811428D02*
X113752380Y-77716190D01*
X113800000Y-77620952D01*
X113847619Y-77573333D01*
X113942857Y-77525714D01*
X114133333Y-77478095D01*
X114371428Y-77478095D01*
X114561904Y-77525714D01*
X114657142Y-77573333D01*
X114704761Y-77620952D01*
X114752380Y-77716190D01*
X114752380Y-77811428D01*
X114704761Y-77906666D01*
X114657142Y-77954285D01*
X114561904Y-78001904D01*
X114371428Y-78049523D01*
X114133333Y-78049523D01*
X113942857Y-78001904D01*
X113847619Y-77954285D01*
X113800000Y-77906666D01*
X113752380Y-77811428D01*
D11*
%TO.C,R48*%
X144780000Y-67540000D02*
X144780000Y-66770000D01*
X146150000Y-66770000D02*
X146150000Y-60230000D01*
X144780000Y-59460000D02*
X144780000Y-60230000D01*
X146150000Y-60230000D02*
X143410000Y-60230000D01*
X143410000Y-66770000D02*
X146150000Y-66770000D01*
X143410000Y-60230000D02*
X143410000Y-66770000D01*
%TO.C,R27*%
X106680000Y-90400000D02*
X106680000Y-89630000D01*
X105310000Y-89630000D02*
X108050000Y-89630000D01*
X108050000Y-83090000D02*
X105310000Y-83090000D01*
X108050000Y-89630000D02*
X108050000Y-83090000D01*
X105310000Y-83090000D02*
X105310000Y-89630000D01*
X106680000Y-82320000D02*
X106680000Y-83090000D01*
%TO.C,R12*%
X71120000Y-90400000D02*
X71120000Y-89630000D01*
X71120000Y-82320000D02*
X71120000Y-83090000D01*
X69750000Y-83090000D02*
X69750000Y-89630000D01*
X69750000Y-89630000D02*
X72490000Y-89630000D01*
X72490000Y-83090000D02*
X69750000Y-83090000D01*
X72490000Y-89630000D02*
X72490000Y-83090000D01*
%TO.C,R42*%
X160020000Y-82320000D02*
X160020000Y-83090000D01*
X158650000Y-83090000D02*
X158650000Y-89630000D01*
X161390000Y-83090000D02*
X158650000Y-83090000D01*
X160020000Y-90400000D02*
X160020000Y-89630000D01*
X158650000Y-89630000D02*
X161390000Y-89630000D01*
X161390000Y-89630000D02*
X161390000Y-83090000D01*
%TO.C,R47*%
X140870000Y-66770000D02*
X143610000Y-66770000D01*
X140870000Y-60230000D02*
X140870000Y-66770000D01*
X142240000Y-67540000D02*
X142240000Y-66770000D01*
X143610000Y-66770000D02*
X143610000Y-60230000D01*
X142240000Y-59460000D02*
X142240000Y-60230000D01*
X143610000Y-60230000D02*
X140870000Y-60230000D01*
%TO.C,R50*%
X138530000Y-60230000D02*
X135790000Y-60230000D01*
X135790000Y-60230000D02*
X135790000Y-66770000D01*
X138530000Y-66770000D02*
X138530000Y-60230000D01*
X137160000Y-59460000D02*
X137160000Y-60230000D01*
X135790000Y-66770000D02*
X138530000Y-66770000D01*
X137160000Y-67540000D02*
X137160000Y-66770000D01*
%TO.C,R33*%
X123290000Y-89630000D02*
X123290000Y-83090000D01*
X121920000Y-82320000D02*
X121920000Y-83090000D01*
X123290000Y-83090000D02*
X120550000Y-83090000D01*
X120550000Y-89630000D02*
X123290000Y-89630000D01*
X121920000Y-90400000D02*
X121920000Y-89630000D01*
X120550000Y-83090000D02*
X120550000Y-89630000D01*
%TO.C,R36*%
X129540000Y-90400000D02*
X129540000Y-89630000D01*
X129540000Y-82320000D02*
X129540000Y-83090000D01*
X130910000Y-83090000D02*
X128170000Y-83090000D01*
X128170000Y-89630000D02*
X130910000Y-89630000D01*
X128170000Y-83090000D02*
X128170000Y-89630000D01*
X130910000Y-89630000D02*
X130910000Y-83090000D01*
%TO.C,R21*%
X92610000Y-89630000D02*
X95350000Y-89630000D01*
X92610000Y-83090000D02*
X92610000Y-89630000D01*
X93980000Y-90400000D02*
X93980000Y-89630000D01*
X93980000Y-82320000D02*
X93980000Y-83090000D01*
X95350000Y-89630000D02*
X95350000Y-83090000D01*
X95350000Y-83090000D02*
X92610000Y-83090000D01*
%TO.C,R5*%
X53340000Y-90400000D02*
X53340000Y-89630000D01*
X51970000Y-83090000D02*
X51970000Y-89630000D01*
X51970000Y-89630000D02*
X54710000Y-89630000D01*
X53340000Y-82320000D02*
X53340000Y-83090000D01*
X54710000Y-83090000D02*
X51970000Y-83090000D01*
X54710000Y-89630000D02*
X54710000Y-83090000D01*
%TO.C,R13*%
X75030000Y-89630000D02*
X75030000Y-83090000D01*
X73660000Y-82320000D02*
X73660000Y-83090000D01*
X72290000Y-89630000D02*
X75030000Y-89630000D01*
X75030000Y-83090000D02*
X72290000Y-83090000D01*
X73660000Y-90400000D02*
X73660000Y-89630000D01*
X72290000Y-83090000D02*
X72290000Y-89630000D01*
%TO.C,R11*%
X69950000Y-83090000D02*
X67210000Y-83090000D01*
X68580000Y-82320000D02*
X68580000Y-83090000D01*
X69950000Y-89630000D02*
X69950000Y-83090000D01*
X68580000Y-90400000D02*
X68580000Y-89630000D01*
X67210000Y-83090000D02*
X67210000Y-89630000D01*
X67210000Y-89630000D02*
X69950000Y-89630000D01*
%TO.C,R22*%
X95150000Y-89630000D02*
X97890000Y-89630000D01*
X95150000Y-83090000D02*
X95150000Y-89630000D01*
X97890000Y-83090000D02*
X95150000Y-83090000D01*
X96520000Y-90400000D02*
X96520000Y-89630000D01*
X97890000Y-89630000D02*
X97890000Y-83090000D01*
X96520000Y-82320000D02*
X96520000Y-83090000D01*
%TO.C,R38*%
X133250000Y-83090000D02*
X133250000Y-89630000D01*
X134620000Y-82320000D02*
X134620000Y-83090000D01*
X135990000Y-83090000D02*
X133250000Y-83090000D01*
X133250000Y-89630000D02*
X135990000Y-89630000D01*
X135990000Y-89630000D02*
X135990000Y-83090000D01*
X134620000Y-90400000D02*
X134620000Y-89630000D01*
%TO.C,BAR1*%
X108090000Y-51047500D02*
X82410000Y-51047500D01*
X82410000Y-40607500D02*
X108090000Y-40607500D01*
X108380000Y-42017500D02*
X108380000Y-40317500D01*
X82410000Y-51047500D02*
X82410000Y-40607500D01*
X108380000Y-40317500D02*
X106680000Y-40317500D01*
X108090000Y-40607500D02*
X108090000Y-51047500D01*
%TO.C,R41*%
X140870000Y-83090000D02*
X140870000Y-89630000D01*
X143610000Y-89630000D02*
X143610000Y-83090000D01*
X142240000Y-90400000D02*
X142240000Y-89630000D01*
X140870000Y-89630000D02*
X143610000Y-89630000D01*
X142240000Y-82320000D02*
X142240000Y-83090000D01*
X143610000Y-83090000D02*
X140870000Y-83090000D01*
%TO.C,R46*%
X128510000Y-59690000D02*
X127740000Y-59690000D01*
X120430000Y-59690000D02*
X121200000Y-59690000D01*
X127740000Y-58320000D02*
X121200000Y-58320000D01*
X121200000Y-61060000D02*
X127740000Y-61060000D01*
X121200000Y-58320000D02*
X121200000Y-61060000D01*
X127740000Y-61060000D02*
X127740000Y-58320000D01*
%TO.C,C10*%
X82429000Y-37343000D02*
X82429000Y-28697000D01*
X80909000Y-35909000D02*
X80909000Y-30131000D01*
X83229000Y-31980000D02*
X83229000Y-28297000D01*
X82749000Y-37524000D02*
X82749000Y-28516000D01*
X82589000Y-37437000D02*
X82589000Y-28603000D01*
X84069000Y-37994000D02*
X84069000Y-34060000D01*
X84750000Y-38088000D02*
X84750000Y-34060000D01*
X81509000Y-36621000D02*
X81509000Y-29419000D01*
X84109000Y-38002000D02*
X84109000Y-34060000D01*
X81189000Y-36274000D02*
X81189000Y-29766000D01*
X84269000Y-38031000D02*
X84269000Y-34060000D01*
X84630000Y-31980000D02*
X84630000Y-27962000D01*
X84590000Y-38074000D02*
X84590000Y-34060000D01*
X81629000Y-36736000D02*
X81629000Y-29304000D01*
X83789000Y-31980000D02*
X83789000Y-28113000D01*
X82989000Y-31980000D02*
X82989000Y-28399000D01*
X84389000Y-31980000D02*
X84389000Y-27990000D01*
X84830000Y-31980000D02*
X84830000Y-27947000D01*
X84670000Y-38082000D02*
X84670000Y-34060000D01*
X82549000Y-37415000D02*
X82549000Y-28625000D01*
X83869000Y-37948000D02*
X83869000Y-34060000D01*
X80269000Y-34650000D02*
X80269000Y-31390000D01*
X83589000Y-31980000D02*
X83589000Y-28170000D01*
X83109000Y-37694000D02*
X83109000Y-34060000D01*
X81549000Y-36660000D02*
X81549000Y-29380000D01*
X84389000Y-38050000D02*
X84389000Y-34060000D01*
X82949000Y-37623000D02*
X82949000Y-34060000D01*
X83349000Y-31980000D02*
X83349000Y-28252000D01*
X84189000Y-38017000D02*
X84189000Y-34060000D01*
X83389000Y-37803000D02*
X83389000Y-34060000D01*
X83069000Y-37677000D02*
X83069000Y-34060000D01*
X83469000Y-37831000D02*
X83469000Y-34060000D01*
X83589000Y-37870000D02*
X83589000Y-34060000D01*
X80469000Y-35145000D02*
X80469000Y-30895000D01*
X80189000Y-34398000D02*
X80189000Y-31642000D01*
X83829000Y-37938000D02*
X83829000Y-34060000D01*
X81589000Y-36699000D02*
X81589000Y-29341000D01*
X83509000Y-31980000D02*
X83509000Y-28196000D01*
X82269000Y-37241000D02*
X82269000Y-28799000D01*
X81149000Y-36226000D02*
X81149000Y-29814000D01*
X82909000Y-31980000D02*
X82909000Y-28436000D01*
X81269000Y-36367000D02*
X81269000Y-29673000D01*
X83029000Y-31980000D02*
X83029000Y-28381000D01*
X83989000Y-31980000D02*
X83989000Y-28064000D01*
X83749000Y-31980000D02*
X83749000Y-28123000D01*
X80309000Y-34762000D02*
X80309000Y-31278000D01*
X84790000Y-31980000D02*
X84790000Y-27950000D01*
X83429000Y-31980000D02*
X83429000Y-28223000D01*
X80829000Y-35790000D02*
X80829000Y-30250000D01*
X80589000Y-35385000D02*
X80589000Y-30655000D01*
X83709000Y-37905000D02*
X83709000Y-34060000D01*
X80989000Y-36020000D02*
X80989000Y-30020000D01*
X80789000Y-35729000D02*
X80789000Y-30311000D01*
X80109000Y-34082000D02*
X80109000Y-31958000D01*
X83269000Y-37758000D02*
X83269000Y-34060000D01*
X85030000Y-38100000D02*
X85030000Y-27940000D01*
X82869000Y-37584000D02*
X82869000Y-34060000D01*
X84870000Y-38095000D02*
X84870000Y-34060000D01*
X84349000Y-38044000D02*
X84349000Y-34060000D01*
X83189000Y-37727000D02*
X83189000Y-34060000D01*
X84149000Y-38010000D02*
X84149000Y-34060000D01*
X83349000Y-37788000D02*
X83349000Y-34060000D01*
X80749000Y-35665000D02*
X80749000Y-30375000D01*
X84229000Y-38024000D02*
X84229000Y-34060000D01*
X90089646Y-36395000D02*
X90089646Y-35395000D01*
X84630000Y-38078000D02*
X84630000Y-34060000D01*
X84790000Y-38090000D02*
X84790000Y-34060000D01*
X84830000Y-38093000D02*
X84830000Y-34060000D01*
X82949000Y-31980000D02*
X82949000Y-28417000D01*
X84029000Y-31980000D02*
X84029000Y-28055000D01*
X82669000Y-37482000D02*
X82669000Y-28558000D01*
X83629000Y-37882000D02*
X83629000Y-34060000D01*
X84990000Y-38099000D02*
X84990000Y-27941000D01*
X82829000Y-37565000D02*
X82829000Y-34060000D01*
X83669000Y-37894000D02*
X83669000Y-34060000D01*
X83029000Y-37659000D02*
X83029000Y-34060000D01*
X81829000Y-36912000D02*
X81829000Y-29128000D01*
X81349000Y-36456000D02*
X81349000Y-29584000D01*
X83669000Y-31980000D02*
X83669000Y-28146000D01*
X81749000Y-36844000D02*
X81749000Y-29196000D01*
X80229000Y-34530000D02*
X80229000Y-31510000D01*
X84870000Y-31980000D02*
X84870000Y-27945000D01*
X82149000Y-37158000D02*
X82149000Y-28882000D01*
X84510000Y-31980000D02*
X84510000Y-27975000D01*
X81029000Y-36074000D02*
X81029000Y-29966000D01*
X82309000Y-37267000D02*
X82309000Y-28773000D01*
X84189000Y-31980000D02*
X84189000Y-28023000D01*
X83309000Y-37774000D02*
X83309000Y-34060000D01*
X83989000Y-37976000D02*
X83989000Y-34060000D01*
X84590000Y-31980000D02*
X84590000Y-27966000D01*
X83909000Y-37958000D02*
X83909000Y-34060000D01*
X80509000Y-35229000D02*
X80509000Y-30811000D01*
X81109000Y-36176000D02*
X81109000Y-29864000D01*
X81869000Y-36945000D02*
X81869000Y-29095000D01*
X83149000Y-31980000D02*
X83149000Y-28330000D01*
X81709000Y-36809000D02*
X81709000Y-29231000D01*
X84510000Y-38065000D02*
X84510000Y-34060000D01*
X83949000Y-31980000D02*
X83949000Y-28073000D01*
X83309000Y-31980000D02*
X83309000Y-28266000D01*
X84430000Y-31980000D02*
X84430000Y-27985000D01*
X80389000Y-34964000D02*
X80389000Y-31076000D01*
X83549000Y-31980000D02*
X83549000Y-28183000D01*
X84269000Y-31980000D02*
X84269000Y-28009000D01*
X84670000Y-31980000D02*
X84670000Y-27958000D01*
X82229000Y-37214000D02*
X82229000Y-28826000D01*
X83109000Y-31980000D02*
X83109000Y-28346000D01*
X84710000Y-31980000D02*
X84710000Y-27955000D01*
X81989000Y-37040000D02*
X81989000Y-29000000D01*
X84910000Y-38097000D02*
X84910000Y-27943000D01*
X85110000Y-38100000D02*
X85110000Y-27940000D01*
X80549000Y-35309000D02*
X80549000Y-30731000D01*
X83749000Y-37917000D02*
X83749000Y-34060000D01*
X80069000Y-33882000D02*
X80069000Y-32158000D01*
X82789000Y-37545000D02*
X82789000Y-28495000D01*
X84109000Y-31980000D02*
X84109000Y-28038000D01*
X83229000Y-37743000D02*
X83229000Y-34060000D01*
X80349000Y-34866000D02*
X80349000Y-31174000D01*
X83389000Y-31980000D02*
X83389000Y-28237000D01*
X84309000Y-38038000D02*
X84309000Y-34060000D01*
X81389000Y-36498000D02*
X81389000Y-29542000D01*
X82909000Y-37604000D02*
X82909000Y-34060000D01*
X84349000Y-31980000D02*
X84349000Y-27996000D01*
X83909000Y-31980000D02*
X83909000Y-28082000D01*
X84229000Y-31980000D02*
X84229000Y-28016000D01*
X82389000Y-37318000D02*
X82389000Y-28722000D01*
X83269000Y-31980000D02*
X83269000Y-28282000D01*
X83629000Y-31980000D02*
X83629000Y-28158000D01*
X83709000Y-31980000D02*
X83709000Y-28135000D01*
X83549000Y-37857000D02*
X83549000Y-34060000D01*
X83149000Y-37710000D02*
X83149000Y-34060000D01*
X84550000Y-31980000D02*
X84550000Y-27970000D01*
X82869000Y-31980000D02*
X82869000Y-28456000D01*
X84069000Y-31980000D02*
X84069000Y-28046000D01*
X82709000Y-37503000D02*
X82709000Y-28537000D01*
X81949000Y-37009000D02*
X81949000Y-29031000D01*
X81469000Y-36581000D02*
X81469000Y-29459000D01*
X84550000Y-38070000D02*
X84550000Y-34060000D01*
X85070000Y-38100000D02*
X85070000Y-27940000D01*
X80029000Y-33619000D02*
X80029000Y-32421000D01*
X83069000Y-31980000D02*
X83069000Y-28363000D01*
X80709000Y-35599000D02*
X80709000Y-30441000D01*
X81309000Y-36412000D02*
X81309000Y-29628000D01*
X90589646Y-35895000D02*
X89589646Y-35895000D01*
X82029000Y-37070000D02*
X82029000Y-28970000D01*
X84149000Y-31980000D02*
X84149000Y-28030000D01*
X82069000Y-37100000D02*
X82069000Y-28940000D01*
X81069000Y-36126000D02*
X81069000Y-29914000D01*
X80429000Y-35057000D02*
X80429000Y-30983000D01*
X82469000Y-37367000D02*
X82469000Y-28673000D01*
X83869000Y-31980000D02*
X83869000Y-28092000D01*
X83829000Y-31980000D02*
X83829000Y-28102000D01*
X80149000Y-34250000D02*
X80149000Y-31790000D01*
X82349000Y-37293000D02*
X82349000Y-28747000D01*
X84950000Y-38098000D02*
X84950000Y-27942000D01*
X80949000Y-35965000D02*
X80949000Y-30075000D01*
X81669000Y-36773000D02*
X81669000Y-29267000D01*
X83469000Y-31980000D02*
X83469000Y-28209000D01*
X83949000Y-37967000D02*
X83949000Y-34060000D01*
X81429000Y-36540000D02*
X81429000Y-29500000D01*
X82509000Y-37391000D02*
X82509000Y-28649000D01*
X84710000Y-38085000D02*
X84710000Y-34060000D01*
X84309000Y-31980000D02*
X84309000Y-28002000D01*
X80629000Y-35459000D02*
X80629000Y-30581000D01*
X80869000Y-35850000D02*
X80869000Y-30190000D01*
X83189000Y-31980000D02*
X83189000Y-28313000D01*
X81909000Y-36977000D02*
X81909000Y-29063000D01*
X84470000Y-31980000D02*
X84470000Y-27980000D01*
X82629000Y-37460000D02*
X82629000Y-28580000D01*
X82829000Y-31980000D02*
X82829000Y-28475000D01*
X81229000Y-36321000D02*
X81229000Y-29719000D01*
X84750000Y-31980000D02*
X84750000Y-27952000D01*
X83429000Y-37817000D02*
X83429000Y-34060000D01*
X84470000Y-38060000D02*
X84470000Y-34060000D01*
X82109000Y-37130000D02*
X82109000Y-28910000D01*
X82189000Y-37186000D02*
X82189000Y-28854000D01*
X80669000Y-35530000D02*
X80669000Y-30510000D01*
X83789000Y-37927000D02*
X83789000Y-34060000D01*
X84430000Y-38055000D02*
X84430000Y-34060000D01*
X83509000Y-37844000D02*
X83509000Y-34060000D01*
X82989000Y-37641000D02*
X82989000Y-34060000D01*
X81789000Y-36878000D02*
X81789000Y-29162000D01*
X84029000Y-37985000D02*
X84029000Y-34060000D01*
X90230000Y-33020000D02*
G75*
G03*
X90230000Y-33020000I-5120000J0D01*
G01*
%TO.C,J2*%
X119450000Y-67250000D02*
X119450000Y-68580000D01*
X118120000Y-67250000D02*
X119450000Y-67250000D01*
X116850000Y-69910000D02*
X114250000Y-69910000D01*
X114250000Y-67250000D02*
X114250000Y-69910000D01*
X116850000Y-67250000D02*
X114250000Y-67250000D01*
X116850000Y-67250000D02*
X116850000Y-69910000D01*
%TO.C,J3*%
X36850000Y-33737500D02*
X36350000Y-34237500D01*
X31990000Y-16917500D02*
X31990000Y-24887500D01*
X36350000Y-34237500D02*
X37350000Y-34237500D01*
X44210000Y-16917500D02*
X31990000Y-16917500D01*
X31990000Y-33537500D02*
X31990000Y-29787500D01*
X44210000Y-33537500D02*
X31990000Y-33537500D01*
X44210000Y-33537500D02*
X44210000Y-29787500D01*
X44210000Y-16917500D02*
X44210000Y-24887500D01*
X37350000Y-34237500D02*
X36850000Y-33737500D01*
%TO.C,R6*%
X55880000Y-90400000D02*
X55880000Y-89630000D01*
X57250000Y-89630000D02*
X57250000Y-83090000D01*
X54510000Y-83090000D02*
X54510000Y-89630000D01*
X57250000Y-83090000D02*
X54510000Y-83090000D01*
X54510000Y-89630000D02*
X57250000Y-89630000D01*
X55880000Y-82320000D02*
X55880000Y-83090000D01*
%TO.C,RV5*%
X168140000Y-56500000D02*
X168140000Y-45880000D01*
X156446000Y-56500000D02*
X158595000Y-56500000D01*
X151900000Y-56500000D02*
X153594000Y-56500000D01*
X161445000Y-56500000D02*
X163595000Y-56500000D01*
X151900000Y-56500000D02*
X151900000Y-45880000D01*
X166445000Y-56500000D02*
X168140000Y-56500000D01*
X168140000Y-45880000D02*
G75*
G03*
X168140000Y-45880000I-8120000J0D01*
G01*
%TO.C,U3*%
X120760000Y-24070000D02*
X119110000Y-24070000D01*
X120760000Y-34350000D02*
X120760000Y-24070000D01*
X115460000Y-24070000D02*
X115460000Y-34350000D01*
X117110000Y-24070000D02*
X115460000Y-24070000D01*
X115460000Y-34350000D02*
X120760000Y-34350000D01*
X117110000Y-24070000D02*
G75*
G03*
X119110000Y-24070000I1000000J0D01*
G01*
%TO.C,C7*%
X110360000Y-72620000D02*
X110360000Y-71110000D01*
X110080000Y-72620000D02*
X110080000Y-71169000D01*
X109599000Y-75970000D02*
X109599000Y-74700000D01*
X108359000Y-74671000D02*
X108359000Y-72649000D01*
X109559000Y-72620000D02*
X109559000Y-71370000D01*
X109919000Y-72620000D02*
X109919000Y-71218000D01*
X110760000Y-76240000D02*
X110760000Y-74700000D01*
X108839000Y-72620000D02*
X108839000Y-71917000D01*
X109039000Y-72620000D02*
X109039000Y-71723000D01*
X108159000Y-73944000D02*
X108159000Y-73376000D01*
X109079000Y-72620000D02*
X109079000Y-71689000D01*
X109119000Y-72620000D02*
X109119000Y-71656000D01*
X108799000Y-75359000D02*
X108799000Y-74700000D01*
X108919000Y-75486000D02*
X108919000Y-74700000D01*
X108559000Y-75043000D02*
X108559000Y-72277000D01*
X108319000Y-74575000D02*
X108319000Y-72745000D01*
X109039000Y-75597000D02*
X109039000Y-74700000D01*
X110560000Y-72620000D02*
X110560000Y-71087000D01*
X110280000Y-76196000D02*
X110280000Y-74700000D01*
X109999000Y-72620000D02*
X109999000Y-71192000D01*
X108679000Y-75214000D02*
X108679000Y-72106000D01*
X110640000Y-72620000D02*
X110640000Y-71082000D01*
X109719000Y-72620000D02*
X109719000Y-71295000D01*
X108799000Y-72620000D02*
X108799000Y-71961000D01*
X110640000Y-76238000D02*
X110640000Y-74700000D01*
X109359000Y-75835000D02*
X109359000Y-74700000D01*
X109519000Y-72620000D02*
X109519000Y-71392000D01*
X110120000Y-76161000D02*
X110120000Y-74700000D01*
X108599000Y-75103000D02*
X108599000Y-72217000D01*
X108239000Y-74337000D02*
X108239000Y-72983000D01*
X110160000Y-76171000D02*
X110160000Y-74700000D01*
X109479000Y-75907000D02*
X109479000Y-74700000D01*
X108399000Y-74758000D02*
X108399000Y-72562000D01*
X109959000Y-72620000D02*
X109959000Y-71205000D01*
X108719000Y-75265000D02*
X108719000Y-72055000D01*
X108999000Y-75561000D02*
X108999000Y-74700000D01*
X110080000Y-76151000D02*
X110080000Y-74700000D01*
X109159000Y-72620000D02*
X109159000Y-71625000D01*
X110400000Y-72620000D02*
X110400000Y-71104000D01*
X109199000Y-72620000D02*
X109199000Y-71595000D01*
X113314775Y-75385000D02*
X113314775Y-74885000D01*
X108439000Y-74838000D02*
X108439000Y-72482000D01*
X110760000Y-72620000D02*
X110760000Y-71080000D01*
X109639000Y-75989000D02*
X109639000Y-74700000D01*
X109719000Y-76025000D02*
X109719000Y-74700000D01*
X110600000Y-72620000D02*
X110600000Y-71084000D01*
X110400000Y-76216000D02*
X110400000Y-74700000D01*
X110520000Y-76229000D02*
X110520000Y-74700000D01*
X109359000Y-72620000D02*
X109359000Y-71485000D01*
X109759000Y-72620000D02*
X109759000Y-71278000D01*
X109599000Y-72620000D02*
X109599000Y-71350000D01*
X110240000Y-76188000D02*
X110240000Y-74700000D01*
X108959000Y-72620000D02*
X108959000Y-71796000D01*
X108519000Y-74979000D02*
X108519000Y-72341000D01*
X108479000Y-74911000D02*
X108479000Y-72409000D01*
X109679000Y-76008000D02*
X109679000Y-74700000D01*
X109319000Y-72620000D02*
X109319000Y-71511000D01*
X109679000Y-72620000D02*
X109679000Y-71312000D01*
X109919000Y-76102000D02*
X109919000Y-74700000D01*
X108959000Y-75524000D02*
X108959000Y-74700000D01*
X109879000Y-76088000D02*
X109879000Y-74700000D01*
X108879000Y-72620000D02*
X108879000Y-71875000D01*
X109519000Y-75928000D02*
X109519000Y-74700000D01*
X109279000Y-75782000D02*
X109279000Y-74700000D01*
X109879000Y-72620000D02*
X109879000Y-71232000D01*
X110520000Y-72620000D02*
X110520000Y-71091000D01*
X108199000Y-74178000D02*
X108199000Y-73142000D01*
X110120000Y-72620000D02*
X110120000Y-71159000D01*
X109439000Y-75884000D02*
X109439000Y-74700000D01*
X109119000Y-75664000D02*
X109119000Y-74700000D01*
X110320000Y-72620000D02*
X110320000Y-71117000D01*
X109799000Y-76058000D02*
X109799000Y-74700000D01*
X110440000Y-76221000D02*
X110440000Y-74700000D01*
X109559000Y-75950000D02*
X109559000Y-74700000D01*
X110240000Y-72620000D02*
X110240000Y-71132000D01*
X110360000Y-76210000D02*
X110360000Y-74700000D01*
X108919000Y-72620000D02*
X108919000Y-71834000D01*
X109839000Y-76074000D02*
X109839000Y-74700000D01*
X109999000Y-76128000D02*
X109999000Y-74700000D01*
X109319000Y-75809000D02*
X109319000Y-74700000D01*
X110680000Y-72620000D02*
X110680000Y-71081000D01*
X108279000Y-74465000D02*
X108279000Y-72855000D01*
X110039000Y-76140000D02*
X110039000Y-74700000D01*
X110680000Y-76239000D02*
X110680000Y-74700000D01*
X110320000Y-76203000D02*
X110320000Y-74700000D01*
X109399000Y-72620000D02*
X109399000Y-71460000D01*
X108879000Y-75445000D02*
X108879000Y-74700000D01*
X110560000Y-76233000D02*
X110560000Y-74700000D01*
X109959000Y-76115000D02*
X109959000Y-74700000D01*
X109639000Y-72620000D02*
X109639000Y-71331000D01*
X110280000Y-72620000D02*
X110280000Y-71124000D01*
X108639000Y-75160000D02*
X108639000Y-72160000D01*
X110720000Y-72620000D02*
X110720000Y-71080000D01*
X110480000Y-72620000D02*
X110480000Y-71095000D01*
X108759000Y-75313000D02*
X108759000Y-74700000D01*
X109759000Y-76042000D02*
X109759000Y-74700000D01*
X108759000Y-72620000D02*
X108759000Y-72007000D01*
X110160000Y-72620000D02*
X110160000Y-71149000D01*
X108999000Y-72620000D02*
X108999000Y-71759000D01*
X110720000Y-76240000D02*
X110720000Y-74700000D01*
X109839000Y-72620000D02*
X109839000Y-71246000D01*
X109399000Y-75860000D02*
X109399000Y-74700000D01*
X110440000Y-72620000D02*
X110440000Y-71099000D01*
X110039000Y-72620000D02*
X110039000Y-71180000D01*
X109199000Y-75725000D02*
X109199000Y-74700000D01*
X109159000Y-75695000D02*
X109159000Y-74700000D01*
X110200000Y-76180000D02*
X110200000Y-74700000D01*
X109799000Y-72620000D02*
X109799000Y-71262000D01*
X109279000Y-72620000D02*
X109279000Y-71538000D01*
X109479000Y-72620000D02*
X109479000Y-71413000D01*
X109239000Y-75755000D02*
X109239000Y-74700000D01*
X109439000Y-72620000D02*
X109439000Y-71436000D01*
X113564775Y-75135000D02*
X113064775Y-75135000D01*
X109079000Y-75631000D02*
X109079000Y-74700000D01*
X109239000Y-72620000D02*
X109239000Y-71565000D01*
X108839000Y-75403000D02*
X108839000Y-74700000D01*
X110600000Y-76236000D02*
X110600000Y-74700000D01*
X110480000Y-76225000D02*
X110480000Y-74700000D01*
X110200000Y-72620000D02*
X110200000Y-71140000D01*
X113380000Y-73660000D02*
G75*
G03*
X113380000Y-73660000I-2620000J0D01*
G01*
D10*
%TO.C,J6*%
X163622500Y-19950000D02*
X163622500Y-27700000D01*
X163622500Y-34450000D02*
X151822500Y-34450000D01*
X163622500Y-32050000D02*
X163622500Y-34450000D01*
X160522500Y-16350000D02*
X154322500Y-16350000D01*
D11*
X151322500Y-25750000D02*
X150772500Y-25250000D01*
X150772500Y-26250000D02*
X151322500Y-25750000D01*
D10*
X160522500Y-19950000D02*
X160522500Y-16350000D01*
X151822500Y-34450000D02*
X151822500Y-34350000D01*
X151822500Y-19950000D02*
X163622500Y-19950000D01*
D11*
X150772500Y-25250000D02*
X150772500Y-26250000D01*
D10*
X154322500Y-16350000D02*
X154322500Y-19950000D01*
X151822500Y-31750000D02*
X151822500Y-28000000D01*
X151822500Y-23500000D02*
X151822500Y-19950000D01*
D11*
%TO.C,R17*%
X83820000Y-90400000D02*
X83820000Y-89630000D01*
X82450000Y-89630000D02*
X85190000Y-89630000D01*
X85190000Y-89630000D02*
X85190000Y-83090000D01*
X83820000Y-82320000D02*
X83820000Y-83090000D01*
X85190000Y-83090000D02*
X82450000Y-83090000D01*
X82450000Y-83090000D02*
X82450000Y-89630000D01*
%TO.C,R7*%
X58420000Y-90400000D02*
X58420000Y-89630000D01*
X57050000Y-89630000D02*
X59790000Y-89630000D01*
X58420000Y-82320000D02*
X58420000Y-83090000D01*
X59790000Y-89630000D02*
X59790000Y-83090000D01*
X57050000Y-83090000D02*
X57050000Y-89630000D01*
X59790000Y-83090000D02*
X57050000Y-83090000D01*
%TO.C,R3*%
X47090000Y-89630000D02*
X49830000Y-89630000D01*
X48460000Y-90400000D02*
X48460000Y-89630000D01*
X49830000Y-83090000D02*
X47090000Y-83090000D01*
X47090000Y-83090000D02*
X47090000Y-89630000D01*
X48460000Y-82320000D02*
X48460000Y-83090000D01*
X49830000Y-89630000D02*
X49830000Y-83090000D01*
%TO.C,R20*%
X90070000Y-89630000D02*
X92810000Y-89630000D01*
X92810000Y-83090000D02*
X90070000Y-83090000D01*
X92810000Y-89630000D02*
X92810000Y-83090000D01*
X91440000Y-82320000D02*
X91440000Y-83090000D01*
X91440000Y-90400000D02*
X91440000Y-89630000D01*
X90070000Y-83090000D02*
X90070000Y-89630000D01*
%TO.C,R16*%
X79910000Y-83090000D02*
X79910000Y-89630000D01*
X82650000Y-83090000D02*
X79910000Y-83090000D01*
X79910000Y-89630000D02*
X82650000Y-89630000D01*
X81280000Y-82320000D02*
X81280000Y-83090000D01*
X81280000Y-90400000D02*
X81280000Y-89630000D01*
X82650000Y-89630000D02*
X82650000Y-83090000D01*
%TO.C,D1*%
X97610000Y-69650000D02*
X103050000Y-69650000D01*
X103050000Y-72590000D02*
X103050000Y-72260000D01*
X97610000Y-72260000D02*
X97610000Y-72590000D01*
X103050000Y-69650000D02*
X103050000Y-69980000D01*
X97610000Y-69980000D02*
X97610000Y-69650000D01*
X98630000Y-69650000D02*
X98630000Y-72590000D01*
X97610000Y-72590000D02*
X103050000Y-72590000D01*
X98510000Y-69650000D02*
X98510000Y-72590000D01*
X98390000Y-69650000D02*
X98390000Y-72590000D01*
%TO.C,C4*%
X89521000Y-65120000D02*
X90779000Y-65120000D01*
X89521000Y-66960000D02*
X90779000Y-66960000D01*
%TO.C,R10*%
X64670000Y-89630000D02*
X67410000Y-89630000D01*
X66040000Y-82320000D02*
X66040000Y-83090000D01*
X67410000Y-89630000D02*
X67410000Y-83090000D01*
X67410000Y-83090000D02*
X64670000Y-83090000D01*
X64670000Y-83090000D02*
X64670000Y-89630000D01*
X66040000Y-90400000D02*
X66040000Y-89630000D01*
%TO.C,RV3*%
X77625000Y-56500000D02*
X79320000Y-56500000D01*
X63080000Y-56500000D02*
X63080000Y-45880000D01*
X67626000Y-56500000D02*
X69775000Y-56500000D01*
X63080000Y-56500000D02*
X64774000Y-56500000D01*
X72625000Y-56500000D02*
X74775000Y-56500000D01*
X79320000Y-56500000D02*
X79320000Y-45880000D01*
X79320000Y-45880000D02*
G75*
G03*
X79320000Y-45880000I-8120000J0D01*
G01*
%TO.C,C1*%
X116201000Y-72000000D02*
X117459000Y-72000000D01*
X116201000Y-70160000D02*
X117459000Y-70160000D01*
%TO.C,R15*%
X77370000Y-89630000D02*
X80110000Y-89630000D01*
X77370000Y-83090000D02*
X77370000Y-89630000D01*
X78740000Y-82320000D02*
X78740000Y-83090000D01*
X80110000Y-89630000D02*
X80110000Y-83090000D01*
X80110000Y-83090000D02*
X77370000Y-83090000D01*
X78740000Y-90400000D02*
X78740000Y-89630000D01*
%TO.C,R8*%
X62330000Y-89630000D02*
X62330000Y-83090000D01*
X59590000Y-83090000D02*
X59590000Y-89630000D01*
X60960000Y-90400000D02*
X60960000Y-89630000D01*
X60960000Y-82320000D02*
X60960000Y-83090000D01*
X62330000Y-83090000D02*
X59590000Y-83090000D01*
X59590000Y-89630000D02*
X62330000Y-89630000D01*
%TO.C,R9*%
X64870000Y-89630000D02*
X64870000Y-83090000D01*
X62130000Y-89630000D02*
X64870000Y-89630000D01*
X64870000Y-83090000D02*
X62130000Y-83090000D01*
X63500000Y-90400000D02*
X63500000Y-89630000D01*
X63500000Y-82320000D02*
X63500000Y-83090000D01*
X62130000Y-83090000D02*
X62130000Y-89630000D01*
%TO.C,C3*%
X131441000Y-69500000D02*
X132699000Y-69500000D01*
X131441000Y-67660000D02*
X132699000Y-67660000D01*
%TO.C,R43*%
X162560000Y-82320000D02*
X162560000Y-83090000D01*
X161190000Y-83090000D02*
X161190000Y-89630000D01*
X162560000Y-90400000D02*
X162560000Y-89630000D01*
X163930000Y-89630000D02*
X163930000Y-83090000D01*
X163930000Y-83090000D02*
X161190000Y-83090000D01*
X161190000Y-89630000D02*
X163930000Y-89630000D01*
%TO.C,RV6*%
X141125000Y-56500000D02*
X143275000Y-56500000D01*
X131580000Y-56500000D02*
X133274000Y-56500000D01*
X136126000Y-56500000D02*
X138275000Y-56500000D01*
X146125000Y-56500000D02*
X147820000Y-56500000D01*
X131580000Y-56500000D02*
X131580000Y-45880000D01*
X147820000Y-56500000D02*
X147820000Y-45880000D01*
X147820000Y-45880000D02*
G75*
G03*
X147820000Y-45880000I-8120000J0D01*
G01*
%TO.C,J7*%
X143570000Y-74990000D02*
X142240000Y-74990000D01*
X143570000Y-69790000D02*
X140910000Y-69790000D01*
X143570000Y-73660000D02*
X143570000Y-74990000D01*
X143570000Y-72390000D02*
X140910000Y-72390000D01*
X143570000Y-72390000D02*
X143570000Y-69790000D01*
X140910000Y-72390000D02*
X140910000Y-69790000D01*
%TO.C,C5*%
X111410000Y-41261000D02*
X111410000Y-42519000D01*
X109570000Y-41261000D02*
X109570000Y-42519000D01*
%TO.C,SW1*%
X117120000Y-50130000D02*
X117120000Y-41310000D01*
X121330000Y-41310000D02*
X121640000Y-41310000D01*
X121640000Y-50130000D02*
X121330000Y-50130000D01*
X122340000Y-43220000D02*
X121840000Y-43720000D01*
X121840000Y-43720000D02*
X122340000Y-44220000D01*
X121640000Y-41310000D02*
X121640000Y-50130000D01*
X117120000Y-50130000D02*
X117430000Y-50130000D01*
X122340000Y-44220000D02*
X122340000Y-43220000D01*
X117120000Y-41310000D02*
X117430000Y-41310000D01*
%TO.C,R25*%
X101600000Y-90400000D02*
X101600000Y-89630000D01*
X100230000Y-83090000D02*
X100230000Y-89630000D01*
X100230000Y-89630000D02*
X102970000Y-89630000D01*
X102970000Y-83090000D02*
X100230000Y-83090000D01*
X101600000Y-82320000D02*
X101600000Y-83090000D01*
X102970000Y-89630000D02*
X102970000Y-83090000D01*
%TO.C,C9*%
X136120000Y-29630000D02*
X132095000Y-29630000D01*
X136120000Y-30031000D02*
X132142000Y-30031000D01*
X141507000Y-31871000D02*
X132813000Y-31871000D01*
X140876000Y-32711000D02*
X133444000Y-32711000D01*
X141817000Y-31271000D02*
X138200000Y-31271000D01*
X141600000Y-31711000D02*
X132720000Y-31711000D01*
X136120000Y-30391000D02*
X132213000Y-30391000D01*
X136120000Y-30071000D02*
X132149000Y-30071000D01*
X142098000Y-30431000D02*
X138200000Y-30431000D01*
X142240000Y-29310000D02*
X132080000Y-29310000D01*
X140105000Y-33391000D02*
X134215000Y-33391000D01*
X140984000Y-32591000D02*
X133336000Y-32591000D01*
X142116000Y-30351000D02*
X138200000Y-30351000D01*
X141381000Y-32071000D02*
X132939000Y-32071000D01*
X141210000Y-32311000D02*
X133110000Y-32311000D01*
X139599000Y-33711000D02*
X134721000Y-33711000D01*
X142200000Y-29870000D02*
X138200000Y-29870000D01*
X137759000Y-34311000D02*
X136561000Y-34311000D01*
X136120000Y-30631000D02*
X132275000Y-30631000D01*
X142125000Y-30311000D02*
X138200000Y-30311000D01*
X142238000Y-29390000D02*
X132082000Y-29390000D01*
X140949000Y-32631000D02*
X133371000Y-32631000D01*
X136120000Y-31031000D02*
X132406000Y-31031000D01*
X140596000Y-32991000D02*
X133724000Y-32991000D01*
X140366000Y-33191000D02*
X133954000Y-33191000D01*
X140160000Y-33351000D02*
X134160000Y-33351000D01*
X136120000Y-29590000D02*
X132092000Y-29590000D01*
X142237000Y-29430000D02*
X132083000Y-29430000D01*
X139006000Y-33991000D02*
X135314000Y-33991000D01*
X142214000Y-29750000D02*
X138200000Y-29750000D01*
X142107000Y-30391000D02*
X138200000Y-30391000D01*
X136120000Y-30991000D02*
X132392000Y-30991000D01*
X142195000Y-29910000D02*
X138200000Y-29910000D01*
X142022000Y-30711000D02*
X138200000Y-30711000D01*
X136120000Y-29790000D02*
X132110000Y-29790000D01*
X142142000Y-30231000D02*
X138200000Y-30231000D01*
X139930000Y-33511000D02*
X134390000Y-33511000D01*
X142184000Y-29991000D02*
X138200000Y-29991000D01*
X141326000Y-32151000D02*
X132994000Y-32151000D01*
X142233000Y-29510000D02*
X138200000Y-29510000D01*
X140800000Y-32791000D02*
X133520000Y-32791000D01*
X141957000Y-30911000D02*
X138200000Y-30911000D01*
X141685000Y-31551000D02*
X132635000Y-31551000D01*
X136120000Y-31231000D02*
X132486000Y-31231000D01*
X141180000Y-32351000D02*
X133140000Y-32351000D01*
X140913000Y-32671000D02*
X133407000Y-32671000D01*
X136120000Y-30871000D02*
X132349000Y-30871000D01*
X140414000Y-33151000D02*
X133906000Y-33151000D01*
X142190000Y-29951000D02*
X138200000Y-29951000D01*
X141781000Y-31351000D02*
X138200000Y-31351000D01*
X136120000Y-31071000D02*
X132422000Y-31071000D01*
X141744000Y-31431000D02*
X138200000Y-31431000D01*
X139990000Y-33471000D02*
X134330000Y-33471000D01*
X139805000Y-33591000D02*
X134515000Y-33591000D01*
X141531000Y-31831000D02*
X132789000Y-31831000D01*
X136120000Y-31271000D02*
X132503000Y-31271000D01*
X139369000Y-33831000D02*
X134951000Y-33831000D01*
X142235000Y-29470000D02*
X138200000Y-29470000D01*
X139449000Y-33791000D02*
X134871000Y-33791000D01*
X141705000Y-31511000D02*
X138200000Y-31511000D01*
X136120000Y-30711000D02*
X132298000Y-30711000D01*
X141763000Y-31391000D02*
X138200000Y-31391000D01*
X141799000Y-31311000D02*
X138200000Y-31311000D01*
X136120000Y-31431000D02*
X132576000Y-31431000D01*
X142088000Y-30471000D02*
X138200000Y-30471000D01*
X138670000Y-34111000D02*
X135650000Y-34111000D01*
X141883000Y-31111000D02*
X138200000Y-31111000D01*
X142164000Y-30111000D02*
X138200000Y-30111000D01*
X136120000Y-30511000D02*
X132242000Y-30511000D01*
X142034000Y-30671000D02*
X138200000Y-30671000D01*
X136120000Y-30791000D02*
X132323000Y-30791000D01*
X142067000Y-30551000D02*
X138200000Y-30551000D01*
X139525000Y-33751000D02*
X134795000Y-33751000D01*
X141149000Y-32391000D02*
X133171000Y-32391000D01*
X136120000Y-29991000D02*
X132136000Y-29991000D01*
X142240000Y-29230000D02*
X132080000Y-29230000D01*
X141270000Y-32231000D02*
X133050000Y-32231000D01*
X141724000Y-31471000D02*
X138200000Y-31471000D01*
X142150000Y-30191000D02*
X138200000Y-30191000D01*
X141867000Y-31151000D02*
X138200000Y-31151000D01*
X138022000Y-34271000D02*
X136298000Y-34271000D01*
X139739000Y-33631000D02*
X134581000Y-33631000D01*
X136120000Y-31391000D02*
X132557000Y-31391000D01*
X136120000Y-29750000D02*
X132106000Y-29750000D01*
X140461000Y-33111000D02*
X133859000Y-33111000D01*
X136120000Y-30351000D02*
X132204000Y-30351000D01*
X141483000Y-31911000D02*
X132837000Y-31911000D01*
X141433000Y-31991000D02*
X132887000Y-31991000D01*
X140035000Y-23750354D02*
X140035000Y-24750354D01*
X136120000Y-30551000D02*
X132253000Y-30551000D01*
X138390000Y-34191000D02*
X135930000Y-34191000D01*
X138538000Y-34151000D02*
X135782000Y-34151000D01*
X142205000Y-29830000D02*
X138200000Y-29830000D01*
X142171000Y-30071000D02*
X138200000Y-30071000D01*
X136120000Y-29951000D02*
X132130000Y-29951000D01*
X139104000Y-33951000D02*
X135216000Y-33951000D01*
X138902000Y-34031000D02*
X135418000Y-34031000D01*
X141555000Y-31791000D02*
X132765000Y-31791000D01*
X140535000Y-24250354D02*
X139535000Y-24250354D01*
X140266000Y-33271000D02*
X134054000Y-33271000D01*
X136120000Y-31511000D02*
X132615000Y-31511000D01*
X136120000Y-30431000D02*
X132222000Y-30431000D01*
X140721000Y-32871000D02*
X133599000Y-32871000D01*
X136120000Y-30111000D02*
X132156000Y-30111000D01*
X142222000Y-29670000D02*
X138200000Y-29670000D01*
X140680000Y-32911000D02*
X133640000Y-32911000D01*
X139869000Y-33551000D02*
X134451000Y-33551000D01*
X141354000Y-32111000D02*
X132966000Y-32111000D01*
X142210000Y-29790000D02*
X138200000Y-29790000D01*
X142057000Y-30591000D02*
X138200000Y-30591000D01*
X142078000Y-30511000D02*
X138200000Y-30511000D01*
X138222000Y-34231000D02*
X136098000Y-34231000D01*
X140761000Y-32831000D02*
X133559000Y-32831000D01*
X136120000Y-29470000D02*
X132085000Y-29470000D01*
X140839000Y-32751000D02*
X133481000Y-32751000D01*
X141664000Y-31591000D02*
X132656000Y-31591000D01*
X136120000Y-29710000D02*
X132102000Y-29710000D01*
X140316000Y-33231000D02*
X134004000Y-33231000D01*
X136120000Y-30591000D02*
X132263000Y-30591000D01*
X141898000Y-31071000D02*
X138200000Y-31071000D01*
X141834000Y-31231000D02*
X138200000Y-31231000D01*
X139670000Y-33671000D02*
X134650000Y-33671000D01*
X136120000Y-30951000D02*
X132377000Y-30951000D01*
X142228000Y-29590000D02*
X138200000Y-29590000D01*
X141407000Y-32031000D02*
X132913000Y-32031000D01*
X142134000Y-30271000D02*
X138200000Y-30271000D01*
X142230000Y-29550000D02*
X138200000Y-29550000D01*
X136120000Y-29510000D02*
X132087000Y-29510000D01*
X141240000Y-32271000D02*
X133080000Y-32271000D01*
X141117000Y-32431000D02*
X133203000Y-32431000D01*
X142225000Y-29630000D02*
X138200000Y-29630000D01*
X136120000Y-30271000D02*
X132186000Y-30271000D01*
X140049000Y-33431000D02*
X134271000Y-33431000D01*
X141928000Y-30991000D02*
X138200000Y-30991000D01*
X141643000Y-31631000D02*
X132677000Y-31631000D01*
X141085000Y-32471000D02*
X133235000Y-32471000D01*
X142218000Y-29710000D02*
X138200000Y-29710000D01*
X136120000Y-29550000D02*
X132090000Y-29550000D01*
X136120000Y-29830000D02*
X132115000Y-29830000D01*
X140638000Y-32951000D02*
X133682000Y-32951000D01*
X136120000Y-31191000D02*
X132470000Y-31191000D01*
X142178000Y-30031000D02*
X138200000Y-30031000D01*
X142010000Y-30751000D02*
X138200000Y-30751000D01*
X141971000Y-30871000D02*
X138200000Y-30871000D01*
X136120000Y-29910000D02*
X132125000Y-29910000D01*
X136120000Y-30831000D02*
X132336000Y-30831000D01*
X142157000Y-30151000D02*
X138200000Y-30151000D01*
X136120000Y-30471000D02*
X132232000Y-30471000D01*
X141458000Y-31951000D02*
X132862000Y-31951000D01*
X140214000Y-33311000D02*
X134106000Y-33311000D01*
X136120000Y-31311000D02*
X132521000Y-31311000D01*
X141577000Y-31751000D02*
X132743000Y-31751000D01*
X136120000Y-30911000D02*
X132363000Y-30911000D01*
X136120000Y-31111000D02*
X132437000Y-31111000D01*
X142045000Y-30631000D02*
X138200000Y-30631000D01*
X139197000Y-33911000D02*
X135123000Y-33911000D01*
X136120000Y-29870000D02*
X132120000Y-29870000D01*
X141622000Y-31671000D02*
X132698000Y-31671000D01*
X136120000Y-30751000D02*
X132310000Y-30751000D01*
X141914000Y-31031000D02*
X138200000Y-31031000D01*
X136120000Y-30671000D02*
X132286000Y-30671000D01*
X136120000Y-31151000D02*
X132453000Y-31151000D01*
X141298000Y-32191000D02*
X133022000Y-32191000D01*
X141984000Y-30831000D02*
X138200000Y-30831000D01*
X141997000Y-30791000D02*
X138200000Y-30791000D01*
X141943000Y-30951000D02*
X138200000Y-30951000D01*
X142240000Y-29270000D02*
X132080000Y-29270000D01*
X141018000Y-32551000D02*
X133302000Y-32551000D01*
X136120000Y-30191000D02*
X132170000Y-30191000D01*
X142239000Y-29350000D02*
X132081000Y-29350000D01*
X136120000Y-31351000D02*
X132539000Y-31351000D01*
X140552000Y-33031000D02*
X133768000Y-33031000D01*
X139285000Y-33871000D02*
X135035000Y-33871000D01*
X136120000Y-30151000D02*
X132163000Y-30151000D01*
X141052000Y-32511000D02*
X133268000Y-32511000D01*
X140507000Y-33071000D02*
X133813000Y-33071000D01*
X141850000Y-31191000D02*
X138200000Y-31191000D01*
X136120000Y-29670000D02*
X132098000Y-29670000D01*
X136120000Y-30311000D02*
X132195000Y-30311000D01*
X136120000Y-31471000D02*
X132596000Y-31471000D01*
X138790000Y-34071000D02*
X135530000Y-34071000D01*
X136120000Y-30231000D02*
X132178000Y-30231000D01*
X142280000Y-29230000D02*
G75*
G03*
X142280000Y-29230000I-5120000J0D01*
G01*
%TO.C,RV1*%
X36985000Y-56500000D02*
X38680000Y-56500000D01*
X26986000Y-56500000D02*
X29135000Y-56500000D01*
X31985000Y-56500000D02*
X34135000Y-56500000D01*
X38680000Y-56500000D02*
X38680000Y-45880000D01*
X22440000Y-56500000D02*
X22440000Y-45880000D01*
X22440000Y-56500000D02*
X24134000Y-56500000D01*
X38680000Y-45880000D02*
G75*
G03*
X38680000Y-45880000I-8120000J0D01*
G01*
%TO.C,RV2*%
X57225000Y-56500000D02*
X58920000Y-56500000D01*
X42680000Y-56500000D02*
X44374000Y-56500000D01*
X52225000Y-56500000D02*
X54375000Y-56500000D01*
X58920000Y-56500000D02*
X58920000Y-45880000D01*
X47226000Y-56500000D02*
X49375000Y-56500000D01*
X42680000Y-56500000D02*
X42680000Y-45880000D01*
X58920000Y-45880000D02*
G75*
G03*
X58920000Y-45880000I-8120000J0D01*
G01*
%TO.C,R2*%
X41810000Y-89630000D02*
X44550000Y-89630000D01*
X44550000Y-83090000D02*
X41810000Y-83090000D01*
X43180000Y-90400000D02*
X43180000Y-89630000D01*
X44550000Y-89630000D02*
X44550000Y-83090000D01*
X43180000Y-82320000D02*
X43180000Y-83090000D01*
X41810000Y-83090000D02*
X41810000Y-89630000D01*
%TO.C,C6*%
X126379000Y-29560000D02*
X125121000Y-29560000D01*
X126379000Y-31400000D02*
X125121000Y-31400000D01*
%TO.C,R18*%
X86360000Y-82320000D02*
X86360000Y-83090000D01*
X86360000Y-90400000D02*
X86360000Y-89630000D01*
X87730000Y-83090000D02*
X84990000Y-83090000D01*
X87730000Y-89630000D02*
X87730000Y-83090000D01*
X84990000Y-89630000D02*
X87730000Y-89630000D01*
X84990000Y-83090000D02*
X84990000Y-89630000D01*
%TO.C,C12*%
X75579000Y-29560000D02*
X74321000Y-29560000D01*
X75579000Y-31400000D02*
X74321000Y-31400000D01*
D10*
%TO.C,J4*%
X170550000Y-74722500D02*
X162800000Y-74722500D01*
X156050000Y-74722500D02*
X156050000Y-62922500D01*
X174150000Y-65422500D02*
X170550000Y-65422500D01*
X156050000Y-62922500D02*
X156150000Y-62922500D01*
X170550000Y-62922500D02*
X170550000Y-74722500D01*
D11*
X164250000Y-61872500D02*
X164750000Y-62422500D01*
D10*
X170550000Y-71622500D02*
X174150000Y-71622500D01*
D11*
X164750000Y-62422500D02*
X165250000Y-61872500D01*
X165250000Y-61872500D02*
X164250000Y-61872500D01*
D10*
X158450000Y-74722500D02*
X156050000Y-74722500D01*
X158750000Y-62922500D02*
X162500000Y-62922500D01*
X167000000Y-62922500D02*
X170550000Y-62922500D01*
X174150000Y-71622500D02*
X174150000Y-65422500D01*
D11*
%TO.C,R29*%
X111760000Y-90400000D02*
X111760000Y-89630000D01*
X113130000Y-83090000D02*
X110390000Y-83090000D01*
X110390000Y-83090000D02*
X110390000Y-89630000D01*
X110390000Y-89630000D02*
X113130000Y-89630000D01*
X113130000Y-89630000D02*
X113130000Y-83090000D01*
X111760000Y-82320000D02*
X111760000Y-83090000D01*
%TO.C,R26*%
X105510000Y-83090000D02*
X102770000Y-83090000D01*
X104140000Y-82320000D02*
X104140000Y-83090000D01*
X102770000Y-89630000D02*
X105510000Y-89630000D01*
X105510000Y-89630000D02*
X105510000Y-83090000D01*
X104140000Y-90400000D02*
X104140000Y-89630000D01*
X102770000Y-83090000D02*
X102770000Y-89630000D01*
%TO.C,R34*%
X125830000Y-83090000D02*
X123090000Y-83090000D01*
X123090000Y-83090000D02*
X123090000Y-89630000D01*
X124460000Y-82320000D02*
X124460000Y-83090000D01*
X123090000Y-89630000D02*
X125830000Y-89630000D01*
X124460000Y-90400000D02*
X124460000Y-89630000D01*
X125830000Y-89630000D02*
X125830000Y-83090000D01*
%TO.C,R1*%
X42010000Y-83090000D02*
X39270000Y-83090000D01*
X40640000Y-90400000D02*
X40640000Y-89630000D01*
X39270000Y-89630000D02*
X42010000Y-89630000D01*
X39270000Y-83090000D02*
X39270000Y-89630000D01*
X40640000Y-82320000D02*
X40640000Y-83090000D01*
X42010000Y-89630000D02*
X42010000Y-83090000D01*
%TO.C,J8*%
X110490000Y-31810000D02*
X113090000Y-31810000D01*
X109220000Y-31810000D02*
X107890000Y-31810000D01*
X113090000Y-31810000D02*
X113090000Y-29150000D01*
X107890000Y-31810000D02*
X107890000Y-30480000D01*
X110490000Y-31810000D02*
X110490000Y-29150000D01*
X110490000Y-29150000D02*
X113090000Y-29150000D01*
%TO.C,C8*%
X146861000Y-34060000D02*
X146861000Y-35368000D01*
X146541000Y-34060000D02*
X146541000Y-35488000D01*
X146781000Y-34060000D02*
X146781000Y-35402000D01*
X147781000Y-34060000D02*
X147781000Y-34673000D01*
X147061000Y-34060000D02*
X147061000Y-35267000D01*
X146821000Y-30655000D02*
X146821000Y-31980000D01*
X148301000Y-32343000D02*
X148301000Y-33697000D01*
X147181000Y-30845000D02*
X147181000Y-31980000D01*
X146060000Y-34060000D02*
X146060000Y-35585000D01*
X147701000Y-34060000D02*
X147701000Y-34763000D01*
X146741000Y-30622000D02*
X146741000Y-31980000D01*
X146100000Y-34060000D02*
X146100000Y-35581000D01*
X147701000Y-31277000D02*
X147701000Y-31980000D01*
X146180000Y-30470000D02*
X146180000Y-31980000D01*
X146501000Y-30540000D02*
X146501000Y-31980000D01*
X147021000Y-30752000D02*
X147021000Y-31980000D01*
X146661000Y-30592000D02*
X146661000Y-31980000D01*
X147821000Y-31415000D02*
X147821000Y-34625000D01*
X146981000Y-30730000D02*
X146981000Y-31980000D01*
X146701000Y-34060000D02*
X146701000Y-35434000D01*
X147061000Y-30773000D02*
X147061000Y-31980000D01*
X146581000Y-30565000D02*
X146581000Y-31980000D01*
X147261000Y-34060000D02*
X147261000Y-35142000D01*
X147021000Y-34060000D02*
X147021000Y-35288000D01*
X148381000Y-32736000D02*
X148381000Y-33304000D01*
X146180000Y-34060000D02*
X146180000Y-35570000D01*
X147901000Y-31520000D02*
X147901000Y-34520000D01*
X146020000Y-34060000D02*
X146020000Y-35589000D01*
X148341000Y-32502000D02*
X148341000Y-33538000D01*
X145900000Y-30442000D02*
X145900000Y-31980000D01*
X145940000Y-34060000D02*
X145940000Y-35596000D01*
X146901000Y-34060000D02*
X146901000Y-35349000D01*
X147541000Y-34060000D02*
X147541000Y-34921000D01*
X146741000Y-34060000D02*
X146741000Y-35418000D01*
X146861000Y-30672000D02*
X146861000Y-31980000D01*
X146260000Y-34060000D02*
X146260000Y-35556000D01*
X147381000Y-34060000D02*
X147381000Y-35055000D01*
X146501000Y-34060000D02*
X146501000Y-35500000D01*
X143225225Y-31295000D02*
X143225225Y-31795000D01*
X146260000Y-30484000D02*
X146260000Y-31980000D01*
X146300000Y-30492000D02*
X146300000Y-31980000D01*
X147141000Y-30820000D02*
X147141000Y-31980000D01*
X145900000Y-34060000D02*
X145900000Y-35598000D01*
X146220000Y-34060000D02*
X146220000Y-35563000D01*
X147941000Y-31577000D02*
X147941000Y-34463000D01*
X146941000Y-30710000D02*
X146941000Y-31980000D01*
X147421000Y-31016000D02*
X147421000Y-31980000D01*
X147221000Y-30871000D02*
X147221000Y-31980000D01*
X146100000Y-30459000D02*
X146100000Y-31980000D01*
X147581000Y-31156000D02*
X147581000Y-31980000D01*
X146701000Y-30606000D02*
X146701000Y-31980000D01*
X146981000Y-34060000D02*
X146981000Y-35310000D01*
X145980000Y-34060000D02*
X145980000Y-35593000D01*
X146420000Y-34060000D02*
X146420000Y-35521000D01*
X147741000Y-34060000D02*
X147741000Y-34719000D01*
X148181000Y-32009000D02*
X148181000Y-34031000D01*
X146821000Y-34060000D02*
X146821000Y-35385000D01*
X147341000Y-34060000D02*
X147341000Y-35085000D01*
X147621000Y-34060000D02*
X147621000Y-34846000D01*
X146581000Y-34060000D02*
X146581000Y-35475000D01*
X147221000Y-34060000D02*
X147221000Y-35169000D01*
X148101000Y-31842000D02*
X148101000Y-34198000D01*
X146140000Y-30464000D02*
X146140000Y-31980000D01*
X148061000Y-31769000D02*
X148061000Y-34271000D01*
X145820000Y-34060000D02*
X145820000Y-35600000D01*
X147501000Y-34060000D02*
X147501000Y-34957000D01*
X147541000Y-31119000D02*
X147541000Y-31980000D01*
X147101000Y-34060000D02*
X147101000Y-35244000D01*
X147101000Y-30796000D02*
X147101000Y-31980000D01*
X146060000Y-30455000D02*
X146060000Y-31980000D01*
X147981000Y-31637000D02*
X147981000Y-34403000D01*
X145860000Y-30441000D02*
X145860000Y-31980000D01*
X146541000Y-30552000D02*
X146541000Y-31980000D01*
X146340000Y-30500000D02*
X146340000Y-31980000D01*
X147501000Y-31083000D02*
X147501000Y-31980000D01*
X147261000Y-30898000D02*
X147261000Y-31980000D01*
X142975225Y-31545000D02*
X143475225Y-31545000D01*
X146020000Y-30451000D02*
X146020000Y-31980000D01*
X147141000Y-34060000D02*
X147141000Y-35220000D01*
X147181000Y-34060000D02*
X147181000Y-35195000D01*
X145820000Y-30440000D02*
X145820000Y-31980000D01*
X146901000Y-30691000D02*
X146901000Y-31980000D01*
X146420000Y-30519000D02*
X146420000Y-31980000D01*
X147661000Y-31235000D02*
X147661000Y-31980000D01*
X147461000Y-31049000D02*
X147461000Y-31980000D01*
X145860000Y-34060000D02*
X145860000Y-35599000D01*
X146661000Y-34060000D02*
X146661000Y-35448000D01*
X146941000Y-34060000D02*
X146941000Y-35330000D01*
X148221000Y-32105000D02*
X148221000Y-33935000D01*
X147301000Y-34060000D02*
X147301000Y-35115000D01*
X146140000Y-34060000D02*
X146140000Y-35576000D01*
X147781000Y-31367000D02*
X147781000Y-31980000D01*
X145780000Y-30440000D02*
X145780000Y-31980000D01*
X148261000Y-32215000D02*
X148261000Y-33825000D01*
X147341000Y-30955000D02*
X147341000Y-31980000D01*
X146380000Y-30509000D02*
X146380000Y-31980000D01*
X147861000Y-31466000D02*
X147861000Y-34574000D01*
X147621000Y-31194000D02*
X147621000Y-31980000D01*
X146621000Y-34060000D02*
X146621000Y-35462000D01*
X145980000Y-30447000D02*
X145980000Y-31980000D01*
X146300000Y-34060000D02*
X146300000Y-35548000D01*
X146460000Y-34060000D02*
X146460000Y-35511000D01*
X146621000Y-30578000D02*
X146621000Y-31980000D01*
X147581000Y-34060000D02*
X147581000Y-34884000D01*
X145940000Y-30444000D02*
X145940000Y-31980000D01*
X147381000Y-30985000D02*
X147381000Y-31980000D01*
X146340000Y-34060000D02*
X146340000Y-35540000D01*
X145780000Y-34060000D02*
X145780000Y-35600000D01*
X146781000Y-30638000D02*
X146781000Y-31980000D01*
X146220000Y-30477000D02*
X146220000Y-31980000D01*
X146380000Y-34060000D02*
X146380000Y-35531000D01*
X146460000Y-30529000D02*
X146460000Y-31980000D01*
X147301000Y-30925000D02*
X147301000Y-31980000D01*
X147421000Y-34060000D02*
X147421000Y-35024000D01*
X147461000Y-34060000D02*
X147461000Y-34991000D01*
X147661000Y-34060000D02*
X147661000Y-34805000D01*
X148141000Y-31922000D02*
X148141000Y-34118000D01*
X148021000Y-31701000D02*
X148021000Y-34339000D01*
X147741000Y-31321000D02*
X147741000Y-31980000D01*
X148400000Y-33020000D02*
G75*
G03*
X148400000Y-33020000I-2620000J0D01*
G01*
%TO.C,R14*%
X74830000Y-89630000D02*
X77570000Y-89630000D01*
X77570000Y-83090000D02*
X74830000Y-83090000D01*
X76200000Y-82320000D02*
X76200000Y-83090000D01*
X76200000Y-90400000D02*
X76200000Y-89630000D01*
X74830000Y-83090000D02*
X74830000Y-89630000D01*
X77570000Y-89630000D02*
X77570000Y-83090000D01*
%TO.C,R24*%
X100430000Y-89630000D02*
X100430000Y-83090000D01*
X97690000Y-89630000D02*
X100430000Y-89630000D01*
X99060000Y-90400000D02*
X99060000Y-89630000D01*
X99060000Y-82320000D02*
X99060000Y-83090000D01*
X100430000Y-83090000D02*
X97690000Y-83090000D01*
X97690000Y-83090000D02*
X97690000Y-89630000D01*
%TO.C,R49*%
X141070000Y-66770000D02*
X141070000Y-60230000D01*
X138330000Y-60230000D02*
X138330000Y-66770000D01*
X141070000Y-60230000D02*
X138330000Y-60230000D01*
X139700000Y-67540000D02*
X139700000Y-66770000D01*
X138330000Y-66770000D02*
X141070000Y-66770000D01*
X139700000Y-59460000D02*
X139700000Y-60230000D01*
%TO.C,R28*%
X107850000Y-83090000D02*
X107850000Y-89630000D01*
X110590000Y-83090000D02*
X107850000Y-83090000D01*
X109220000Y-90400000D02*
X109220000Y-89630000D01*
X109220000Y-82320000D02*
X109220000Y-83090000D01*
X110590000Y-89630000D02*
X110590000Y-83090000D01*
X107850000Y-89630000D02*
X110590000Y-89630000D01*
%TO.C,R32*%
X120750000Y-89630000D02*
X120750000Y-83090000D01*
X120750000Y-83090000D02*
X118010000Y-83090000D01*
X119380000Y-82320000D02*
X119380000Y-83090000D01*
X119380000Y-90400000D02*
X119380000Y-89630000D01*
X118010000Y-89630000D02*
X120750000Y-89630000D01*
X118010000Y-83090000D02*
X118010000Y-89630000D01*
%TO.C,R39*%
X137160000Y-90400000D02*
X137160000Y-89630000D01*
X138530000Y-89630000D02*
X138530000Y-83090000D01*
X135790000Y-89630000D02*
X138530000Y-89630000D01*
X138530000Y-83090000D02*
X135790000Y-83090000D01*
X137160000Y-82320000D02*
X137160000Y-83090000D01*
X135790000Y-83090000D02*
X135790000Y-89630000D01*
%TO.C,J1*%
X153730000Y-74870000D02*
X153730000Y-76200000D01*
X152400000Y-74870000D02*
X153730000Y-74870000D01*
X148530000Y-74870000D02*
X148530000Y-77530000D01*
X151130000Y-74870000D02*
X148530000Y-74870000D01*
X151130000Y-77530000D02*
X148530000Y-77530000D01*
X151130000Y-74870000D02*
X151130000Y-77530000D01*
%TO.C,RV4*%
X44469000Y-74781000D02*
G75*
G03*
X48352030Y-76389358I3790998J3660994D01*
G01*
X43086000Y-70114000D02*
G75*
G03*
X43145610Y-72394881I5174022J-1005998D01*
G01*
X53373999Y-69846000D02*
G75*
G03*
X44223379Y-67731526I-5113999J-1274000D01*
G01*
X48260000Y-76390000D02*
G75*
G03*
X53299726Y-72660799I1J5269999D01*
G01*
%TO.C,J5*%
X146050000Y-24070000D02*
X143450000Y-24070000D01*
X148650000Y-24070000D02*
X148650000Y-25400000D01*
X143450000Y-24070000D02*
X143450000Y-26730000D01*
X147320000Y-24070000D02*
X148650000Y-24070000D01*
X146050000Y-24070000D02*
X146050000Y-26730000D01*
X146050000Y-26730000D02*
X143450000Y-26730000D01*
%TO.C,C2*%
X131441000Y-70200000D02*
X132699000Y-70200000D01*
X131441000Y-72040000D02*
X132699000Y-72040000D01*
%TO.C,R35*%
X125630000Y-89630000D02*
X128370000Y-89630000D01*
X127000000Y-82320000D02*
X127000000Y-83090000D01*
X127000000Y-90400000D02*
X127000000Y-89630000D01*
X128370000Y-83090000D02*
X125630000Y-83090000D01*
X128370000Y-89630000D02*
X128370000Y-83090000D01*
X125630000Y-83090000D02*
X125630000Y-89630000D01*
%TO.C,R31*%
X115470000Y-83090000D02*
X115470000Y-89630000D01*
X116840000Y-90400000D02*
X116840000Y-89630000D01*
X115470000Y-89630000D02*
X118210000Y-89630000D01*
X118210000Y-83090000D02*
X115470000Y-83090000D01*
X116840000Y-82320000D02*
X116840000Y-83090000D01*
X118210000Y-89630000D02*
X118210000Y-83090000D01*
%TO.C,R23*%
X120430000Y-74930000D02*
X121200000Y-74930000D01*
X127740000Y-73560000D02*
X121200000Y-73560000D01*
X127740000Y-76300000D02*
X127740000Y-73560000D01*
X128510000Y-74930000D02*
X127740000Y-74930000D01*
X121200000Y-76300000D02*
X127740000Y-76300000D01*
X121200000Y-73560000D02*
X121200000Y-76300000D01*
%TO.C,R37*%
X133450000Y-83090000D02*
X130710000Y-83090000D01*
X130710000Y-83090000D02*
X130710000Y-89630000D01*
X130710000Y-89630000D02*
X133450000Y-89630000D01*
X132080000Y-82320000D02*
X132080000Y-83090000D01*
X132080000Y-90400000D02*
X132080000Y-89630000D01*
X133450000Y-89630000D02*
X133450000Y-83090000D01*
%TO.C,R4*%
X49630000Y-83090000D02*
X49630000Y-89630000D01*
X49630000Y-89630000D02*
X52370000Y-89630000D01*
X52370000Y-89630000D02*
X52370000Y-83090000D01*
X52370000Y-83090000D02*
X49630000Y-83090000D01*
X51000000Y-90400000D02*
X51000000Y-89630000D01*
X51000000Y-82320000D02*
X51000000Y-83090000D01*
%TO.C,R44*%
X97560000Y-73660000D02*
X98330000Y-73660000D01*
X104870000Y-75030000D02*
X104870000Y-72290000D01*
X98330000Y-72290000D02*
X98330000Y-75030000D01*
X105640000Y-73660000D02*
X104870000Y-73660000D01*
X104870000Y-72290000D02*
X98330000Y-72290000D01*
X98330000Y-75030000D02*
X104870000Y-75030000D01*
%TO.C,U1*%
X127120000Y-62170000D02*
X125470000Y-62170000D01*
X121820000Y-72450000D02*
X127120000Y-72450000D01*
X127120000Y-72450000D02*
X127120000Y-62170000D01*
X121820000Y-62170000D02*
X121820000Y-72450000D01*
X123470000Y-62170000D02*
X121820000Y-62170000D01*
X123470000Y-62170000D02*
G75*
G03*
X125470000Y-62170000I1000000J0D01*
G01*
%TO.C,R45*%
X67850000Y-31650000D02*
X67850000Y-34390000D01*
X67080000Y-33020000D02*
X67850000Y-33020000D01*
X67850000Y-34390000D02*
X74390000Y-34390000D01*
X74390000Y-31650000D02*
X67850000Y-31650000D01*
X74390000Y-34390000D02*
X74390000Y-31650000D01*
X75160000Y-33020000D02*
X74390000Y-33020000D01*
%TO.C,C11*%
X82458000Y-63011000D02*
X80102000Y-63011000D01*
X81564000Y-63291000D02*
X80996000Y-63291000D01*
X80240000Y-62051000D02*
X79080000Y-62051000D01*
X80240000Y-61531000D02*
X78838000Y-61531000D01*
X83023000Y-62611000D02*
X82320000Y-62611000D01*
X80240000Y-61491000D02*
X78825000Y-61491000D01*
X80240000Y-61411000D02*
X78800000Y-61411000D01*
X83645000Y-61731000D02*
X82320000Y-61731000D01*
X83402000Y-62171000D02*
X82320000Y-62171000D01*
X83662000Y-61691000D02*
X82320000Y-61691000D01*
X80240000Y-61691000D02*
X78898000Y-61691000D01*
X83836000Y-61050000D02*
X82320000Y-61050000D01*
X82085000Y-63171000D02*
X80475000Y-63171000D01*
X82195000Y-63131000D02*
X80365000Y-63131000D01*
X80240000Y-62691000D02*
X79627000Y-62691000D01*
X80240000Y-62091000D02*
X79105000Y-62091000D01*
X83845000Y-60970000D02*
X82320000Y-60970000D01*
X83005000Y-58135225D02*
X82505000Y-58135225D01*
X82755000Y-57885225D02*
X82755000Y-58385225D01*
X83106000Y-62531000D02*
X82320000Y-62531000D01*
X80240000Y-62251000D02*
X79215000Y-62251000D01*
X83548000Y-61931000D02*
X82320000Y-61931000D01*
X83841000Y-61010000D02*
X82320000Y-61010000D01*
X83284000Y-62331000D02*
X82320000Y-62331000D01*
X80240000Y-60810000D02*
X78702000Y-60810000D01*
X80240000Y-61891000D02*
X78990000Y-61891000D01*
X82834000Y-62771000D02*
X79726000Y-62771000D01*
X80240000Y-61571000D02*
X78852000Y-61571000D01*
X83628000Y-61771000D02*
X82320000Y-61771000D01*
X83375000Y-62211000D02*
X82320000Y-62211000D01*
X80240000Y-61090000D02*
X78730000Y-61090000D01*
X80240000Y-61971000D02*
X79033000Y-61971000D01*
X80240000Y-60850000D02*
X78704000Y-60850000D01*
X82933000Y-62691000D02*
X82320000Y-62691000D01*
X83830000Y-61090000D02*
X82320000Y-61090000D01*
X80240000Y-61931000D02*
X79012000Y-61931000D01*
X83791000Y-61290000D02*
X82320000Y-61290000D01*
X80240000Y-60770000D02*
X78701000Y-60770000D01*
X83856000Y-60850000D02*
X82320000Y-60850000D01*
X83860000Y-60690000D02*
X82320000Y-60690000D01*
X83735000Y-61491000D02*
X82320000Y-61491000D01*
X80240000Y-61731000D02*
X78915000Y-61731000D01*
X83748000Y-61451000D02*
X82320000Y-61451000D01*
X83808000Y-61210000D02*
X82320000Y-61210000D01*
X82378000Y-63051000D02*
X80182000Y-63051000D01*
X83771000Y-61370000D02*
X82320000Y-61370000D01*
X83760000Y-61411000D02*
X82320000Y-61411000D01*
X80240000Y-62451000D02*
X79379000Y-62451000D01*
X80240000Y-61771000D02*
X78932000Y-61771000D01*
X80240000Y-61290000D02*
X78769000Y-61290000D01*
X80240000Y-62211000D02*
X79185000Y-62211000D01*
X83858000Y-60810000D02*
X82320000Y-60810000D01*
X83251000Y-62371000D02*
X82320000Y-62371000D01*
X81957000Y-63211000D02*
X80603000Y-63211000D01*
X83345000Y-62251000D02*
X82320000Y-62251000D01*
X83527000Y-61971000D02*
X82320000Y-61971000D01*
X80240000Y-60890000D02*
X78707000Y-60890000D01*
X80240000Y-61130000D02*
X78737000Y-61130000D01*
X80240000Y-61250000D02*
X78760000Y-61250000D01*
X80240000Y-62491000D02*
X79416000Y-62491000D01*
X80240000Y-60730000D02*
X78700000Y-60730000D01*
X83722000Y-61531000D02*
X82320000Y-61531000D01*
X83678000Y-61651000D02*
X82320000Y-61651000D01*
X80240000Y-62611000D02*
X79537000Y-62611000D01*
X80240000Y-61370000D02*
X78789000Y-61370000D01*
X83823000Y-61130000D02*
X82320000Y-61130000D01*
X82531000Y-62971000D02*
X80029000Y-62971000D01*
X80240000Y-62171000D02*
X79158000Y-62171000D01*
X81798000Y-63251000D02*
X80762000Y-63251000D01*
X80240000Y-61451000D02*
X78812000Y-61451000D01*
X82663000Y-62891000D02*
X79897000Y-62891000D01*
X83694000Y-61611000D02*
X82320000Y-61611000D01*
X83590000Y-61851000D02*
X82320000Y-61851000D01*
X80240000Y-62571000D02*
X79495000Y-62571000D01*
X80240000Y-60970000D02*
X78715000Y-60970000D01*
X80240000Y-62011000D02*
X79056000Y-62011000D01*
X83480000Y-62051000D02*
X82320000Y-62051000D01*
X80240000Y-61210000D02*
X78752000Y-61210000D01*
X80240000Y-61651000D02*
X78882000Y-61651000D01*
X83181000Y-62451000D02*
X82320000Y-62451000D01*
X83429000Y-62131000D02*
X82320000Y-62131000D01*
X83609000Y-61811000D02*
X82320000Y-61811000D01*
X83315000Y-62291000D02*
X82320000Y-62291000D01*
X82291000Y-63091000D02*
X80269000Y-63091000D01*
X83853000Y-60890000D02*
X82320000Y-60890000D01*
X83065000Y-62571000D02*
X82320000Y-62571000D01*
X83860000Y-60730000D02*
X82320000Y-60730000D01*
X83504000Y-62011000D02*
X82320000Y-62011000D01*
X83800000Y-61250000D02*
X82320000Y-61250000D01*
X80240000Y-62131000D02*
X79131000Y-62131000D01*
X82599000Y-62931000D02*
X79961000Y-62931000D01*
X80240000Y-62371000D02*
X79309000Y-62371000D01*
X80240000Y-60690000D02*
X78700000Y-60690000D01*
X80240000Y-61851000D02*
X78970000Y-61851000D01*
X83781000Y-61330000D02*
X82320000Y-61330000D01*
X80240000Y-60930000D02*
X78711000Y-60930000D01*
X80240000Y-61170000D02*
X78744000Y-61170000D01*
X83849000Y-60930000D02*
X82320000Y-60930000D01*
X80240000Y-62651000D02*
X79581000Y-62651000D01*
X82885000Y-62731000D02*
X79675000Y-62731000D01*
X82979000Y-62651000D02*
X82320000Y-62651000D01*
X80240000Y-62411000D02*
X79343000Y-62411000D01*
X80240000Y-61611000D02*
X78866000Y-61611000D01*
X83816000Y-61170000D02*
X82320000Y-61170000D01*
X80240000Y-62331000D02*
X79276000Y-62331000D01*
X80240000Y-62291000D02*
X79245000Y-62291000D01*
X82780000Y-62811000D02*
X79780000Y-62811000D01*
X80240000Y-62531000D02*
X79454000Y-62531000D01*
X83859000Y-60770000D02*
X82320000Y-60770000D01*
X80240000Y-61330000D02*
X78779000Y-61330000D01*
X80240000Y-61010000D02*
X78719000Y-61010000D01*
X80240000Y-61050000D02*
X78724000Y-61050000D01*
X82723000Y-62851000D02*
X79837000Y-62851000D01*
X80240000Y-61811000D02*
X78951000Y-61811000D01*
X83217000Y-62411000D02*
X82320000Y-62411000D01*
X83570000Y-61891000D02*
X82320000Y-61891000D01*
X83144000Y-62491000D02*
X82320000Y-62491000D01*
X83455000Y-62091000D02*
X82320000Y-62091000D01*
X83708000Y-61571000D02*
X82320000Y-61571000D01*
X83900000Y-60690000D02*
G75*
G03*
X83900000Y-60690000I-2620000J0D01*
G01*
D12*
%TO.C,U2*%
X94870000Y-64890000D02*
X96020000Y-66040000D01*
X105200000Y-57360000D02*
X105200000Y-55710000D01*
X105200000Y-55710000D02*
X103550000Y-55710000D01*
X94870000Y-57360000D02*
X94870000Y-55710000D01*
X94870000Y-55710000D02*
X96520000Y-55710000D01*
X105200000Y-64390000D02*
X105200000Y-66040000D01*
X94870000Y-64390000D02*
X94870000Y-64890000D01*
X105200000Y-66040000D02*
X103550000Y-66040000D01*
X96020000Y-66040000D02*
X96520000Y-66040000D01*
D11*
X85475016Y-69455954D02*
X107564984Y-69455954D01*
X107564984Y-69455954D02*
X107564984Y-52464046D01*
X107564984Y-52464046D02*
X85475016Y-52464046D01*
X85475016Y-52464046D02*
X85475016Y-69455954D01*
%TO.C,R19*%
X88900000Y-90400000D02*
X88900000Y-89630000D01*
X88900000Y-82320000D02*
X88900000Y-83090000D01*
X87530000Y-83090000D02*
X87530000Y-89630000D01*
X90270000Y-83090000D02*
X87530000Y-83090000D01*
X90270000Y-89630000D02*
X90270000Y-83090000D01*
X87530000Y-89630000D02*
X90270000Y-89630000D01*
%TO.C,R40*%
X141070000Y-83090000D02*
X138330000Y-83090000D01*
X139700000Y-82320000D02*
X139700000Y-83090000D01*
X138330000Y-89630000D02*
X141070000Y-89630000D01*
X138330000Y-83090000D02*
X138330000Y-89630000D01*
X141070000Y-89630000D02*
X141070000Y-83090000D01*
X139700000Y-90400000D02*
X139700000Y-89630000D01*
%TO.C,J9*%
X141030000Y-69790000D02*
X138370000Y-69790000D01*
X138370000Y-72390000D02*
X138370000Y-69790000D01*
X141030000Y-72390000D02*
X141030000Y-69790000D01*
X141030000Y-74990000D02*
X139700000Y-74990000D01*
X141030000Y-72390000D02*
X138370000Y-72390000D01*
X141030000Y-73660000D02*
X141030000Y-74990000D01*
%TO.C,R30*%
X112930000Y-89630000D02*
X115670000Y-89630000D01*
X114300000Y-82320000D02*
X114300000Y-83090000D01*
X112930000Y-83090000D02*
X112930000Y-89630000D01*
X114300000Y-90400000D02*
X114300000Y-89630000D01*
X115670000Y-83090000D02*
X112930000Y-83090000D01*
X115670000Y-89630000D02*
X115670000Y-83090000D01*
%TD*%
M02*
