%TF.GenerationSoftware,KiCad,Pcbnew,(6.0.2)*%
%TF.CreationDate,2022-03-12T15:20:26+01:00*%
%TF.ProjectId,hardware,68617264-7761-4726-952e-6b696361645f,rev?*%
%TF.SameCoordinates,Original*%
%TF.FileFunction,Copper,L1,Top*%
%TF.FilePolarity,Positive*%
%FSLAX46Y46*%
G04 Gerber Fmt 4.6, Leading zero omitted, Abs format (unit mm)*
G04 Created by KiCad (PCBNEW (6.0.2)) date 2022-03-12 15:20:26*
%MOMM*%
%LPD*%
G01*
G04 APERTURE LIST*
G04 Aperture macros list*
%AMFreePoly0*
4,1,8,5.329152,14.575350,7.775791,12.140177,9.586970,12.140177,9.586970,-1.985799,-1.767270,-1.985799,-1.767270,28.149653,5.329152,28.149653,5.329152,14.575350,5.329152,14.575350,$1*%
%AMFreePoly1*
4,1,16,3.684809,-0.274624,3.684810,-0.274625,3.620300,-0.338833,3.620300,-0.348088,3.620301,-0.348089,1.727993,-2.231542,1.727993,-2.231543,-2.056797,-2.231543,-2.056798,-2.231544,-3.949177,-0.348090,-3.949178,-0.348090,-3.949178,12.836189,-3.884669,12.836189,-3.884669,12.909653,3.684809,12.909653,3.684809,-0.274624,3.684809,-0.274624,$1*%
%AMFreePoly2*
4,1,11,4.929624,14.575350,7.376221,12.140177,9.187460,12.140177,9.187460,-1.985799,-2.166777,-1.985799,-2.166777,12.140177,-0.355638,12.140177,2.091062,14.575351,2.091062,28.149653,4.929624,28.149653,4.929624,14.575350,4.929624,14.575350,$1*%
%AMFreePoly3*
4,1,11,3.285301,-0.274626,3.285300,-0.274626,1.392896,-2.158078,1.392896,-2.158079,-2.391817,-2.158079,-2.391817,-2.158078,-4.284225,-0.274626,-4.284226,-0.274626,-4.284226,12.909653,3.285301,12.909653,3.285301,-0.274626,3.285301,-0.274626,$1*%
%AMFreePoly4*
4,1,12,4.530013,28.149651,4.530015,14.575350,6.976719,12.140177,8.787854,12.140177,8.787854,-1.985799,-2.566385,-1.985799,-2.566385,12.140177,-0.755144,12.140177,1.691451,14.575350,1.691451,28.149653,4.530013,28.149653,4.530013,28.149651,4.530013,28.149651,$1*%
%AMFreePoly5*
4,1,11,2.885796,-0.274626,2.885795,-0.274626,0.993390,-2.158078,0.993390,-2.158079,-2.791427,-2.158079,-2.791428,-2.158080,-4.683735,-0.274626,-4.683736,-0.274626,-4.683736,12.909653,2.885796,12.909653,2.885796,-0.274626,2.885796,-0.274626,$1*%
%AMFreePoly6*
4,1,8,8.388345,-1.985799,-2.965893,-1.985799,-2.965893,12.140177,-1.154651,12.140177,1.291946,14.575351,1.291946,28.149653,8.388345,28.149653,8.388345,-1.985799,8.388345,-1.985799,$1*%
%AMFreePoly7*
4,1,8,3.731001,14.575350,6.177595,12.140177,7.988837,12.140177,7.988837,-1.985799,-3.365501,-1.985799,-3.365501,28.149653,3.731001,28.149653,3.731001,14.575350,3.731001,14.575350,$1*%
%AMFreePoly8*
4,1,11,4.626680,-0.274626,4.626679,-0.274626,2.734265,-2.158078,2.734265,-2.158079,-1.050446,-2.158079,-1.050446,-2.158078,-2.942848,-0.274626,-2.942849,-0.274626,-2.942849,12.909653,4.626680,12.909653,4.626680,-0.274626,4.626680,-0.274626,$1*%
%AMFreePoly9*
4,1,11,3.331393,14.575350,5.778087,12.140177,7.589236,12.140177,7.589236,-1.985799,-3.765010,-1.985799,-3.765010,12.140177,-1.953768,12.140177,0.492829,14.575351,0.492829,28.149653,3.331393,28.149653,3.331393,14.575350,3.331393,14.575350,$1*%
%AMFreePoly10*
4,1,11,4.227064,-0.274626,4.227063,-0.274626,2.334768,-2.158078,2.334768,-2.158079,-1.450052,-2.158079,-1.450053,-2.158080,-3.342357,-0.274626,-3.342358,-0.274626,-3.342358,12.909653,4.227064,12.909653,4.227064,-0.274626,4.227064,-0.274626,$1*%
%AMFreePoly11*
4,1,8,7.189705,-1.985799,-4.164522,-1.985799,-4.164522,12.140177,-2.353372,12.140177,0.093313,14.575350,0.093313,28.149653,7.189712,28.149653,7.189705,-1.985799,7.189705,-1.985799,$1*%
%AMFreePoly12*
4,1,8,5.072269,14.575350,7.518954,12.140177,9.330204,12.140177,9.330204,-1.985799,-2.024145,-1.985799,-2.024145,28.149653,5.072269,28.149653,5.072269,14.575350,5.072269,14.575350,$1*%
%AMFreePoly13*
4,1,11,5.967940,-0.274624,5.967941,-0.274625,4.075629,-2.158078,4.075629,-2.158079,0.290930,-2.158079,0.290929,-2.158080,-1.601481,-0.274626,-1.601482,-0.274626,-1.601482,12.909653,5.967940,12.909653,5.967940,-0.274624,5.967940,-0.274624,$1*%
%AMFreePoly14*
4,1,12,4.672959,28.149651,4.672967,14.575350,7.118950,12.140177,8.931107,12.140177,8.931107,-1.985799,-2.423647,-1.985799,-2.423647,12.140177,-0.612404,12.140177,1.834197,14.575350,1.834197,28.149653,4.672959,28.149653,4.672959,28.149651,4.672959,28.149651,$1*%
%AMFreePoly15*
4,1,11,5.568233,-0.274624,5.568234,-0.274625,3.675716,-2.158078,3.675716,-2.158079,-0.108290,-2.158079,-0.108290,-2.158078,-2.000776,-0.274626,-2.000777,-0.274626,-2.000777,12.909653,5.568233,12.909653,5.568233,-0.274624,5.568233,-0.274624,$1*%
%AMFreePoly16*
4,1,11,4.273252,14.575350,6.720249,12.140177,8.531400,12.140177,8.531400,-1.985799,-2.823651,-1.985799,-2.823651,12.140177,-1.011501,12.140177,1.434482,14.575350,1.434482,28.149653,4.273252,28.149653,4.273252,14.575350,4.273252,14.575350,$1*%
%AMFreePoly17*
4,1,11,5.168534,-0.274626,5.168533,-0.274626,3.277024,-2.158078,3.277024,-2.158079,-0.507988,-2.158079,-0.507989,-2.158080,-2.400506,-0.274626,-2.400507,-0.274626,-2.400507,12.909653,5.168534,12.909653,5.168534,-0.274626,5.168534,-0.274626,$1*%
%AMFreePoly18*
4,1,8,8.131693,-1.985799,-3.222359,-1.985799,-3.222359,12.140177,-1.411208,12.140177,1.034782,14.575350,1.034782,28.149653,8.131693,28.149653,8.131693,-1.985799,8.131693,-1.985799,$1*%
%AMFreePoly19*
4,1,5,10.271971,-1.985799,-1.082066,-1.985799,-1.082066,28.149653,10.271971,28.149653,10.271971,-1.985799,10.271971,-1.985799,$1*%
G04 Aperture macros list end*
%TA.AperFunction,ComponentPad*%
%ADD10C,1.600000*%
%TD*%
%TA.AperFunction,ComponentPad*%
%ADD11O,1.600000X1.600000*%
%TD*%
%TA.AperFunction,ComponentPad*%
%ADD12R,2.032000X2.032000*%
%TD*%
%TA.AperFunction,ComponentPad*%
%ADD13C,2.032000*%
%TD*%
%TA.AperFunction,ComponentPad*%
%ADD14R,1.600000X1.600000*%
%TD*%
%TA.AperFunction,ComponentPad*%
%ADD15R,1.700000X1.700000*%
%TD*%
%TA.AperFunction,ComponentPad*%
%ADD16O,1.700000X1.700000*%
%TD*%
%TA.AperFunction,ComponentPad*%
%ADD17C,4.000000*%
%TD*%
%TA.AperFunction,ComponentPad*%
%ADD18C,2.340000*%
%TD*%
%TA.AperFunction,ComponentPad*%
%ADD19O,2.200000X4.000000*%
%TD*%
%TA.AperFunction,ComponentPad*%
%ADD20O,4.000000X2.200000*%
%TD*%
%TA.AperFunction,ComponentPad*%
%ADD21R,2.200000X4.000000*%
%TD*%
%TA.AperFunction,ComponentPad*%
%ADD22R,1.800000X1.800000*%
%TD*%
%TA.AperFunction,ComponentPad*%
%ADD23O,1.800000X1.800000*%
%TD*%
%TA.AperFunction,ComponentPad*%
%ADD24O,3.500000X2.200000*%
%TD*%
%TA.AperFunction,ComponentPad*%
%ADD25R,2.500000X1.500000*%
%TD*%
%TA.AperFunction,ComponentPad*%
%ADD26O,2.500000X1.500000*%
%TD*%
%TA.AperFunction,ComponentPad*%
%ADD27R,4.000000X2.200000*%
%TD*%
%TA.AperFunction,SMDPad,CuDef*%
%ADD28FreePoly0,0.000000*%
%TD*%
%TA.AperFunction,SMDPad,CuDef*%
%ADD29FreePoly1,0.000000*%
%TD*%
%TA.AperFunction,SMDPad,CuDef*%
%ADD30FreePoly2,0.000000*%
%TD*%
%TA.AperFunction,SMDPad,CuDef*%
%ADD31FreePoly3,0.000000*%
%TD*%
%TA.AperFunction,SMDPad,CuDef*%
%ADD32FreePoly4,0.000000*%
%TD*%
%TA.AperFunction,SMDPad,CuDef*%
%ADD33FreePoly5,0.000000*%
%TD*%
%TA.AperFunction,SMDPad,CuDef*%
%ADD34FreePoly6,0.000000*%
%TD*%
%TA.AperFunction,SMDPad,CuDef*%
%ADD35FreePoly7,0.000000*%
%TD*%
%TA.AperFunction,SMDPad,CuDef*%
%ADD36FreePoly8,0.000000*%
%TD*%
%TA.AperFunction,SMDPad,CuDef*%
%ADD37FreePoly9,0.000000*%
%TD*%
%TA.AperFunction,SMDPad,CuDef*%
%ADD38FreePoly10,0.000000*%
%TD*%
%TA.AperFunction,SMDPad,CuDef*%
%ADD39FreePoly11,0.000000*%
%TD*%
%TA.AperFunction,SMDPad,CuDef*%
%ADD40FreePoly12,0.000000*%
%TD*%
%TA.AperFunction,SMDPad,CuDef*%
%ADD41FreePoly13,0.000000*%
%TD*%
%TA.AperFunction,SMDPad,CuDef*%
%ADD42FreePoly14,0.000000*%
%TD*%
%TA.AperFunction,SMDPad,CuDef*%
%ADD43FreePoly15,0.000000*%
%TD*%
%TA.AperFunction,SMDPad,CuDef*%
%ADD44FreePoly16,0.000000*%
%TD*%
%TA.AperFunction,SMDPad,CuDef*%
%ADD45FreePoly17,0.000000*%
%TD*%
%TA.AperFunction,SMDPad,CuDef*%
%ADD46FreePoly18,0.000000*%
%TD*%
%TA.AperFunction,SMDPad,CuDef*%
%ADD47FreePoly19,0.000000*%
%TD*%
%TA.AperFunction,ComponentPad*%
%ADD48R,1.524000X1.524000*%
%TD*%
%TA.AperFunction,ComponentPad*%
%ADD49C,1.524000*%
%TD*%
%TA.AperFunction,ViaPad*%
%ADD50C,0.800000*%
%TD*%
%TA.AperFunction,Conductor*%
%ADD51C,0.250000*%
%TD*%
G04 APERTURE END LIST*
D10*
%TO.P,R48,1*%
%TO.N,Net-(R47-Pad2)*%
X144780000Y-58420000D03*
D11*
%TO.P,R48,2*%
%TO.N,Net-(J8-Pad1)*%
X144780000Y-68580000D03*
%TD*%
D10*
%TO.P,R27,1*%
%TO.N,Net-(R26-Pad2)*%
X106680000Y-81280000D03*
D11*
%TO.P,R27,2*%
%TO.N,PAD_F4*%
X106680000Y-91440000D03*
%TD*%
D10*
%TO.P,R12,1*%
%TO.N,Net-(R11-Pad2)*%
X71120000Y-81280000D03*
D11*
%TO.P,R12,2*%
%TO.N,PAD_A#3*%
X71120000Y-91440000D03*
%TD*%
D10*
%TO.P,R42,1*%
%TO.N,PAD_C5*%
X160020000Y-81280000D03*
D11*
%TO.P,R42,2*%
%TO.N,Net-(R42-Pad2)*%
X160020000Y-91440000D03*
%TD*%
D10*
%TO.P,R47,1*%
%TO.N,Net-(J7-Pad2)*%
X142240000Y-68580000D03*
D11*
%TO.P,R47,2*%
%TO.N,Net-(R47-Pad2)*%
X142240000Y-58420000D03*
%TD*%
D10*
%TO.P,R50,1*%
%TO.N,Net-(R49-Pad2)*%
X137160000Y-58420000D03*
D11*
%TO.P,R50,2*%
%TO.N,Net-(J8-Pad1)*%
X137160000Y-68580000D03*
%TD*%
D10*
%TO.P,R33,1*%
%TO.N,Net-(R32-Pad2)*%
X121920000Y-81280000D03*
D11*
%TO.P,R33,2*%
%TO.N,PAD_G#4*%
X121920000Y-91440000D03*
%TD*%
D10*
%TO.P,R36,1*%
%TO.N,PAD_A4*%
X129540000Y-81280000D03*
D11*
%TO.P,R36,2*%
%TO.N,Net-(R36-Pad2)*%
X129540000Y-91440000D03*
%TD*%
D10*
%TO.P,R21,1*%
%TO.N,PAD_D4*%
X93980000Y-81280000D03*
D11*
%TO.P,R21,2*%
%TO.N,Net-(R21-Pad2)*%
X93980000Y-91440000D03*
%TD*%
D10*
%TO.P,R5,1*%
%TO.N,PAD_F#3*%
X53340000Y-81280000D03*
D11*
%TO.P,R5,2*%
%TO.N,Net-(R5-Pad2)*%
X53340000Y-91440000D03*
%TD*%
D10*
%TO.P,R13,1*%
%TO.N,PAD_A#3*%
X73660000Y-81280000D03*
D11*
%TO.P,R13,2*%
%TO.N,Net-(R13-Pad2)*%
X73660000Y-91440000D03*
%TD*%
D10*
%TO.P,R11,1*%
%TO.N,PAD_A3*%
X68580000Y-81280000D03*
D11*
%TO.P,R11,2*%
%TO.N,Net-(R11-Pad2)*%
X68580000Y-91440000D03*
%TD*%
D10*
%TO.P,R22,1*%
%TO.N,Net-(R21-Pad2)*%
X96520000Y-81280000D03*
D11*
%TO.P,R22,2*%
%TO.N,PAD_D#4*%
X96520000Y-91440000D03*
%TD*%
D10*
%TO.P,R38,1*%
%TO.N,PAD_A#4*%
X134620000Y-81280000D03*
D11*
%TO.P,R38,2*%
%TO.N,Net-(R38-Pad2)*%
X134620000Y-91440000D03*
%TD*%
D12*
%TO.P,BAR1,1,A*%
%TO.N,VCC*%
X106680000Y-42017500D03*
D13*
%TO.P,BAR1,2,A*%
X104140000Y-42017500D03*
%TO.P,BAR1,3,A*%
X101600000Y-42017500D03*
%TO.P,BAR1,4,A*%
X99060000Y-42017500D03*
%TO.P,BAR1,5,A*%
X96520000Y-42017500D03*
%TO.P,BAR1,6,A*%
X93980000Y-42017500D03*
%TO.P,BAR1,7,A*%
X91440000Y-42017500D03*
%TO.P,BAR1,8,A*%
X88900000Y-42017500D03*
%TO.P,BAR1,9,A*%
X86360000Y-42017500D03*
%TO.P,BAR1,10,A*%
X83820000Y-42017500D03*
%TO.P,BAR1,11,K*%
%TO.N,Net-(BAR1-Pad11)*%
X83820000Y-49637500D03*
%TO.P,BAR1,12,K*%
%TO.N,Net-(BAR1-Pad12)*%
X86360000Y-49637500D03*
%TO.P,BAR1,13,K*%
%TO.N,Net-(BAR1-Pad13)*%
X88900000Y-49637500D03*
%TO.P,BAR1,14,K*%
%TO.N,Net-(BAR1-Pad14)*%
X91440000Y-49637500D03*
%TO.P,BAR1,15,K*%
%TO.N,Net-(BAR1-Pad15)*%
X93980000Y-49637500D03*
%TO.P,BAR1,16,K*%
%TO.N,Net-(BAR1-Pad16)*%
X96520000Y-49637500D03*
%TO.P,BAR1,17,K*%
%TO.N,Net-(BAR1-Pad17)*%
X99060000Y-49637500D03*
%TO.P,BAR1,18,K*%
%TO.N,Net-(BAR1-Pad18)*%
X101600000Y-49637500D03*
%TO.P,BAR1,19,K*%
%TO.N,Net-(BAR1-Pad19)*%
X104140000Y-49637500D03*
%TO.P,BAR1,20,K*%
%TO.N,Net-(BAR1-Pad20)*%
X106680000Y-49637500D03*
%TD*%
D10*
%TO.P,R41,1*%
%TO.N,Net-(R40-Pad2)*%
X142240000Y-81280000D03*
D11*
%TO.P,R41,2*%
%TO.N,PAD_C5*%
X142240000Y-91440000D03*
%TD*%
D10*
%TO.P,R46,1*%
%TO.N,Net-(A1-Pad12)*%
X119390000Y-59690000D03*
D11*
%TO.P,R46,2*%
%TO.N,KB_IN*%
X129550000Y-59690000D03*
%TD*%
D14*
%TO.P,C10,1*%
%TO.N,D_SYNTH*%
X86360000Y-33020000D03*
D10*
%TO.P,C10,2*%
%TO.N,Net-(C10-Pad2)*%
X83860000Y-33020000D03*
%TD*%
D15*
%TO.P,J2,1,Pin_1*%
%TO.N,Net-(J2-Pad1)*%
X118120000Y-68580000D03*
D16*
%TO.P,J2,2,Pin_2*%
%TO.N,A_SYNTH*%
X115580000Y-68580000D03*
%TD*%
D14*
%TO.P,J3,1,VBUS*%
%TO.N,Net-(J3-Pad1)*%
X36850000Y-32187500D03*
D10*
%TO.P,J3,2,D-*%
%TO.N,unconnected-(J3-Pad2)*%
X39350000Y-32187500D03*
%TO.P,J3,3,D+*%
%TO.N,unconnected-(J3-Pad3)*%
X39350000Y-30187500D03*
%TO.P,J3,4,GND*%
%TO.N,GND*%
X36850000Y-30187500D03*
D17*
%TO.P,J3,5,Shield*%
X44100000Y-27327500D03*
X32100000Y-27327500D03*
%TD*%
D10*
%TO.P,R6,1*%
%TO.N,Net-(R5-Pad2)*%
X55880000Y-81280000D03*
D11*
%TO.P,R6,2*%
%TO.N,PAD_G3*%
X55880000Y-91440000D03*
%TD*%
D18*
%TO.P,RV5,1,1*%
%TO.N,unconnected-(RV5-Pad1)*%
X165020000Y-55880000D03*
%TO.P,RV5,2,2*%
%TO.N,Net-(RV5-Pad2)*%
X160020000Y-55880000D03*
%TO.P,RV5,3,3*%
%TO.N,Net-(RV5-Pad3)*%
X155020000Y-55880000D03*
%TD*%
D14*
%TO.P,U3,1,GAIN*%
%TO.N,Net-(RV5-Pad2)*%
X114300000Y-25400000D03*
D11*
%TO.P,U3,2,-*%
%TO.N,GND*%
X114300000Y-27940000D03*
%TO.P,U3,3,+*%
%TO.N,PRE_AMP*%
X114300000Y-30480000D03*
%TO.P,U3,4,GND*%
%TO.N,GND*%
X114300000Y-33020000D03*
%TO.P,U3,5*%
%TO.N,Net-(C8-Pad1)*%
X121920000Y-33020000D03*
%TO.P,U3,6,V+*%
%TO.N,VCC*%
X121920000Y-30480000D03*
%TO.P,U3,7,BYPASS*%
%TO.N,unconnected-(U3-Pad7)*%
X121920000Y-27940000D03*
%TO.P,U3,8,GAIN*%
%TO.N,Net-(RV5-Pad3)*%
X121920000Y-25400000D03*
%TD*%
D14*
%TO.P,C7,1*%
%TO.N,Net-(C7-Pad1)*%
X111760000Y-73660000D03*
D10*
%TO.P,C7,2*%
%TO.N,GND*%
X109760000Y-73660000D03*
%TD*%
D19*
%TO.P,J6,R*%
%TO.N,N/C*%
X162622500Y-29850000D03*
%TO.P,J6,RN*%
X159922500Y-28650000D03*
D20*
%TO.P,J6,S*%
%TO.N,GND*%
X157422500Y-21850000D03*
D21*
%TO.P,J6,T*%
%TO.N,Net-(C8-Pad2)*%
X152822500Y-25750000D03*
D20*
%TO.P,J6,TN*%
%TO.N,N/C*%
X153322500Y-33050000D03*
%TD*%
D10*
%TO.P,R17,1*%
%TO.N,PAD_C4*%
X83820000Y-81280000D03*
D11*
%TO.P,R17,2*%
%TO.N,Net-(R17-Pad2)*%
X83820000Y-91440000D03*
%TD*%
D10*
%TO.P,R7,1*%
%TO.N,PAD_G3*%
X58420000Y-81280000D03*
D11*
%TO.P,R7,2*%
%TO.N,Net-(R7-Pad2)*%
X58420000Y-91440000D03*
%TD*%
D10*
%TO.P,R3,1*%
%TO.N,PAD_F3*%
X48460000Y-81280000D03*
D11*
%TO.P,R3,2*%
%TO.N,Net-(R3-Pad2)*%
X48460000Y-91440000D03*
%TD*%
D10*
%TO.P,R20,1*%
%TO.N,Net-(R19-Pad2)*%
X91440000Y-81280000D03*
D11*
%TO.P,R20,2*%
%TO.N,PAD_D4*%
X91440000Y-91440000D03*
%TD*%
D10*
%TO.P,R16,1*%
%TO.N,Net-(R15-Pad2)*%
X81280000Y-81280000D03*
D11*
%TO.P,R16,2*%
%TO.N,PAD_C4*%
X81280000Y-91440000D03*
%TD*%
D22*
%TO.P,D1,1,K*%
%TO.N,Net-(C7-Pad1)*%
X96520000Y-71120000D03*
D23*
%TO.P,D1,2,A*%
%TO.N,AUDIO_OUT*%
X104140000Y-71120000D03*
%TD*%
D10*
%TO.P,C4,1*%
%TO.N,GND*%
X88900000Y-66040000D03*
%TO.P,C4,2*%
%TO.N,VCC*%
X91400000Y-66040000D03*
%TD*%
%TO.P,R10,1*%
%TO.N,Net-(R10-Pad1)*%
X66040000Y-81280000D03*
D11*
%TO.P,R10,2*%
%TO.N,PAD_A3*%
X66040000Y-91440000D03*
%TD*%
D18*
%TO.P,RV3,1,1*%
%TO.N,VCC*%
X76200000Y-55880000D03*
%TO.P,RV3,2,2*%
%TO.N,POT_WAV*%
X71200000Y-55880000D03*
%TO.P,RV3,3,3*%
%TO.N,GND*%
X66200000Y-55880000D03*
%TD*%
D10*
%TO.P,C1,1*%
%TO.N,GND*%
X115580000Y-71080000D03*
%TO.P,C1,2*%
%TO.N,VCC*%
X118080000Y-71080000D03*
%TD*%
%TO.P,R15,1*%
%TO.N,PAD_B3*%
X78740000Y-81280000D03*
D11*
%TO.P,R15,2*%
%TO.N,Net-(R15-Pad2)*%
X78740000Y-91440000D03*
%TD*%
D10*
%TO.P,R8,1*%
%TO.N,Net-(R7-Pad2)*%
X60960000Y-81280000D03*
D11*
%TO.P,R8,2*%
%TO.N,PAD_G#3*%
X60960000Y-91440000D03*
%TD*%
D10*
%TO.P,R9,1*%
%TO.N,PAD_G#3*%
X63500000Y-81280000D03*
D11*
%TO.P,R9,2*%
%TO.N,Net-(R10-Pad1)*%
X63500000Y-91440000D03*
%TD*%
D10*
%TO.P,C3,1*%
%TO.N,Net-(C3-Pad1)*%
X130820000Y-68580000D03*
%TO.P,C3,2*%
%TO.N,GND*%
X133320000Y-68580000D03*
%TD*%
%TO.P,R43,1*%
%TO.N,Net-(R42-Pad2)*%
X162560000Y-81280000D03*
D11*
%TO.P,R43,2*%
%TO.N,GND*%
X162560000Y-91440000D03*
%TD*%
D18*
%TO.P,RV6,1,1*%
%TO.N,Net-(R47-Pad2)*%
X144700000Y-55880000D03*
%TO.P,RV6,2,2*%
%TO.N,GND*%
X139700000Y-55880000D03*
%TO.P,RV6,3,3*%
%TO.N,Net-(R49-Pad2)*%
X134700000Y-55880000D03*
%TD*%
D15*
%TO.P,J7,1,Pin_1*%
%TO.N,D_SYNTH*%
X142240000Y-73660000D03*
D16*
%TO.P,J7,2,Pin_2*%
%TO.N,Net-(J7-Pad2)*%
X142240000Y-71120000D03*
%TD*%
D10*
%TO.P,C5,1*%
%TO.N,GND*%
X110490000Y-40640000D03*
%TO.P,C5,2*%
%TO.N,VCC*%
X110490000Y-43140000D03*
%TD*%
D24*
%TO.P,SW1,*%
%TO.N,*%
X119380000Y-49820000D03*
X119380000Y-41620000D03*
D25*
%TO.P,SW1,1,A*%
%TO.N,Net-(J3-Pad1)*%
X119380000Y-43720000D03*
D26*
%TO.P,SW1,2,B*%
%TO.N,VCC*%
X119380000Y-45720000D03*
%TO.P,SW1,3*%
%TO.N,N/C*%
X119380000Y-47720000D03*
%TD*%
D10*
%TO.P,R25,1*%
%TO.N,Net-(R24-Pad2)*%
X101600000Y-81280000D03*
D11*
%TO.P,R25,2*%
%TO.N,PAD_E4*%
X101600000Y-91440000D03*
%TD*%
D14*
%TO.P,C9,1*%
%TO.N,Net-(C8-Pad1)*%
X137160000Y-27980000D03*
D10*
%TO.P,C9,2*%
%TO.N,GND*%
X137160000Y-30480000D03*
%TD*%
D18*
%TO.P,RV1,1,1*%
%TO.N,VCC*%
X35560000Y-55880000D03*
%TO.P,RV1,2,2*%
%TO.N,POT_ATK*%
X30560000Y-55880000D03*
%TO.P,RV1,3,3*%
%TO.N,GND*%
X25560000Y-55880000D03*
%TD*%
%TO.P,RV2,1,1*%
%TO.N,VCC*%
X55800000Y-55880000D03*
%TO.P,RV2,2,2*%
%TO.N,POT_REL*%
X50800000Y-55880000D03*
%TO.P,RV2,3,3*%
%TO.N,GND*%
X45800000Y-55880000D03*
%TD*%
D10*
%TO.P,R2,1*%
%TO.N,Net-(R1-Pad2)*%
X43180000Y-81280000D03*
D11*
%TO.P,R2,2*%
%TO.N,PAD_F3*%
X43180000Y-91440000D03*
%TD*%
D10*
%TO.P,C6,1*%
%TO.N,GND*%
X127000000Y-30480000D03*
%TO.P,C6,2*%
%TO.N,VCC*%
X124500000Y-30480000D03*
%TD*%
%TO.P,R18,1*%
%TO.N,Net-(R17-Pad2)*%
X86360000Y-81280000D03*
D11*
%TO.P,R18,2*%
%TO.N,PAD_C#4*%
X86360000Y-91440000D03*
%TD*%
D10*
%TO.P,C12,1*%
%TO.N,Net-(C10-Pad2)*%
X76200000Y-30480000D03*
%TO.P,C12,2*%
%TO.N,GND*%
X73700000Y-30480000D03*
%TD*%
D20*
%TO.P,J4,R*%
%TO.N,N/C*%
X160650000Y-73722500D03*
%TO.P,J4,RN*%
X161850000Y-71022500D03*
D19*
%TO.P,J4,S*%
%TO.N,KB_IN*%
X168650000Y-68522500D03*
D27*
%TO.P,J4,T*%
X164750000Y-63922500D03*
D19*
%TO.P,J4,TN*%
%TO.N,N/C*%
X157450000Y-64422500D03*
%TD*%
D10*
%TO.P,R29,1*%
%TO.N,Net-(R28-Pad2)*%
X111760000Y-81280000D03*
D11*
%TO.P,R29,2*%
%TO.N,PAD_F#4*%
X111760000Y-91440000D03*
%TD*%
D10*
%TO.P,R26,1*%
%TO.N,PAD_E4*%
X104140000Y-81280000D03*
D11*
%TO.P,R26,2*%
%TO.N,Net-(R26-Pad2)*%
X104140000Y-91440000D03*
%TD*%
D10*
%TO.P,R34,1*%
%TO.N,PAD_G#4*%
X124460000Y-81280000D03*
D11*
%TO.P,R34,2*%
%TO.N,Net-(R34-Pad2)*%
X124460000Y-91440000D03*
%TD*%
D10*
%TO.P,R1,1*%
%TO.N,VCC*%
X40640000Y-81280000D03*
D11*
%TO.P,R1,2*%
%TO.N,Net-(R1-Pad2)*%
X40640000Y-91440000D03*
%TD*%
D15*
%TO.P,J8,1,Pin_1*%
%TO.N,Net-(J8-Pad1)*%
X109220000Y-30480000D03*
D16*
%TO.P,J8,2,Pin_2*%
%TO.N,PRE_AMP*%
X111760000Y-30480000D03*
%TD*%
D14*
%TO.P,C8,1*%
%TO.N,Net-(C8-Pad1)*%
X144780000Y-33020000D03*
D10*
%TO.P,C8,2*%
%TO.N,Net-(C8-Pad2)*%
X146780000Y-33020000D03*
%TD*%
%TO.P,R14,1*%
%TO.N,Net-(R13-Pad2)*%
X76200000Y-81280000D03*
D11*
%TO.P,R14,2*%
%TO.N,PAD_B3*%
X76200000Y-91440000D03*
%TD*%
D10*
%TO.P,R24,1*%
%TO.N,PAD_D#4*%
X99060000Y-81280000D03*
D11*
%TO.P,R24,2*%
%TO.N,Net-(R24-Pad2)*%
X99060000Y-91440000D03*
%TD*%
D10*
%TO.P,R49,1*%
%TO.N,Net-(J9-Pad2)*%
X139700000Y-68580000D03*
D11*
%TO.P,R49,2*%
%TO.N,Net-(R49-Pad2)*%
X139700000Y-58420000D03*
%TD*%
D28*
%TO.P,KB1,1,F3*%
%TO.N,PAD_F3*%
X23913447Y-124386744D03*
D29*
%TO.P,KB1,2,F#3*%
%TO.N,PAD_F#3*%
X34073447Y-109146744D03*
D30*
%TO.P,KB1,3,G3*%
%TO.N,PAD_G3*%
X36613447Y-124386744D03*
D31*
%TO.P,KB1,4,G#3*%
%TO.N,PAD_G#3*%
X46773447Y-109146744D03*
D32*
%TO.P,KB1,5,A3*%
%TO.N,PAD_A3*%
X49313447Y-124386744D03*
D33*
%TO.P,KB1,6,A#3*%
%TO.N,PAD_A#3*%
X59473447Y-109146744D03*
D34*
%TO.P,KB1,7,B3*%
%TO.N,PAD_B3*%
X62013447Y-124386744D03*
D35*
%TO.P,KB1,8,C4*%
%TO.N,PAD_C4*%
X74713447Y-124386744D03*
D36*
%TO.P,KB1,9,C#4*%
%TO.N,PAD_C#4*%
X82333447Y-109146744D03*
D37*
%TO.P,KB1,10,D4*%
%TO.N,PAD_D4*%
X87413447Y-124386744D03*
D38*
%TO.P,KB1,11,D#4*%
%TO.N,PAD_D#4*%
X95033447Y-109146744D03*
D39*
%TO.P,KB1,12,E4*%
%TO.N,PAD_E4*%
X100113447Y-124386744D03*
D40*
%TO.P,KB1,13,F4*%
%TO.N,PAD_F4*%
X110273447Y-124386744D03*
D41*
%TO.P,KB1,14,F#4*%
%TO.N,PAD_F#4*%
X117893447Y-109146744D03*
D42*
%TO.P,KB1,15,G4*%
%TO.N,PAD_G4*%
X122973447Y-124386744D03*
D43*
%TO.P,KB1,16,G#4*%
%TO.N,PAD_G#4*%
X130593447Y-109146744D03*
D44*
%TO.P,KB1,17,A4*%
%TO.N,PAD_A4*%
X135673447Y-124386744D03*
D45*
%TO.P,KB1,18,A#4*%
%TO.N,PAD_A#4*%
X143293447Y-109146744D03*
D46*
%TO.P,KB1,19,B4*%
%TO.N,PAD_B4*%
X148373447Y-124386744D03*
D47*
%TO.P,KB1,20,C5*%
%TO.N,PAD_C5*%
X158533447Y-124386744D03*
%TD*%
D10*
%TO.P,R28,1*%
%TO.N,PAD_F4*%
X109220000Y-81280000D03*
D11*
%TO.P,R28,2*%
%TO.N,Net-(R28-Pad2)*%
X109220000Y-91440000D03*
%TD*%
D10*
%TO.P,R32,1*%
%TO.N,PAD_G4*%
X119380000Y-81280000D03*
D11*
%TO.P,R32,2*%
%TO.N,Net-(R32-Pad2)*%
X119380000Y-91440000D03*
%TD*%
D10*
%TO.P,R39,1*%
%TO.N,Net-(R38-Pad2)*%
X137160000Y-81280000D03*
D11*
%TO.P,R39,2*%
%TO.N,PAD_B4*%
X137160000Y-91440000D03*
%TD*%
D15*
%TO.P,J1,1,Pin_1*%
%TO.N,KB_IN*%
X152400000Y-76200000D03*
D16*
%TO.P,J1,2,Pin_2*%
%TO.N,Net-(C2-Pad1)*%
X149860000Y-76200000D03*
%TD*%
D18*
%TO.P,RV4,1,1*%
%TO.N,Net-(RV4-Pad1)*%
X43260000Y-73770000D03*
%TO.P,RV4,2,2*%
%TO.N,Net-(RV4-Pad2)*%
X53260000Y-71270000D03*
%TO.P,RV4,3,3*%
%TO.N,GND*%
X43260000Y-68770000D03*
%TD*%
D15*
%TO.P,J5,1,Pin_1*%
%TO.N,Net-(C8-Pad2)*%
X147320000Y-25400000D03*
D16*
%TO.P,J5,2,Pin_2*%
%TO.N,AUDIO_OUT*%
X144780000Y-25400000D03*
%TD*%
D10*
%TO.P,C2,1*%
%TO.N,Net-(C2-Pad1)*%
X130820000Y-71120000D03*
%TO.P,C2,2*%
%TO.N,GND*%
X133320000Y-71120000D03*
%TD*%
%TO.P,R35,1*%
%TO.N,Net-(R34-Pad2)*%
X127000000Y-81280000D03*
D11*
%TO.P,R35,2*%
%TO.N,PAD_A4*%
X127000000Y-91440000D03*
%TD*%
D10*
%TO.P,R31,1*%
%TO.N,Net-(R30-Pad2)*%
X116840000Y-81280000D03*
D11*
%TO.P,R31,2*%
%TO.N,PAD_G4*%
X116840000Y-91440000D03*
%TD*%
D10*
%TO.P,R23,1*%
%TO.N,Net-(J2-Pad1)*%
X119390000Y-74930000D03*
D11*
%TO.P,R23,2*%
%TO.N,Net-(C3-Pad1)*%
X129550000Y-74930000D03*
%TD*%
D10*
%TO.P,R37,1*%
%TO.N,Net-(R36-Pad2)*%
X132080000Y-81280000D03*
D11*
%TO.P,R37,2*%
%TO.N,PAD_A#4*%
X132080000Y-91440000D03*
%TD*%
D10*
%TO.P,R4,1*%
%TO.N,Net-(R3-Pad2)*%
X51000000Y-81280000D03*
D11*
%TO.P,R4,2*%
%TO.N,PAD_F#3*%
X51000000Y-91440000D03*
%TD*%
D10*
%TO.P,R44,1*%
%TO.N,Net-(C7-Pad1)*%
X96520000Y-73660000D03*
D11*
%TO.P,R44,2*%
%TO.N,GND*%
X106680000Y-73660000D03*
%TD*%
D14*
%TO.P,U1,1,GND*%
%TO.N,GND*%
X120660000Y-63500000D03*
D11*
%TO.P,U1,2,TR*%
%TO.N,Net-(C3-Pad1)*%
X120660000Y-66040000D03*
%TO.P,U1,3,Q*%
%TO.N,Net-(J2-Pad1)*%
X120660000Y-68580000D03*
%TO.P,U1,4,R*%
%TO.N,VCC*%
X120660000Y-71120000D03*
%TO.P,U1,5,CV*%
%TO.N,Net-(C2-Pad1)*%
X128280000Y-71120000D03*
%TO.P,U1,6,THR*%
%TO.N,Net-(C3-Pad1)*%
X128280000Y-68580000D03*
%TO.P,U1,7,DIS*%
%TO.N,unconnected-(U1-Pad7)*%
X128280000Y-66040000D03*
%TO.P,U1,8,VCC*%
%TO.N,VCC*%
X128280000Y-63500000D03*
%TD*%
D10*
%TO.P,R45,1*%
%TO.N,Net-(C10-Pad2)*%
X76200000Y-33020000D03*
D11*
%TO.P,R45,2*%
%TO.N,Net-(A1-Pad26)*%
X66040000Y-33020000D03*
%TD*%
D14*
%TO.P,C11,1*%
%TO.N,VCC*%
X81280000Y-59690000D03*
D10*
%TO.P,C11,2*%
%TO.N,GND*%
X81280000Y-61690000D03*
%TD*%
D48*
%TO.P,U2,1,LED1*%
%TO.N,Net-(BAR1-Pad11)*%
X86360000Y-68580000D03*
D49*
%TO.P,U2,2,V-*%
%TO.N,GND*%
X88900000Y-68580000D03*
%TO.P,U2,3,V+*%
%TO.N,VCC*%
X91440000Y-68580000D03*
%TO.P,U2,4,RLO*%
%TO.N,GND*%
X93980000Y-68580000D03*
%TO.P,U2,5,SIG*%
%TO.N,Net-(C7-Pad1)*%
X96520000Y-68580000D03*
%TO.P,U2,6,RHI*%
%TO.N,Net-(RV4-Pad1)*%
X99060000Y-68580000D03*
%TO.P,U2,8,REFOUT*%
X101600000Y-68580000D03*
%TO.P,U2,10,REFADJ*%
%TO.N,Net-(RV4-Pad2)*%
X104140000Y-68580000D03*
%TO.P,U2,11,MODE*%
%TO.N,VCC*%
X106680000Y-68580000D03*
%TO.P,U2,12,LED10*%
%TO.N,Net-(BAR1-Pad20)*%
X106680000Y-53340000D03*
%TO.P,U2,13,LED9*%
%TO.N,Net-(BAR1-Pad19)*%
X104140000Y-53340000D03*
%TO.P,U2,14,LED8*%
%TO.N,Net-(BAR1-Pad18)*%
X101600000Y-53340000D03*
%TO.P,U2,15,LED7*%
%TO.N,Net-(BAR1-Pad17)*%
X99060000Y-53340000D03*
%TO.P,U2,16,LED6*%
%TO.N,Net-(BAR1-Pad16)*%
X96520000Y-53340000D03*
%TO.P,U2,17,LED5*%
%TO.N,Net-(BAR1-Pad15)*%
X93980000Y-53340000D03*
%TO.P,U2,18,LED4*%
%TO.N,Net-(BAR1-Pad14)*%
X91440000Y-53340000D03*
%TO.P,U2,19,LED3*%
%TO.N,Net-(BAR1-Pad13)*%
X88900000Y-53340000D03*
%TO.P,U2,20,LED2*%
%TO.N,Net-(BAR1-Pad12)*%
X86360000Y-53340000D03*
%TD*%
D10*
%TO.P,R19,1*%
%TO.N,PAD_C#4*%
X88900000Y-81280000D03*
D11*
%TO.P,R19,2*%
%TO.N,Net-(R19-Pad2)*%
X88900000Y-91440000D03*
%TD*%
D10*
%TO.P,R40,1*%
%TO.N,PAD_B4*%
X139700000Y-81280000D03*
D11*
%TO.P,R40,2*%
%TO.N,Net-(R40-Pad2)*%
X139700000Y-91440000D03*
%TD*%
D15*
%TO.P,J9,1,Pin_1*%
%TO.N,A_SYNTH*%
X139700000Y-73660000D03*
D16*
%TO.P,J9,2,Pin_2*%
%TO.N,Net-(J9-Pad2)*%
X139700000Y-71120000D03*
%TD*%
D10*
%TO.P,R30,1*%
%TO.N,PAD_F#4*%
X114300000Y-81280000D03*
D11*
%TO.P,R30,2*%
%TO.N,Net-(R30-Pad2)*%
X114300000Y-91440000D03*
%TD*%
D14*
%TO.P,A1,1,NC*%
%TO.N,unconnected-(A1-Pad1)*%
X58420000Y-73660000D03*
D11*
%TO.P,A1,2,IOREF*%
%TO.N,unconnected-(A1-Pad2)*%
X60960000Y-73660000D03*
%TO.P,A1,3,~{RESET}*%
%TO.N,unconnected-(A1-Pad3)*%
X63500000Y-73660000D03*
%TO.P,A1,4,3V3*%
%TO.N,unconnected-(A1-Pad4)*%
X66040000Y-73660000D03*
%TO.P,A1,5,+5V*%
%TO.N,VCC*%
X68580000Y-73660000D03*
%TO.P,A1,6,GND*%
%TO.N,GND*%
X71120000Y-73660000D03*
%TO.P,A1,7,GND*%
X73660000Y-73660000D03*
%TO.P,A1,8,VIN*%
%TO.N,unconnected-(A1-Pad8)*%
X76200000Y-73660000D03*
%TO.P,A1,9,A0*%
%TO.N,POT_ATK*%
X81280000Y-73660000D03*
%TO.P,A1,10,A1*%
%TO.N,POT_REL*%
X83820000Y-73660000D03*
%TO.P,A1,11,A2*%
%TO.N,POT_WAV*%
X86360000Y-73660000D03*
%TO.P,A1,12,A3*%
%TO.N,Net-(A1-Pad12)*%
X88900000Y-73660000D03*
%TO.P,A1,13,SDA/A4*%
%TO.N,unconnected-(A1-Pad13)*%
X91440000Y-73660000D03*
%TO.P,A1,14,SCL/A5*%
%TO.N,unconnected-(A1-Pad14)*%
X93980000Y-73660000D03*
%TO.P,A1,15,D0/RX*%
%TO.N,unconnected-(A1-Pad15)*%
X93980000Y-25400000D03*
%TO.P,A1,16,D1/TX*%
%TO.N,unconnected-(A1-Pad16)*%
X91440000Y-25400000D03*
%TO.P,A1,17,D2*%
%TO.N,unconnected-(A1-Pad17)*%
X88900000Y-25400000D03*
%TO.P,A1,18,D3*%
%TO.N,unconnected-(A1-Pad18)*%
X86360000Y-25400000D03*
%TO.P,A1,19,D4*%
%TO.N,unconnected-(A1-Pad19)*%
X83820000Y-25400000D03*
%TO.P,A1,20,D5*%
%TO.N,unconnected-(A1-Pad20)*%
X81280000Y-25400000D03*
%TO.P,A1,21,D6*%
%TO.N,unconnected-(A1-Pad21)*%
X78740000Y-25400000D03*
%TO.P,A1,22,D7*%
%TO.N,unconnected-(A1-Pad22)*%
X76200000Y-25400000D03*
%TO.P,A1,23,D8*%
%TO.N,unconnected-(A1-Pad23)*%
X72140000Y-25400000D03*
%TO.P,A1,24,D9*%
%TO.N,unconnected-(A1-Pad24)*%
X69600000Y-25400000D03*
%TO.P,A1,25,D10*%
%TO.N,unconnected-(A1-Pad25)*%
X67060000Y-25400000D03*
%TO.P,A1,26,D11*%
%TO.N,Net-(A1-Pad26)*%
X64520000Y-25400000D03*
%TO.P,A1,27,D12*%
%TO.N,unconnected-(A1-Pad27)*%
X61980000Y-25400000D03*
%TO.P,A1,28,D13*%
%TO.N,unconnected-(A1-Pad28)*%
X59440000Y-25400000D03*
%TO.P,A1,29,GND*%
%TO.N,GND*%
X56900000Y-25400000D03*
%TO.P,A1,30,AREF*%
%TO.N,unconnected-(A1-Pad30)*%
X54360000Y-25400000D03*
%TO.P,A1,31,SDA/A4*%
%TO.N,unconnected-(A1-Pad31)*%
X51820000Y-25400000D03*
%TO.P,A1,32,SCL/A5*%
%TO.N,unconnected-(A1-Pad32)*%
X49280000Y-25400000D03*
%TD*%
D50*
%TO.N,VCC*%
X101600000Y-35560000D03*
%TO.N,GND*%
X133326583Y-74903348D03*
X133718968Y-77184993D03*
%TO.N,AUDIO_OUT*%
X108972557Y-67610204D03*
X108972557Y-65674439D03*
%TO.N,Net-(C8-Pad1)*%
X130107445Y-33020000D03*
X127000000Y-33020000D03*
%TO.N,Net-(RV4-Pad2)*%
X104140000Y-65866870D03*
X82363206Y-68558512D03*
X96520000Y-63500000D03*
X66040000Y-71120000D03*
X71120000Y-71120000D03*
X85200932Y-65695673D03*
%TD*%
D51*
%TO.N,VCC*%
X85050000Y-59690000D02*
X91400000Y-66040000D01*
X81280000Y-59690000D02*
X85050000Y-59690000D01*
X128280000Y-63500000D02*
X120660000Y-71120000D01*
X101600000Y-35560000D02*
X101600000Y-42017500D01*
%TO.N,GND*%
X95968630Y-66591370D02*
X111208630Y-66591370D01*
X88900000Y-66040000D02*
X88900000Y-68580000D01*
X45800000Y-55880000D02*
X45800000Y-53352362D01*
X43260000Y-63580000D02*
X43180000Y-63500000D01*
X73593483Y-27327500D02*
X56901849Y-27327500D01*
X136035489Y-29355489D02*
X136035489Y-27019774D01*
X130204999Y-63720372D02*
X130204999Y-63730527D01*
X114300000Y-33020000D02*
X114300000Y-35197895D01*
X141205263Y-21850000D02*
X157422500Y-21850000D01*
X93980000Y-68580000D02*
X95968630Y-66591370D01*
X32100000Y-27327500D02*
X36854501Y-27327500D01*
X120660000Y-63500000D02*
X121784511Y-62375489D01*
X56900000Y-27325651D02*
X56901849Y-27327500D01*
X114300000Y-35197895D02*
X114300000Y-36830000D01*
X36850000Y-27332001D02*
X36854501Y-27327500D01*
X80148630Y-61690000D02*
X78740000Y-60281370D01*
X73700000Y-30480000D02*
X73700000Y-27434017D01*
X115424511Y-31895489D02*
X114300000Y-33020000D01*
X73660000Y-68580000D02*
X73660000Y-73660000D01*
X121784511Y-62375489D02*
X128849960Y-62375489D01*
X136035489Y-27019774D02*
X141205263Y-21850000D01*
X25803039Y-53340000D02*
X25560000Y-53583039D01*
X128849960Y-62375489D02*
X130204999Y-63730527D01*
X112372500Y-27940000D02*
X111760000Y-27327500D01*
X133718968Y-75295733D02*
X133326583Y-74903348D01*
X114300000Y-63500000D02*
X111208630Y-66591370D01*
X78740000Y-53340000D02*
X66040000Y-53340000D01*
X111208630Y-66591370D02*
X111208630Y-71080000D01*
X133320000Y-68580000D02*
X133320000Y-71120000D01*
X66200000Y-53500000D02*
X66040000Y-53340000D01*
X137160000Y-30480000D02*
X136035489Y-29355489D01*
X84550000Y-61690000D02*
X88900000Y-66040000D01*
X81280000Y-61690000D02*
X84550000Y-61690000D01*
X92893489Y-69666511D02*
X89986511Y-69666511D01*
X106680000Y-73660000D02*
X109760000Y-73660000D01*
X122278827Y-35201173D02*
X114303278Y-35201173D01*
X43180000Y-63500000D02*
X68580000Y-63500000D01*
X56901849Y-27327500D02*
X44100000Y-27327500D01*
X111760000Y-27327500D02*
X73593483Y-27327500D01*
X66040000Y-53340000D02*
X45787638Y-53340000D01*
X25560000Y-53583039D02*
X25560000Y-55880000D01*
X68580000Y-63500000D02*
X73660000Y-68580000D01*
X73700000Y-27434017D02*
X73593483Y-27327500D01*
X78740000Y-60281370D02*
X78740000Y-53340000D01*
X56900000Y-25400000D02*
X56900000Y-27325651D01*
X81280000Y-61690000D02*
X80148630Y-61690000D01*
X36850000Y-30187500D02*
X36850000Y-27332001D01*
X109760000Y-72528630D02*
X111208630Y-71080000D01*
X127000000Y-30480000D02*
X122278827Y-35201173D01*
X109760000Y-73660000D02*
X109760000Y-72528630D01*
X111208630Y-71080000D02*
X115580000Y-71080000D01*
X89986511Y-69666511D02*
X88900000Y-68580000D01*
X25803039Y-53340000D02*
X25803039Y-33624461D01*
X45787638Y-53340000D02*
X25803039Y-53340000D01*
X66200000Y-55880000D02*
X66200000Y-53500000D01*
X93980000Y-68580000D02*
X92893489Y-69666511D01*
X120660000Y-63500000D02*
X114300000Y-63500000D01*
X115424511Y-29064511D02*
X115424511Y-31895489D01*
X36854501Y-27327500D02*
X44100000Y-27327500D01*
X45800000Y-53352362D02*
X45787638Y-53340000D01*
X127000000Y-30480000D02*
X137160000Y-30480000D01*
X114300000Y-27940000D02*
X112372500Y-27940000D01*
X139700000Y-55880000D02*
X138045371Y-55880000D01*
X133718968Y-77184993D02*
X133718968Y-75295733D01*
X114303278Y-35201173D02*
X114300000Y-35197895D01*
X114300000Y-27940000D02*
X115424511Y-29064511D01*
X43260000Y-68770000D02*
X43260000Y-63580000D01*
X114300000Y-36830000D02*
X110490000Y-40640000D01*
X33180000Y-63500000D02*
X43180000Y-63500000D01*
X25803039Y-33624461D02*
X32100000Y-27327500D01*
X25560000Y-55880000D02*
X33180000Y-63500000D01*
X130204999Y-63730527D02*
X133320000Y-66845529D01*
X133320000Y-66845529D02*
X133320000Y-68580000D01*
X138045371Y-55880000D02*
X130204999Y-63720372D01*
X73660000Y-73660000D02*
X71120000Y-73660000D01*
%TO.N,POT_ATK*%
X81280000Y-73660000D02*
X68580000Y-60960000D01*
X35640000Y-60960000D02*
X30560000Y-55880000D01*
X68580000Y-60960000D02*
X35640000Y-60960000D01*
%TO.N,POT_REL*%
X53340000Y-58420000D02*
X68580000Y-58420000D01*
X50800000Y-55880000D02*
X53340000Y-58420000D01*
X68580000Y-58420000D02*
X83820000Y-73660000D01*
%TO.N,POT_WAV*%
X71200000Y-58500000D02*
X86360000Y-73660000D01*
X71200000Y-55880000D02*
X71200000Y-58500000D01*
%TO.N,Net-(C2-Pad1)*%
X149860000Y-76200000D02*
X135900000Y-76200000D01*
X135900000Y-76200000D02*
X130820000Y-71120000D01*
%TO.N,KB_IN*%
X168650000Y-67822500D02*
X164750000Y-63922500D01*
X168650000Y-68522500D02*
X168650000Y-67822500D01*
X164750000Y-63922500D02*
X164677500Y-63922500D01*
X164677500Y-63922500D02*
X152400000Y-76200000D01*
%TO.N,AUDIO_OUT*%
X116500796Y-57418977D02*
X108972557Y-64947216D01*
X124149358Y-46030642D02*
X124149358Y-56744104D01*
X108972557Y-64947216D02*
X108972557Y-65674439D01*
X144780000Y-25400000D02*
X124149358Y-46030642D01*
X108972557Y-67610204D02*
X108972557Y-69702922D01*
X108972557Y-69702922D02*
X107555479Y-71120000D01*
X124149358Y-56744104D02*
X123474485Y-57418977D01*
X123474485Y-57418977D02*
X116500796Y-57418977D01*
X107555479Y-71120000D02*
X104140000Y-71120000D01*
%TO.N,Net-(C8-Pad1)*%
X127000000Y-33020000D02*
X130107445Y-33020000D01*
%TO.N,Net-(R1-Pad2)*%
X43180000Y-81280000D02*
X43180000Y-88900000D01*
X43180000Y-88900000D02*
X40640000Y-91440000D01*
%TO.N,PAD_F3*%
X43180000Y-91440000D02*
X42055489Y-92564511D01*
X48460000Y-81280000D02*
X48460000Y-86160000D01*
X48460000Y-86160000D02*
X43180000Y-91440000D01*
X23913447Y-95419890D02*
X23913447Y-124386744D01*
X26768826Y-92564511D02*
X23913447Y-95419890D01*
X42055489Y-92564511D02*
X26768826Y-92564511D01*
%TO.N,PAD_F#3*%
X35640413Y-93030570D02*
X34073447Y-94597536D01*
X53340000Y-89100000D02*
X51000000Y-91440000D01*
X34073447Y-94597536D02*
X34073447Y-109146744D01*
X53340000Y-81280000D02*
X53340000Y-89100000D01*
X51000000Y-91440000D02*
X49409430Y-93030570D01*
X49409430Y-93030570D02*
X35640413Y-93030570D01*
%TO.N,Net-(R7-Pad2)*%
X60960000Y-88900000D02*
X58420000Y-91440000D01*
X60960000Y-81280000D02*
X60960000Y-88900000D01*
%TO.N,Net-(R10-Pad1)*%
X66040000Y-81280000D02*
X66040000Y-88900000D01*
X66040000Y-88900000D02*
X63500000Y-91440000D01*
%TO.N,PAD_G3*%
X55880000Y-91440000D02*
X53838266Y-93481734D01*
X40640000Y-94397464D02*
X40640000Y-120360191D01*
X58420000Y-81280000D02*
X58420000Y-88900000D01*
X40640000Y-120360191D02*
X36613447Y-124386744D01*
X58420000Y-88900000D02*
X55880000Y-91440000D01*
X41555730Y-93481734D02*
X40640000Y-94397464D01*
X53838266Y-93481734D02*
X41555730Y-93481734D01*
%TO.N,Net-(R13-Pad2)*%
X73660000Y-91440000D02*
X76200000Y-88900000D01*
X76200000Y-88900000D02*
X76200000Y-81280000D01*
%TO.N,PAD_G#3*%
X46773447Y-96132259D02*
X46773447Y-109146744D01*
X63500000Y-88900000D02*
X60960000Y-91440000D01*
X58466541Y-93933459D02*
X48972247Y-93933459D01*
X60960000Y-91440000D02*
X58466541Y-93933459D01*
X48972247Y-93933459D02*
X46773447Y-96132259D01*
X63500000Y-81280000D02*
X63500000Y-88900000D01*
%TO.N,Net-(R19-Pad2)*%
X91440000Y-88900000D02*
X88900000Y-91440000D01*
X91440000Y-81280000D02*
X91440000Y-88900000D01*
%TO.N,PAD_A3*%
X66040000Y-91440000D02*
X63093114Y-94386886D01*
X53420799Y-97434811D02*
X52727922Y-98127688D01*
X68580000Y-88900000D02*
X66040000Y-91440000D01*
X68580000Y-81280000D02*
X68580000Y-88900000D01*
X53420799Y-94386886D02*
X53420799Y-97434811D01*
X63093114Y-94386886D02*
X53420799Y-94386886D01*
%TO.N,Net-(R28-Pad2)*%
X111760000Y-81280000D02*
X111760000Y-88900000D01*
X111760000Y-88900000D02*
X109220000Y-91440000D01*
%TO.N,PAD_A#3*%
X59465489Y-109138786D02*
X59473447Y-109146744D01*
X67688657Y-94871343D02*
X59465489Y-94871343D01*
X73660000Y-88900000D02*
X71120000Y-91440000D01*
X59465489Y-94871343D02*
X59465489Y-109138786D01*
X73660000Y-81280000D02*
X73660000Y-88900000D01*
X71120000Y-91440000D02*
X67688657Y-94871343D01*
%TO.N,Net-(R32-Pad2)*%
X121920000Y-88900000D02*
X121920000Y-81280000D01*
X119380000Y-91440000D02*
X121920000Y-88900000D01*
%TO.N,PAD_B3*%
X67239629Y-98469125D02*
X67323402Y-98552898D01*
X72291705Y-95348295D02*
X67239629Y-95348295D01*
X78740000Y-81280000D02*
X78740000Y-88900000D01*
X67239629Y-95348295D02*
X67239629Y-98469125D01*
X78740000Y-88900000D02*
X76200000Y-91440000D01*
X76200000Y-91440000D02*
X72291705Y-95348295D01*
%TO.N,Net-(R38-Pad2)*%
X134620000Y-91440000D02*
X137160000Y-88900000D01*
X137160000Y-88900000D02*
X137160000Y-81280000D01*
%TO.N,PAD_C4*%
X74713447Y-94763215D02*
X74713447Y-124386744D01*
X81280000Y-91440000D02*
X78975726Y-93744274D01*
X75732388Y-93744274D02*
X74713447Y-94763215D01*
X78975726Y-93744274D02*
X75732388Y-93744274D01*
X83820000Y-81280000D02*
X83820000Y-88900000D01*
X83820000Y-88900000D02*
X81280000Y-91440000D01*
%TO.N,PAD_C#4*%
X82333447Y-95466553D02*
X82333447Y-109146744D01*
X88900000Y-81280000D02*
X88900000Y-88900000D01*
X86360000Y-91440000D02*
X82333447Y-95466553D01*
X88900000Y-88900000D02*
X86360000Y-91440000D01*
%TO.N,Net-(R3-Pad2)*%
X51000000Y-81280000D02*
X51000000Y-88900000D01*
X51000000Y-88900000D02*
X48460000Y-91440000D01*
%TO.N,Net-(R5-Pad2)*%
X55880000Y-81280000D02*
X55880000Y-88900000D01*
X55880000Y-88900000D02*
X53340000Y-91440000D01*
%TO.N,PAD_D4*%
X91440000Y-91440000D02*
X91440000Y-91470395D01*
X91440000Y-91470395D02*
X88818697Y-94091698D01*
X88818697Y-94091698D02*
X88818697Y-122981494D01*
X88818697Y-122981494D02*
X87413447Y-124386744D01*
X93980000Y-88900000D02*
X91440000Y-91440000D01*
X93980000Y-81280000D02*
X93980000Y-88900000D01*
%TO.N,PAD_D#4*%
X96520000Y-107660191D02*
X95033447Y-109146744D01*
X99060000Y-81280000D02*
X99060000Y-88900000D01*
X96520000Y-91440000D02*
X96520000Y-107660191D01*
X99060000Y-88900000D02*
X96520000Y-91440000D01*
%TO.N,Net-(R11-Pad2)*%
X71120000Y-88900000D02*
X71120000Y-81280000D01*
X68580000Y-91440000D02*
X71120000Y-88900000D01*
%TO.N,PAD_E4*%
X104140000Y-81280000D02*
X104140000Y-88900000D01*
X101600000Y-122900191D02*
X100113447Y-124386744D01*
X104140000Y-88900000D02*
X101600000Y-91440000D01*
X101600000Y-91440000D02*
X101600000Y-122900191D01*
%TO.N,PAD_F4*%
X106680000Y-93694453D02*
X108525151Y-95539604D01*
X109220000Y-88900000D02*
X106680000Y-91440000D01*
X108525151Y-95539604D02*
X108525151Y-122638448D01*
X108525151Y-122638448D02*
X110273447Y-124386744D01*
X106680000Y-91440000D02*
X106680000Y-93694453D01*
X109220000Y-81280000D02*
X109220000Y-88900000D01*
%TO.N,Net-(R15-Pad2)*%
X78740000Y-91440000D02*
X81280000Y-88900000D01*
X81280000Y-88900000D02*
X81280000Y-81280000D01*
%TO.N,Net-(R17-Pad2)*%
X86360000Y-88900000D02*
X83820000Y-91440000D01*
X86360000Y-81280000D02*
X86360000Y-88900000D01*
%TO.N,PAD_F#4*%
X111760000Y-91440000D02*
X117893447Y-97573447D01*
X114300000Y-81280000D02*
X114300000Y-88900000D01*
X114300000Y-88900000D02*
X111760000Y-91440000D01*
X117893447Y-97573447D02*
X117893447Y-109146744D01*
%TO.N,PAD_G4*%
X119864023Y-94464023D02*
X116840000Y-91440000D01*
X119380000Y-81280000D02*
X119380000Y-88900000D01*
X126081840Y-121278351D02*
X126081840Y-94464023D01*
X122973447Y-124386744D02*
X126081840Y-121278351D01*
X119380000Y-88900000D02*
X116840000Y-91440000D01*
X126081840Y-94464023D02*
X119864023Y-94464023D01*
%TO.N,Net-(R21-Pad2)*%
X96520000Y-88900000D02*
X93980000Y-91440000D01*
X96520000Y-81280000D02*
X96520000Y-88900000D01*
%TO.N,Net-(R24-Pad2)*%
X101600000Y-88900000D02*
X99060000Y-91440000D01*
X101600000Y-81280000D02*
X101600000Y-88900000D01*
%TO.N,Net-(R26-Pad2)*%
X106680000Y-88900000D02*
X104140000Y-91440000D01*
X106680000Y-81280000D02*
X106680000Y-88900000D01*
%TO.N,PAD_G#4*%
X124460000Y-81280000D02*
X124460000Y-88900000D01*
X130593447Y-109146744D02*
X130593447Y-98232169D01*
X130404536Y-98043258D02*
X130404536Y-94014503D01*
X124460000Y-88900000D02*
X121920000Y-91440000D01*
X130404536Y-94014503D02*
X124494503Y-94014503D01*
X130593447Y-98232169D02*
X130404536Y-98043258D01*
X124494503Y-94014503D02*
X121920000Y-91440000D01*
%TO.N,PAD_A4*%
X129124983Y-93564983D02*
X127000000Y-91440000D01*
X135673447Y-124386744D02*
X138547289Y-121512902D01*
X138547289Y-93564983D02*
X129124983Y-93564983D01*
X138547289Y-121512902D02*
X138547289Y-93564983D01*
X129540000Y-88900000D02*
X127000000Y-91440000D01*
X129540000Y-81280000D02*
X129540000Y-88900000D01*
%TO.N,Net-(R30-Pad2)*%
X116840000Y-88900000D02*
X116840000Y-81280000D01*
X114300000Y-91440000D02*
X116840000Y-88900000D01*
%TO.N,PAD_A#4*%
X143293447Y-109146744D02*
X143293447Y-94188643D01*
X143293447Y-94188643D02*
X142220267Y-93115463D01*
X134620000Y-88900000D02*
X132080000Y-91440000D01*
X134620000Y-81280000D02*
X134620000Y-88900000D01*
X142220267Y-93115463D02*
X133755463Y-93115463D01*
X133755463Y-93115463D02*
X132080000Y-91440000D01*
%TO.N,Net-(R34-Pad2)*%
X124460000Y-91440000D02*
X127000000Y-88900000D01*
X127000000Y-88900000D02*
X127000000Y-81280000D01*
%TO.N,Net-(R36-Pad2)*%
X132080000Y-88900000D02*
X132080000Y-81280000D01*
X129540000Y-91440000D02*
X132080000Y-88900000D01*
%TO.N,PAD_B4*%
X139700000Y-81280000D02*
X139700000Y-88900000D01*
X139700000Y-88900000D02*
X137160000Y-91440000D01*
X137160000Y-91440000D02*
X138360430Y-92640430D01*
X138360430Y-92640430D02*
X151705151Y-92640430D01*
X151705151Y-92640430D02*
X151705151Y-121055040D01*
X151705151Y-121055040D02*
X148373447Y-124386744D01*
%TO.N,PAD_C5*%
X152400000Y-91440000D02*
X157480000Y-96520000D01*
X152400000Y-91440000D02*
X142240000Y-91440000D01*
X160020000Y-81280000D02*
X160020000Y-83820000D01*
X160020000Y-83820000D02*
X152400000Y-91440000D01*
%TO.N,Net-(R40-Pad2)*%
X142240000Y-81280000D02*
X142240000Y-88900000D01*
X142240000Y-88900000D02*
X139700000Y-91440000D01*
%TO.N,Net-(R42-Pad2)*%
X162560000Y-81280000D02*
X162560000Y-88900000D01*
X162560000Y-88900000D02*
X160020000Y-91440000D01*
%TO.N,Net-(C7-Pad1)*%
X110635489Y-74784511D02*
X111760000Y-73660000D01*
X96520000Y-73660000D02*
X97644511Y-74784511D01*
X96520000Y-68580000D02*
X96520000Y-71120000D01*
X96520000Y-71120000D02*
X96520000Y-73660000D01*
X97644511Y-74784511D02*
X110635489Y-74784511D01*
%TO.N,Net-(C8-Pad2)*%
X152472500Y-25400000D02*
X152822500Y-25750000D01*
X147320000Y-25400000D02*
X152472500Y-25400000D01*
X147320000Y-32480000D02*
X146780000Y-33020000D01*
X147320000Y-25400000D02*
X147320000Y-32480000D01*
%TO.N,Net-(RV4-Pad2)*%
X82363206Y-68558512D02*
X85200932Y-65720786D01*
X66040000Y-71120000D02*
X71120000Y-71120000D01*
X101773130Y-63500000D02*
X104140000Y-65866870D01*
X96520000Y-63500000D02*
X101773130Y-63500000D01*
X85200932Y-65720786D02*
X85200932Y-65695673D01*
%TO.N,Net-(RV4-Pad1)*%
X43260000Y-73770000D02*
X44429999Y-74939999D01*
X99060000Y-68580000D02*
X101600000Y-68580000D01*
X44429999Y-74939999D02*
X94290301Y-74939999D01*
X95253070Y-73977230D02*
X95253070Y-68310370D01*
X95253070Y-68310370D02*
X96117981Y-67445459D01*
X94290301Y-74939999D02*
X95253070Y-73977230D01*
X97925459Y-67445459D02*
X99060000Y-68580000D01*
X96117981Y-67445459D02*
X97925459Y-67445459D01*
%TD*%
M02*
